<svg width="18" height="20" viewBox="0 0 18 20" fill="none" xmlns="http://www.w3.org/2000/svg">
<g clip-path="url(#clip0_603_1425)">
<path d="M17.2228 14.8611C17.3552 14.6262 17.4375 14.3616 17.4375 14.124V5.87593C17.4375 5.63831 17.3553 5.37376 17.2228 5.13892L9 10L17.2228 14.8611Z" fill="#00599C"/>
<path d="M9.73095 19.544L16.7071 15.4199C16.908 15.3011 17.0907 15.096 17.2231 14.8611L9.00026 10L0.777466 14.8611C0.909878 15.096 1.09258 15.3012 1.29348 15.4199L8.26957 19.544C8.67141 19.7816 9.32911 19.7816 9.73095 19.544Z" fill="#004482"/>
<path d="M17.2228 5.13892C17.0904 4.90401 16.9077 4.69887 16.7068 4.58006L9.73069 0.45604C9.32885 0.218429 8.67115 0.218429 8.26931 0.45604L1.2932 4.58006C0.891288 4.81762 0.5625 5.40081 0.5625 5.87596V14.1241C0.5625 14.3617 0.644723 14.6263 0.777185 14.8612L9 10.0001L17.2228 5.13892Z" fill="#659AD2"/>
<path d="M9.02707 15.5554C5.91054 15.5554 3.375 13.0632 3.375 9.99989C3.375 6.93656 5.91054 4.44434 9.02707 4.44434C11.001 4.44434 12.8443 5.46912 13.8649 7.12614L11.4444 8.55996C10.933 7.73322 10.0124 7.22211 9.02707 7.22211C7.46873 7.22211 6.20107 8.46822 6.20107 9.99989C6.20107 11.5316 7.46873 12.7777 9.02707 12.7777C10.0098 12.7777 10.928 12.2694 11.4403 11.4466L13.866 12.872C12.8455 14.53 11.0016 15.5554 9.02707 15.5554Z" fill="white"/>
<path d="M13.9219 9.64909H13.2187V8.95825H12.5157V9.64909H11.8125V10.3398H12.5157V11.0308H13.2187V10.3398H13.9219V9.64909Z" fill="white"/>
<path d="M16.7344 9.6527H16.0312V8.95825H15.3282V9.6527H14.625V10.3471H15.3282V11.0416H16.0312V10.3471H16.7344V9.6527Z" fill="white"/>
</g>
<defs>
<clipPath id="clip0_603_1425">
<rect width="18" height="20" fill="white"/>
</clipPath>
</defs>
</svg>
