<svg width="18" height="18" viewBox="0 0 18 18" fill="none" xmlns="http://www.w3.org/2000/svg">
<path fill-rule="evenodd" clip-rule="evenodd" d="M10.1912 7.89986C9.97917 7.9592 9.76419 8.01933 9.51534 8.08695C9.39378 8.12137 9.3661 8.12919 9.25299 7.99166C9.11731 7.82966 9.0178 7.72486 8.82779 7.62952C8.25787 7.3341 7.706 7.41988 7.19035 7.77251C6.5752 8.1918 6.25857 8.81122 6.26763 9.58314C6.27663 10.3456 6.77422 10.9745 7.48893 11.0793C8.10408 11.1651 8.61972 10.9364 9.02681 10.4504C9.1082 10.3456 9.18065 10.2311 9.2711 10.0978H7.5251C7.33509 10.0978 7.28986 9.97391 7.3532 9.81185C7.47082 9.51643 7.68794 9.02092 7.81456 8.77314C7.84173 8.71593 7.90507 8.62065 8.04074 8.62065H10.952C11.0827 8.18415 11.2949 7.77172 11.578 7.38146C12.2384 6.46655 13.0345 5.99006 14.111 5.78998C15.0338 5.61841 15.9022 5.7137 16.6893 6.27598C17.404 6.79061 17.8473 7.48625 17.9649 8.40116C18.1187 9.68765 17.7659 10.736 16.9245 11.6318C16.3274 12.2703 15.5947 12.6705 14.7533 12.8516C14.5929 12.8829 14.4324 12.8977 14.2744 12.9124C14.192 12.92 14.1103 12.9275 14.0296 12.9374C13.2063 12.9183 12.4555 12.6705 11.8222 12.0988C11.3769 11.6932 11.0701 11.1948 10.9176 10.6147C10.8118 10.8398 10.6853 11.0553 10.5376 11.2604C9.88625 12.1657 9.03586 12.728 7.95935 12.8805C7.07274 13.0044 6.24952 12.8233 5.52578 12.2515C4.85633 11.7178 4.47638 11.0126 4.37686 10.1359C4.25926 9.09714 4.54875 8.16322 5.14582 7.34366C5.78815 6.45738 6.63854 5.89511 7.67889 5.69497C8.52927 5.53297 9.34344 5.63782 10.0763 6.16196C10.5557 6.49547 10.8995 6.95295 11.1257 7.50566C11.1799 7.59144 11.1437 7.63908 11.0352 7.66766C10.7181 7.75248 10.457 7.82555 10.1912 7.89986ZM16.1764 8.98537C16.1782 9.01738 16.1801 9.05113 16.1827 9.0873C16.1375 9.90686 15.7485 10.5168 15.0338 10.9075C14.5543 11.1648 14.0567 11.1934 13.5592 10.9647C12.9078 10.6597 12.564 9.90686 12.7269 9.16352C12.9259 8.26773 13.4687 7.70546 14.31 7.50532C15.1695 7.29568 15.9927 7.82932 16.1556 8.7728C16.1684 8.8403 16.1721 8.90775 16.1764 8.98537Z" fill="#00ACD7"/>
<path d="M1.37514 7.7915C1.35704 7.82008 1.36609 7.83915 1.40227 7.83915L4.09651 7.84871C4.12365 7.84871 4.16888 7.82008 4.18697 7.7915L4.34077 7.54372C4.35886 7.51515 4.34981 7.48657 4.31363 7.48657H1.66463C1.62844 7.48657 1.58321 7.50564 1.56512 7.53422L1.37514 7.7915Z" fill="#00ACD7"/>
<path d="M0.00904663 8.66821C-0.00904663 8.69679 4.19095e-09 8.71586 0.0361865 8.71586L3.73459 8.70635C3.77078 8.70635 3.80697 8.68728 3.81601 8.64914L3.88839 8.42043C3.89743 8.39186 3.87934 8.36328 3.84315 8.36328H0.298538C0.262352 8.36328 0.217119 8.38229 0.199025 8.41092L0.00904663 8.66821Z" fill="#00ACD7"/>
<path d="M2.19838 9.53566C2.18028 9.56423 2.18933 9.59281 2.22552 9.59281L3.61704 9.60237C3.64417 9.60237 3.68036 9.5738 3.68036 9.53566L3.69845 9.30695C3.69845 9.26881 3.68036 9.24023 3.64417 9.24023H2.4155C2.37931 9.24023 2.34312 9.26881 2.32503 9.29738L2.19838 9.53566Z" fill="#00ACD7"/>
</svg>
