<svg width="18" height="18" viewBox="0 0 18 18" fill="none" xmlns="http://www.w3.org/2000/svg">
<g clip-path="url(#clip0_603_1432)">
<path d="M0 0H18V18H0V0Z" fill="#F7DF1E"/>
<path d="M4.73282 15.042L6.1103 14.2084C6.37605 14.6796 6.61779 15.0782 7.19765 15.0782C7.75347 15.0782 8.1039 14.8608 8.1039 14.0151V8.26367H9.79544V14.039C9.79544 15.791 8.76847 16.5885 7.27016 16.5885C5.91699 16.5885 5.13153 15.8878 4.73282 15.042Z" fill="white"/>
<path d="M10.7142 14.8608L12.0915 14.0634C12.4541 14.6555 12.9253 15.0904 13.759 15.0904C14.4599 15.0904 14.9068 14.74 14.9068 14.2567C14.9068 13.6767 14.4477 13.4713 13.6744 13.1331L13.2516 12.9517C12.0312 12.4322 11.2216 11.7798 11.2216 10.4023C11.2216 9.13365 12.1882 8.16699 13.6986 8.16699C14.774 8.16699 15.5473 8.54159 16.103 9.52031L14.786 10.366C14.496 9.84653 14.1819 9.64116 13.6987 9.64116C13.2033 9.64116 12.8891 9.95531 12.8891 10.366C12.8891 10.8735 13.2033 11.079 13.9281 11.3932L14.351 11.5744C15.7889 12.1906 16.5984 12.8189 16.5984 14.2325C16.5984 15.755 15.4023 16.5886 13.7953 16.5886C12.2245 16.5886 11.2095 15.8396 10.7142 14.8608Z" fill="white"/>
</g>
<defs>
<clipPath id="clip0_603_1432">
<rect width="18" height="18" fill="white"/>
</clipPath>
</defs>
</svg>
