<svg width="18" height="18" viewBox="0 0 18 18" fill="none" xmlns="http://www.w3.org/2000/svg">
<g clip-path="url(#clip0_603_1476)">
<path d="M7.93153 17.9883C6.24663 17.8669 4.58134 17.4428 3.56003 16.875C2.97829 16.5516 2.53508 16.1542 2.36117 15.8L2.25769 15.5892V8.97854V2.3679L2.33957 2.20164C2.70548 1.45876 3.87325 0.789042 5.5034 0.387205C6.05676 0.25079 6.85561 0.114943 7.50732 0.0464403C8.1728 -0.0235283 9.93671 -0.0128831 10.6005 0.0652112C12.3649 0.272494 13.8662 0.736549 14.7914 1.36061C15.1482 1.60127 15.5143 1.98635 15.6383 2.25141L15.7447 2.47867L15.7356 9.06932L15.7265 15.66L15.6411 15.8334C15.5942 15.9288 15.4524 16.1165 15.326 16.2504C14.5567 17.0659 12.9065 17.6692 10.742 17.9263C10.3008 17.9787 8.38416 18.0209 7.93153 17.9883ZM11.0365 12.3239C11.0301 12.307 10.7782 12.0826 10.4768 11.8252C10.1754 11.5678 9.91588 11.3452 9.90002 11.3304C9.88415 11.3156 9.93983 11.2633 10.0238 11.2141C10.1077 11.1649 10.2684 11.028 10.381 10.9099C10.7103 10.5647 10.8657 10.1382 10.8657 9.57951C10.8657 9.02953 10.6981 8.58579 10.3625 8.24706C10.0243 7.90562 9.63595 7.75892 9.07041 7.75892C8.19867 7.75892 7.52918 8.26758 7.3155 9.09224C7.24199 9.37589 7.24238 9.94905 7.31627 10.2006C7.50897 10.8566 8.03381 11.3331 8.687 11.445C8.90804 11.4829 8.93798 11.4992 9.08867 11.6639C9.17824 11.7619 9.36202 11.9573 9.49708 12.0983L9.74266 12.3546H10.3955C10.7546 12.3546 11.043 12.3408 11.0365 12.3239ZM8.79771 10.496C8.64055 10.414 8.58113 10.3504 8.49151 10.1682C8.42228 10.0275 8.41045 9.94748 8.40967 9.61487C8.4089 9.27691 8.41965 9.20388 8.49193 9.05713C8.61018 8.81698 8.77313 8.7033 9.02521 8.68507C9.37609 8.65961 9.57863 8.83182 9.68478 9.24567C9.81492 9.75307 9.6718 10.2925 9.35955 10.4715C9.19573 10.5655 8.95137 10.5761 8.79771 10.496ZM5.90405 11.4378C6.58851 11.308 6.97706 10.91 6.97706 10.3385C6.97706 9.83162 6.72621 9.53624 6.03292 9.22674C5.63605 9.04957 5.4923 8.93836 5.4923 8.80843C5.4923 8.70074 5.62872 8.58272 5.78753 8.55307C5.9426 8.52412 6.35386 8.59555 6.59672 8.69365L6.8003 8.77589V8.32528V7.87464L6.57935 7.82562C6.4428 7.79533 6.15586 7.77716 5.82814 7.77808C5.36392 7.77808 5.27303 7.78939 5.09833 7.85877C4.58804 8.06135 4.3459 8.40643 4.34977 8.92553C4.3534 9.41148 4.60976 9.7146 5.24778 9.98729C5.62423 10.1482 5.77512 10.2707 5.77512 10.4155C5.77512 10.7232 5.26247 10.761 4.71971 10.4934C4.57107 10.4202 4.43752 10.3542 4.42294 10.3469C4.40836 10.3396 4.39643 10.5501 4.39643 10.8147C4.39643 11.2936 4.39694 11.2959 4.48365 11.3289C4.81016 11.4531 5.53183 11.5084 5.90405 11.4378ZM13.7291 10.9935V10.587H13.1105H12.4918V9.19064V7.79428H11.9439H11.3959V9.59718V11.4001H12.5625H13.7291V10.9935ZM9.91119 3.8694C11.0001 3.79388 11.8163 3.65129 12.5345 3.41114C13.25 3.1719 13.6727 2.88241 13.7673 2.56684C13.8037 2.44524 13.8011 2.39912 13.7502 2.26579C13.5219 1.66806 12.2467 1.20882 10.2981 1.02262C9.46453 0.94296 7.94862 0.968785 7.15386 1.07614C5.94116 1.23999 4.957 1.54434 4.5194 1.89084C3.63418 2.59181 4.5703 3.36279 6.74728 3.72567C7.69121 3.88301 8.91414 3.93857 9.91119 3.8694Z" fill="#00BCF2"/>
</g>
<defs>
<clipPath id="clip0_603_1476">
<rect width="18" height="18" fill="white"/>
</clipPath>
</defs>
</svg>
