<svg width="18" height="18" viewBox="0 0 18 18" fill="none" xmlns="http://www.w3.org/2000/svg">
<path d="M1.45427 9.79493C1.01525 9.35589 1.01525 8.64411 1.45427 8.20507L8.20507 1.45427C8.64411 1.01525 9.35589 1.01525 9.79493 1.45427L16.5457 8.20507C16.9847 8.64411 16.9847 9.35589 16.5457 9.79493L9.79493 16.5457C9.35589 16.9847 8.64411 16.9847 8.20507 16.5457L1.45427 9.79493Z" fill="#EE513B"/>
<path d="M6.83375 2.84717L6.15015 3.5308L7.91578 5.29643C7.84434 5.44967 7.80446 5.62057 7.80446 5.80079C7.80446 6.31244 8.12593 6.74899 8.5779 6.91949V11.2387C8.12593 11.4092 7.80446 11.8458 7.80446 12.3574C7.80446 13.0176 8.33962 13.5527 8.99977 13.5527C9.65992 13.5527 10.1951 13.0176 10.1951 12.3574C10.1951 11.8936 9.93088 11.4914 9.54472 11.2933V6.92539L11.2325 8.61318C11.1646 8.76331 11.1268 8.92998 11.1268 9.10548C11.1268 9.76563 11.6619 10.3008 12.3221 10.3008C12.9822 10.3008 13.5174 9.76563 13.5174 9.10548C13.5174 8.44533 12.9822 7.91016 12.3221 7.91016C12.1938 7.91016 12.0702 7.93036 11.9544 7.96776L10.1417 6.15511C10.1764 6.04317 10.1951 5.92414 10.1951 5.80079C10.1951 5.14063 9.65992 4.60546 8.99977 4.60546C8.87642 4.60546 8.75745 4.62416 8.64545 4.65886L6.83375 2.84717Z" fill="white"/>
</svg>
