<svg width="18" height="18" viewBox="0 0 18 18" fill="none" xmlns="http://www.w3.org/2000/svg">
<path d="M4.18274 7.99528C4.2108 7.97028 4.24178 7.94875 4.27499 7.93115C4.24077 7.94704 4.20956 7.96874 4.18274 7.99528Z" fill="#F0D6B7"/>
<path d="M5.85674 10.2673C5.89049 10.5041 5.99174 12.6095 7.41262 13.7829C7.70134 13.8279 7.99215 13.8583 8.28393 13.874C8.44143 13.5365 9.02193 13.5624 9.40049 13.649C8.92589 13.4067 8.50857 13.0657 8.17649 12.6489C7.73446 12.2629 7.44152 11.7343 7.34849 11.1549C8.10674 12.2068 8.73337 13.1236 10.1121 13.5883C11.1555 13.9381 12.3739 13.4279 13.1754 12.8649C13.4843 12.5969 13.7441 12.2771 13.9432 11.9199C14.8522 10.4734 15.275 8.77431 15.1498 7.07057C15.1754 6.41268 15.0801 5.75568 14.8686 5.1322C14.6137 4.62145 13.7526 4.1647 13.2486 4.62595C13.2402 4.58032 13.2372 4.53389 13.2396 4.48757C13.1591 4.56295 13.1102 4.61807 13.1102 4.61807C13.0684 4.53257 13.045 4.43924 13.0416 4.34413C13.0487 4.12263 13.1399 3.91216 13.2966 3.75546C13.4533 3.59875 13.6638 3.50755 13.8853 3.50038C13.6456 3.17393 13.3661 2.87859 13.0534 2.6212C11.9564 2.24636 10.7734 2.20293 9.65193 2.49632C8.87456 2.66344 8.1548 3.03206 7.56489 3.5652C6.97497 4.09835 6.53565 4.77726 6.29099 5.53382C6.18372 5.95149 6.11073 6.37721 6.07274 6.80676C6.05531 7.30401 6.30674 7.7377 6.32587 8.27882C6.19143 8.50045 5.78081 8.52801 5.49674 8.51282C5.47593 8.40763 5.45062 8.29963 5.42024 8.19445C5.19651 8.06969 4.95725 7.97512 4.70868 7.9132C4.92667 8.00237 5.10462 8.16805 5.20912 8.37912C5.31362 8.59019 5.33749 8.83215 5.27624 9.05957C5.06643 8.93976 5.01637 8.4127 4.76999 8.39751C4.41787 8.37613 4.48199 9.08151 4.48368 9.49438C4.36177 9.31298 4.288 9.10356 4.2693 8.8858C4.2506 8.66804 4.2876 8.4491 4.37681 8.24957C4.21706 8.17138 4.12706 8.28388 4.03931 8.37163C3.91443 8.95438 3.73162 9.4252 4.07418 10.0141C4.17193 10.1277 4.29452 10.2172 4.43246 10.2758C4.5704 10.3343 4.71996 10.3603 4.86956 10.3516C5.18849 10.3201 5.26668 10.0006 5.61431 10.004C5.67845 10.0142 5.73727 10.0457 5.78126 10.0935C5.82526 10.1413 5.85185 10.2025 5.85674 10.2673ZM9.48431 11.3624L9.31556 11.3281C9.31556 11.3281 9.13893 10.7094 9.22387 10.5935C9.26887 10.5333 9.51637 10.4428 9.86287 10.6093C9.86062 10.6098 9.44999 10.6784 9.48431 11.3624ZM12.6939 12.1168C12.0686 12.3288 11.3904 12.3261 10.7668 12.1089C10.4735 11.894 10.2277 11.6207 10.0451 11.3062C9.95793 11.1937 9.52368 10.9079 10.0384 10.9074C10.4417 11.9199 11.8271 11.8029 12.9954 11.7753C12.9416 11.9232 12.8339 12.0448 12.6939 12.1168ZM12.8627 11.2168C12.8362 11.0183 12.8362 10.8173 12.8627 10.6188C13.4546 10.5032 14.0195 10.277 14.5277 9.95226C14.4011 10.3008 14.1766 10.6054 13.8812 10.8295C13.5857 11.0536 13.2319 11.1877 12.8621 11.2156L12.8627 11.2168ZM14.4129 6.6757C14.31 6.71001 13.6423 7.10432 13.6941 6.60707C13.7202 6.46061 13.7889 6.32508 13.8915 6.21735C13.9941 6.10963 14.1262 6.03448 14.2712 6.00126C14.2662 5.92634 14.2662 5.85118 14.2712 5.77626H14.3156C14.5028 6.22154 14.7232 6.65212 14.9749 7.06438C14.7966 7.47951 13.6249 7.84626 13.644 7.10151C13.8971 6.98901 14.3342 7.07901 14.5586 6.93782C14.5057 6.79326 14.4461 6.65657 14.3899 6.51257L14.4129 6.6757ZM11.4952 9.34757C11.5053 9.36563 11.5139 9.38444 11.5211 9.40382C11.5723 9.11863 11.6668 8.78507 11.8294 8.83401C11.9084 8.85603 11.9783 8.90274 12.0289 8.9673C12.0795 9.03186 12.1081 9.1109 12.1106 9.19288C11.9212 9.31551 11.7427 9.45441 11.5774 9.60801C11.6139 9.77676 11.6584 9.94551 11.8716 9.98376C12.4937 10.0901 13.2176 9.60295 13.6654 9.43307C13.9427 8.96507 13.6412 8.79295 13.3914 8.49201C12.8796 7.87326 12.1933 7.11051 12.2181 6.18576C12.4251 6.03557 12.4431 6.4147 12.4723 6.48388C12.8522 7.20301 13.334 7.86346 13.9027 8.44476C14.0231 8.57638 14.2217 8.70295 14.2436 8.79013C14.3072 9.04382 14.0782 9.34757 14.1047 9.51576C13.3919 10.0769 12.4981 10.3571 11.5926 10.3033C11.4653 10.1812 11.3856 10.018 11.3676 9.84264C11.3495 9.66729 11.3944 9.49124 11.4941 9.34588L11.4952 9.34757ZM12.5966 10.6531C12.6323 10.8499 12.6467 11.05 12.6394 11.2499C11.6207 11.3006 10.4164 11.0486 10.1492 10.3336C10.9325 10.6143 11.7671 10.7227 12.5961 10.6514L12.5966 10.6531ZM10.2026 5.78863C10.3334 6.15711 10.5186 6.5039 10.7522 6.81745C10.8804 6.94232 11.1291 7.0942 11.0059 7.44126C10.9187 7.57564 10.7928 7.68039 10.6447 7.74163C10.2004 7.8727 9.16481 7.76863 9.51524 7.21457C9.88256 7.23145 10.377 7.45307 10.6515 7.18645C10.5981 7.10095 10.5339 6.99463 10.4704 6.87651C10.1891 7.05426 9.41624 7.06213 9.41624 6.60707C9.41624 6.12782 10.1694 6.02545 10.1694 6.02545L10.1751 6.03895C10.1667 5.95398 10.1759 5.86822 10.2021 5.78695L10.2026 5.78863ZM8.38912 4.14163C9.06131 3.6832 9.40162 3.94476 9.57037 4.24738C9.6139 4.26456 9.65312 4.2911 9.68527 4.32511C9.71741 4.35912 9.7417 4.39977 9.7564 4.4442C9.7711 4.48863 9.77586 4.53574 9.77035 4.58221C9.76484 4.62869 9.74918 4.67338 9.72449 4.71313C8.79187 4.49601 8.32837 5.10351 8.04543 5.73351C7.97287 5.86513 7.96893 5.77176 7.92731 5.65701C7.91108 5.63394 7.89943 5.60797 7.89299 5.58051C7.87897 5.55554 7.86156 5.53263 7.84124 5.51245C7.70624 5.37351 7.63593 4.6552 8.38912 4.14163Z" fill="#F0D6B7"/>
<path d="M3.53416 16.47H8.45773C8.43523 16.3941 8.41329 16.3193 8.39135 16.2484C8.2721 15.8911 8.18254 15.5246 8.1236 15.1526C7.51996 14.891 6.93915 14.5797 6.38716 14.2217C6.33862 14.177 6.2935 14.1286 6.25216 14.0771L3.29004 15.4007C3.29004 15.4007 3.39635 15.8248 3.53416 16.47Z" fill="#335061"/>
<path d="M5.30603 3.93741C5.39147 3.91114 5.47958 3.89453 5.56872 3.88791C5.70791 3.90708 5.84865 3.91254 5.98891 3.90422C6.26678 3.83503 6.50191 3.21178 6.71172 2.97947C6.88019 2.82457 7.05689 2.67886 7.24103 2.54297C6.47299 2.80748 5.79995 3.2925 5.30603 3.93741Z" fill="#6D6B6D"/>
<path d="M4.03704 7.07964C4.21471 6.98573 4.41301 6.93763 4.61397 6.93972C4.81492 6.94181 5.01218 6.99402 5.18786 7.09161C5.36354 7.18919 5.51209 7.32908 5.62005 7.49859C5.728 7.66809 5.79195 7.86186 5.8061 8.06233C6.19648 8.0522 5.95179 7.5752 5.88148 7.26752C5.67391 6.36302 6.15541 5.38877 5.98948 4.5332C3.81485 4.85833 3.93748 6.52839 4.03704 7.07964Z" fill="#6D6B6D"/>
<path d="M7.45254 2.16619C6.42879 2.45644 5.11704 3.20006 4.69629 4.11975C4.9039 4.07467 5.10775 4.01374 5.30604 3.9375C5.79995 3.29259 6.473 2.80757 7.24104 2.54306C7.27299 2.51406 7.30287 2.48286 7.33048 2.44969C7.43848 2.39737 7.59823 2.40131 7.60441 2.23875C7.55773 2.18869 7.50823 2.15044 7.45254 2.16619Z" fill="#DCD9D8"/>
<path d="M4.21878 5.05405C3.76878 5.55186 3.86103 6.48392 3.91615 7.14711C3.95579 7.12243 3.99672 7.0999 4.03878 7.07961C3.93753 6.52892 3.81715 4.8583 5.99122 4.53317C5.9731 4.43849 5.94637 4.34567 5.91134 4.25586C5.26457 4.29069 4.65709 4.57717 4.21878 5.05405Z" fill="#DCD9D8"/>
<path d="M5.85671 10.2674C5.85212 10.2035 5.82642 10.143 5.78365 10.0953C5.74088 10.0477 5.68347 10.0156 5.62046 10.0042C5.8089 10.3799 5.33021 10.498 5.28296 10.7663C5.28917 10.9244 5.31275 11.0814 5.35327 11.2343C5.51997 11.9051 5.79448 12.5444 6.16608 13.1272C6.31893 13.3154 6.50844 13.4706 6.7231 13.5833C6.93777 13.6961 7.17311 13.764 7.41483 13.783C5.99171 12.6102 5.89046 10.5042 5.85671 10.2674Z" fill="#F7E4CD"/>
<path d="M12.1078 9.19012C12.1053 9.10813 12.0767 9.02909 12.0261 8.96453C11.9755 8.89997 11.9056 8.85327 11.8266 8.83124C11.664 8.78512 11.5695 9.11587 11.5183 9.40105C11.5424 9.46752 11.5612 9.5358 11.5746 9.60524C11.7399 9.45164 11.9183 9.31274 12.1078 9.19012Z" fill="#F7E4CD"/>
<path d="M13.6935 6.60606C13.6418 7.10331 14.3123 6.70899 14.4124 6.67468L14.3882 6.51381C14.3243 6.34923 14.2847 6.17623 14.2706 6.00024C14.1256 6.03347 13.9936 6.10862 13.891 6.21634C13.7883 6.32406 13.7197 6.45959 13.6935 6.60606Z" fill="#F7E4CD"/>
<path d="M9.41565 6.60604C9.41565 7.0611 10.1868 7.05323 10.4698 6.87548C10.3174 6.61835 10.217 6.33376 10.1745 6.03791L10.1688 6.02441C10.1688 6.02441 9.41565 6.12679 9.41565 6.60604Z" fill="#F7E4CD"/>
<path d="M4.04546 8.37279C4.02421 8.39561 4.00065 8.41616 3.97515 8.4341C3.98865 8.26719 4.06266 8.11096 4.18327 7.99479C4.20997 7.9685 4.24098 7.947 4.27496 7.93123C4.3431 7.89813 4.41734 7.87946 4.49302 7.87636C4.56871 7.87326 4.64422 7.88581 4.71484 7.91323C4.9634 7.97515 5.20267 8.06973 5.4264 8.19448C5.31784 7.82098 5.13165 7.48404 4.7469 7.44185C4.5923 7.42911 4.43672 7.44795 4.28962 7.49721C4.14252 7.54648 4.00698 7.62514 3.89123 7.72842C3.77548 7.8317 3.68194 7.95744 3.6163 8.098C3.55066 8.23855 3.51429 8.39099 3.5094 8.54604C3.50954 9.08907 3.71325 9.61231 4.08034 10.0125C3.73721 9.42635 3.92059 8.95554 4.04546 8.37279Z" fill="#F7E4CD"/>
<path d="M9.65535 2.49914C10.7768 2.20575 11.9599 2.24918 13.0568 2.62402C12.9694 2.55583 12.8773 2.49398 12.7812 2.43895C11.7186 1.83933 9.92029 1.38877 8.78741 1.95183C7.8756 2.40633 6.6426 3.15895 6.22241 4.11239C6.395 4.56798 6.41922 5.06646 6.2916 5.53664C6.53649 4.77973 6.97624 4.10058 7.56668 3.56741C8.15712 3.03424 8.87746 2.66581 9.65535 2.49914Z" fill="#F7E4CD"/>
<path d="M13.0432 4.34692C13.0467 4.44203 13.07 4.53536 13.1118 4.62086C13.1118 4.62086 13.1608 4.56461 13.2412 4.49036C13.2587 4.07749 13.7278 3.84236 14.2717 4.00324C14.1468 3.84236 14.0203 3.67192 13.8887 3.50317C13.6669 3.50992 13.456 3.60094 13.2989 3.75768C13.1418 3.91443 13.0504 4.12514 13.0432 4.34692Z" fill="#F7E4CD"/>
<path d="M7.92676 5.65771C7.96838 5.77021 7.97288 5.86584 8.04488 5.73422C7.99739 5.72424 7.95529 5.69698 7.92676 5.65771Z" fill="#F7E4CD"/>
<path d="M7.89302 5.58103C7.87674 5.43574 7.89885 5.28872 7.95715 5.15465C8.07055 4.87478 8.26158 4.63316 8.50774 4.45826C8.7539 4.28336 9.04493 4.18246 9.34652 4.16746C9.42587 4.18006 9.50217 4.20734 9.57152 4.2479C9.40277 3.94528 9.06527 3.6854 8.39027 4.14215C7.63765 4.65571 7.70571 5.37403 7.84296 5.51128C7.8628 5.53209 7.87965 5.55557 7.89302 5.58103Z" fill="#F7E4CD"/>
<path d="M3.29001 15.4006L6.25213 14.0771C6.03501 13.8251 5.6452 13.3458 5.57713 13.37C4.44021 13.8754 3.37835 14.5351 2.42151 15.3303C2.59377 15.7017 2.74586 16.0822 2.87713 16.47H3.53413C3.39632 15.8248 3.29001 15.4006 3.29001 15.4006Z" fill="#49728B"/>
<path d="M15.1875 16.4852C15.3099 16.1048 15.4128 15.7184 15.4957 15.3275C15.516 15.2257 15.5553 15.0604 15.5835 14.9023L13.9601 13.6963C14.2729 14.3893 14.2992 15.1778 14.0332 15.89C14.0895 16.0993 14.2886 16.1797 14.3707 16.3682C14.3516 16.4019 14.3325 16.4351 14.3145 16.4689H15.1447C15.1602 16.4702 15.175 16.4759 15.1875 16.4852Z" fill="#335061"/>
<path d="M13.2845 13.4697C13.3734 13.423 13.4736 13.4024 13.5737 13.4101L13.4398 13.3105C13.3811 13.3563 13.3288 13.4099 13.2845 13.4697Z" fill="#335061"/>
<path d="M15.6127 14.557C15.5711 14.255 15.1627 14.0311 14.9535 13.8449C14.5687 13.5001 14.328 13.1963 13.928 12.874C13.7852 13.0406 13.6208 13.1874 13.4392 13.3105L13.5731 13.4101C13.6556 13.4237 13.7337 13.4568 13.8009 13.5067C13.868 13.5566 13.9222 13.6218 13.959 13.697L15.5812 14.9024C15.6069 14.7892 15.6175 14.673 15.6127 14.557Z" fill="#49728B"/>
<path d="M11.5718 16.4251C11.5722 16.4394 11.5739 16.4537 11.5768 16.4678H11.8463C11.8463 16.4181 11.866 16.3705 11.9011 16.3354C11.9363 16.3002 11.9839 16.2805 12.0336 16.2805C12.0833 16.2805 12.1309 16.3002 12.166 16.3354C12.2012 16.3705 12.2209 16.4181 12.2209 16.4678H12.6563V16.4509C12.5022 16.3699 12.1652 16.195 11.9813 16.1174C11.7428 16.0173 11.5718 16.4251 11.5718 16.4251Z" fill="white"/>
<path d="M11.5717 16.425C11.5717 16.425 11.7405 16.0143 11.9824 16.1167C12.1635 16.1943 12.5004 16.3693 12.6574 16.4503C12.663 16.3265 12.6686 16.2028 12.6765 16.079C12.3289 16.101 12.1359 15.7646 11.8924 15.7387C11.6797 15.7157 11.4986 15.9834 11.223 15.8675C11.1594 15.9373 11.102 16.0132 11.0374 16.0818C11.1375 16.204 11.2294 16.3327 11.3124 16.4672H11.5802C11.5761 16.4534 11.5733 16.4393 11.5717 16.425Z" fill="#DCD9D8"/>
<path d="M8.16244 14.1576C7.72724 14.1565 7.29549 14.0803 6.88613 13.9326C6.87002 13.9482 6.85738 13.9669 6.84905 13.9877C6.84071 14.0085 6.83687 14.0308 6.83778 14.0532C6.83868 14.0755 6.84431 14.0975 6.85429 14.1175C6.86427 14.1375 6.87838 14.1552 6.89569 14.1694C7.27905 14.3356 7.68455 14.4451 8.09944 14.4946C8.14001 14.3868 8.16133 14.2728 8.16244 14.1576Z" fill="white"/>
<path d="M8.07583 14.6638C8.07655 14.6068 8.0843 14.5501 8.09889 14.495C7.684 14.4456 7.2785 14.3361 6.89514 14.1699C7.23632 14.4391 7.6446 14.6099 8.07583 14.6638Z" fill="#DCD9D8"/>
<path d="M13.8448 15.5773C13.8825 15.4171 13.8964 15.2522 13.8858 15.0879C13.874 14.8265 13.8363 14.5668 13.7733 14.3128C13.5839 14.2898 13.392 14.2992 13.2058 14.3404C13.037 14.3747 12.8632 14.409 12.8295 14.6143C12.7957 14.8196 12.8981 14.9226 12.7951 15.0936C12.6922 15.2646 12.5212 15.1622 12.3502 15.2623C12.2338 15.3321 12.3075 15.5126 12.3665 15.6212C12.8206 15.7245 13.2841 15.781 13.7497 15.7899C13.7948 15.7258 13.8271 15.6536 13.8448 15.5773Z" fill="#D33833"/>
<path d="M8.75366 16.4358C8.76266 16.46 8.77222 16.4853 8.7801 16.5078C8.78797 16.5303 8.79641 16.5601 8.80372 16.586L8.79866 16.5202L8.75366 16.4358Z" fill="#D33833"/>
<path d="M11.0042 15.7078C11.008 15.6088 11.0119 15.51 11.016 15.4114C10.8373 15.4666 10.6442 15.4517 10.476 15.3698C9.94896 15.0823 10.4479 15.1673 10.2612 14.7859C10.0476 14.6724 9.81351 14.6026 9.57265 14.5806C8.8819 14.5806 8.6164 14.4416 8.69065 15.2381C8.72946 15.6656 8.76434 16.0926 8.79809 16.5206C8.85434 16.6264 8.90496 16.7215 8.94546 16.8019C9.30669 16.7669 9.65726 16.66 9.97652 16.4875C10.333 16.2465 10.6761 15.9862 11.0042 15.7078Z" fill="#D33833"/>
<path d="M11.2651 15.3C11.2769 15.3501 11.2893 15.4064 11.3011 15.4744C11.3519 15.5017 11.4079 15.5174 11.4654 15.5206C11.5229 15.5239 11.5804 15.5144 11.6339 15.493C11.6873 15.4716 11.7354 15.4387 11.7748 15.3967C11.8141 15.3547 11.8438 15.3045 11.8617 15.2498C11.8795 15.1951 11.8852 15.1371 11.8783 15.0799C11.8713 15.0228 11.8519 14.9678 11.8214 14.919C11.7909 14.8702 11.7501 14.8286 11.7018 14.7972C11.6535 14.7659 11.5989 14.7455 11.5419 14.7375C11.5606 14.8485 11.544 14.9625 11.4943 15.0635C11.4446 15.1644 11.3645 15.2472 11.2651 15.3Z" fill="#D33833"/>
<path d="M12.3485 15.2646C12.5173 15.1616 12.6911 15.2646 12.7935 15.0958C12.8959 14.9271 12.7935 14.8219 12.8278 14.6166C12.8621 14.4112 13.0331 14.3769 13.2041 14.3426C13.3904 14.3014 13.5823 14.2921 13.7717 14.3151C13.7496 14.1742 13.6806 14.045 13.5759 13.9483C13.1557 13.7031 12.4194 14.4124 12.0769 14.5631L12.0448 14.5761C12.0956 14.6742 12.1289 14.7804 12.1432 14.8899C12.219 14.8712 12.297 14.8632 12.375 14.8663C12.4271 14.8684 12.4791 14.8746 12.5302 14.8849C12.5555 14.8899 12.5803 14.8961 12.605 14.9029C12.6521 14.916 12.6978 14.9333 12.7417 14.9546C12.5984 14.9604 12.4559 14.9793 12.3159 15.0109C12.2758 15.0226 12.2379 15.0406 12.2034 15.0643C12.188 15.2326 12.1815 15.4016 12.1837 15.5706C12.243 15.5874 12.3034 15.6032 12.3649 15.6178C12.3058 15.5149 12.2321 15.3343 12.3485 15.2646Z" fill="#EF3D3A"/>
<path d="M8.80365 16.5852C8.83233 16.6881 8.85708 16.7809 8.94596 16.8018C8.90546 16.7208 8.85427 16.6257 8.79858 16.5205L8.80365 16.5852Z" fill="#EF3D3A"/>
<path d="M8.69061 15.2375C8.61805 14.441 8.88186 14.5799 9.57261 14.5799C9.81347 14.6019 10.0475 14.6717 10.2611 14.7852C10.4479 15.1666 9.94892 15.0816 10.476 15.3691C10.6442 15.4511 10.8372 15.4659 11.016 15.4107V15.3753C10.854 15.2939 10.68 15.2389 10.5007 15.2121C10.4316 15.2017 10.3619 15.1949 10.292 15.1919C10.3445 15.1666 10.3993 15.1466 10.4557 15.1323C10.6324 15.1045 10.804 15.0513 10.9654 14.9742C10.9654 14.9298 10.9687 14.8853 10.9704 14.8415C10.9327 14.8384 10.8951 14.8333 10.8579 14.8263C10.8243 14.82 10.791 14.8117 10.7584 14.8015C10.701 14.7834 10.6456 14.7594 10.593 14.7301C10.4929 14.6738 10.4068 14.6086 10.2977 14.549C9.87189 14.3205 9.41585 14.1537 8.94317 14.0534C8.42511 13.9544 8.42061 14.675 8.44255 15.206C8.44255 15.2622 8.44705 15.314 8.44986 15.3635C8.49751 15.7331 8.60068 16.0934 8.75586 16.4322L8.8003 16.5166C8.76486 16.0925 8.72942 15.665 8.69061 15.2375Z" fill="#EF3D3A"/>
<path d="M11.5426 14.7375C11.4244 14.74 11.3099 14.7794 11.2152 14.85C11.2071 14.9272 11.2084 15.005 11.2191 15.0818C11.2253 15.1262 11.2349 15.169 11.2461 15.2157L11.2636 15.2894V15.2989C11.3631 15.2465 11.4436 15.164 11.4937 15.0633C11.5437 14.9625 11.5608 14.8486 11.5426 14.7375Z" fill="#EF3D3A"/>
<path d="M7.95714 5.15467C7.89885 5.28874 7.87674 5.43576 7.89302 5.58104C7.89946 5.6085 7.9111 5.63447 7.92733 5.65754C7.95586 5.6968 7.99796 5.72407 8.04545 5.73404C8.3267 5.10404 8.79189 4.49654 9.72452 4.71367C9.74921 4.67391 9.76486 4.62922 9.77037 4.58275C9.77589 4.53628 9.77112 4.48916 9.75642 4.44473C9.74172 4.40031 9.71744 4.35965 9.68529 4.32564C9.65315 4.29163 9.61392 4.2651 9.57039 4.24792C9.50104 4.20735 9.42474 4.18008 9.34539 4.16748C9.04399 4.18269 8.75321 4.28368 8.50727 4.45857C8.26133 4.63346 8.07046 4.87497 7.95714 5.15467Z" fill="#231F20"/>
<path d="M13.6418 7.10259C13.6238 7.84734 14.7944 7.48059 14.9727 7.06547C14.721 6.65321 14.5006 6.22262 14.3134 5.77734H14.269C14.264 5.85226 14.264 5.92743 14.269 6.00234C14.2831 6.17833 14.3227 6.35133 14.3866 6.51591C14.44 6.65991 14.5019 6.79716 14.5553 6.94116C14.332 7.08009 13.8938 6.99178 13.6418 7.10259Z" fill="#231F20"/>
<path d="M10.6504 7.18492C10.3759 7.45155 9.88142 7.22992 9.51411 7.21305C9.16367 7.76711 10.1992 7.87117 10.6436 7.74011C10.7916 7.67887 10.9176 7.57412 11.0047 7.43973C11.1279 7.09267 10.8793 6.9408 10.751 6.81592C10.5175 6.50238 10.3322 6.15559 10.2015 5.78711C10.1754 5.86781 10.166 5.95298 10.1739 6.03742C10.2165 6.33327 10.3168 6.61785 10.4692 6.87498C10.5334 6.99311 10.5969 7.09942 10.6504 7.18492Z" fill="#231F20"/>
<path d="M11.5903 10.3021C12.4958 10.356 13.3897 10.0758 14.1024 9.51464C14.076 9.34589 14.3049 9.04214 14.2414 8.78901C14.2194 8.70182 14.0209 8.57526 13.9005 8.44364C13.3317 7.86233 12.8499 7.20188 12.4701 6.48276C12.4402 6.41357 12.4222 6.03276 12.2158 6.18464C12.1911 7.10826 12.8773 7.87214 13.3892 8.49089C13.6389 8.79182 13.9404 8.96395 13.6631 9.43195C13.2131 9.6007 12.4914 10.0895 11.8693 9.98264C11.6561 9.94607 11.6117 9.77732 11.5751 9.60689C11.5618 9.53744 11.543 9.46916 11.5189 9.4027C11.5117 9.38331 11.503 9.36451 11.493 9.34645C11.3936 9.49153 11.3488 9.66715 11.3666 9.84211C11.3844 10.0171 11.4637 10.1801 11.5903 10.3021Z" fill="#231F20"/>
<path d="M4.27498 7.93117C4.24284 7.94843 4.21282 7.96938 4.18554 7.99361C4.06493 8.10978 3.99092 8.26601 3.97742 8.43292C4.00292 8.41498 4.02648 8.39443 4.04773 8.37161C4.13379 8.28386 4.22379 8.1708 4.38523 8.24955C4.29602 8.44908 4.25903 8.66801 4.27772 8.88577C4.29642 9.10353 4.37019 9.31296 4.4921 9.49436C4.4921 9.08205 4.42629 8.37667 4.77842 8.39749C5.02479 8.41267 5.07485 8.93974 5.28467 9.05955C5.34532 8.83173 5.32065 8.5896 5.2153 8.3787C5.10995 8.16779 4.93118 8.00264 4.7126 7.9143C4.64238 7.88703 4.56732 7.87446 4.49204 7.87736C4.41677 7.88026 4.34289 7.89858 4.27498 7.93117Z" fill="#231F20"/>
<path d="M12.8633 10.6171C12.8368 10.8155 12.8368 11.0166 12.8633 11.215C13.2333 11.187 13.5874 11.0527 13.883 10.8283C14.1786 10.6039 14.403 10.2989 14.5294 9.94995C14.0209 10.275 13.4556 10.5014 12.8633 10.6171Z" fill="#231F20"/>
<path d="M12.6394 11.25C12.6467 11.0491 12.6322 10.8481 12.596 10.6504C11.7672 10.7221 10.9326 10.6143 10.1492 10.3342C10.4164 11.0497 11.6207 11.3017 12.6394 11.25Z" fill="#231F20"/>
<path d="M10.0384 10.907C9.52371 10.907 9.95796 11.1939 10.0451 11.3058C10.2279 11.6205 10.4738 11.894 10.7674 12.109C11.391 12.3262 12.0692 12.329 12.6945 12.1169C12.8346 12.0448 12.9423 11.9225 12.996 11.7744C11.8271 11.8025 10.4417 11.9189 10.0384 10.907Z" fill="#231F20"/>
<path d="M14.04 16.47C13.9072 16.2579 13.6969 16.1059 13.4539 16.0464C13.279 16.0112 13.0974 16.0349 12.9375 16.1139C12.933 16.2264 12.9274 16.3474 12.92 16.4694L14.04 16.47Z" fill="#81B0C4"/>
<path d="M12.3587 13.9214C11.9728 13.9557 11.5189 14.1312 11.092 14.1571C11.0531 14.1571 11.0143 14.1604 10.9761 14.1604C10.9378 14.1604 10.8996 14.1604 10.8636 14.1548C10.7888 14.1482 10.7149 14.1339 10.6431 14.1121C10.6071 14.1011 10.5718 14.0879 10.5373 14.0727C10.5373 14.1019 10.4974 14.0913 10.4912 14.1154C10.539 14.1526 10.5851 14.1863 10.6301 14.2161C10.6751 14.2459 10.7196 14.2724 10.764 14.2966C10.8487 14.3424 10.9383 14.3782 11.0312 14.4034C11.1812 14.4409 11.3356 14.4579 11.4902 14.4541C11.5465 14.4541 11.6095 14.4541 11.6741 14.449C11.9076 14.2786 12.1146 14.08 12.3587 13.9214Z" fill="#F0D6B7"/>
<path d="M10.7359 16.3396L10.5385 16.4707H10.8349C10.8026 16.426 10.7696 16.3823 10.7359 16.3396Z" fill="#81B0C4"/>
<path d="M2.63301 16.7451V16.5567C2.63301 16.5339 2.64208 16.512 2.65822 16.4958C2.67435 16.4797 2.69625 16.4706 2.71907 16.4706H2.87826C2.74699 16.0828 2.59489 15.7024 2.42263 15.331C3.37948 14.5357 4.44134 13.8761 5.57826 13.3707C5.64463 13.3443 6.03445 13.8258 6.25326 14.0778C6.29459 14.1292 6.33972 14.1776 6.38826 14.2223C6.94024 14.5803 7.52106 14.8917 8.1247 15.1533C8.18364 15.5253 8.27319 15.8918 8.39245 16.249C8.41438 16.3199 8.43632 16.3953 8.45882 16.4706H8.54995C8.57277 16.4706 8.59466 16.4797 8.6108 16.4958C8.62694 16.512 8.63601 16.5339 8.63601 16.5567V16.6456H8.7142C8.73702 16.6456 8.75891 16.6546 8.77505 16.6708C8.79119 16.6869 8.80026 16.7088 8.80026 16.7316V16.8751H9.75145V16.7316C9.75145 16.7088 9.76051 16.6869 9.77665 16.6708C9.79279 16.6546 9.81468 16.6456 9.83751 16.6456H10.2763V16.5567C10.2763 16.5339 10.2853 16.512 10.3015 16.4958C10.3176 16.4797 10.3395 16.4706 10.3623 16.4706H10.5406L10.7381 16.3396C10.7718 16.3823 10.8048 16.426 10.8371 16.4706H11.3113C11.2282 16.3362 11.1364 16.2075 11.0362 16.0853C11.1009 16.0167 11.1583 15.9413 11.2218 15.871C11.4986 15.9869 11.6786 15.7191 11.8912 15.7422C12.1348 15.7681 12.3277 16.1044 12.6753 16.0825C12.6674 16.2063 12.6618 16.33 12.6562 16.4538V16.4706H12.9228C12.9296 16.3486 12.9358 16.2293 12.9403 16.1151C13.1002 16.0361 13.2818 16.0124 13.4566 16.0476C13.6997 16.1072 13.91 16.2591 14.0428 16.4712H14.3133C14.3324 16.4374 14.3521 16.4043 14.3696 16.3705C14.2891 16.1821 14.0911 16.1022 14.0321 15.8924C14.298 15.1801 14.2718 14.3916 13.9589 13.6986C13.9222 13.6235 13.868 13.5583 13.8008 13.5084C13.7337 13.4584 13.6556 13.4253 13.5731 13.4118C13.473 13.404 13.3728 13.4247 13.2839 13.4714C13.3281 13.4116 13.3801 13.358 13.4386 13.3122C13.6202 13.1891 13.7846 13.0423 13.9274 12.8757C14.3279 13.198 14.5693 13.5012 14.9534 13.846C15.1616 14.0328 15.5722 14.2566 15.6127 14.5581C15.6179 14.6741 15.6076 14.7902 15.5823 14.9035C15.5536 15.0616 15.5148 15.2269 15.4946 15.3288C15.412 15.7192 15.3094 16.1052 15.1874 16.4853C15.1997 16.4927 15.2099 16.5032 15.217 16.5157C15.2241 16.5282 15.2278 16.5423 15.2279 16.5567V16.8751H15.4349C15.5801 16.4206 15.7224 15.9554 15.8658 15.475C16.0293 15.0846 16.1204 14.6678 16.1347 14.2448C16.0908 13.8978 15.5497 13.5333 15.2645 13.2582C15.1064 13.1058 14.3684 12.5455 14.3257 12.3357C14.2829 12.1259 14.6266 11.6731 14.7369 11.4436C14.8804 11.1183 14.9972 10.782 15.0862 10.4378C15.6667 8.39764 15.7258 5.59414 14.8955 3.91732C14.4387 3.17209 13.8475 2.51823 13.1518 1.98907C11.858 1.0092 9.46007 0.900637 7.89857 1.47551C7.47123 1.61456 7.0571 1.79132 6.66107 2.0037C5.63845 2.60332 4.55282 3.00495 4.24963 4.2132C3.50263 4.5507 3.27707 5.50695 3.31476 6.61395C3.36554 6.84066 3.39361 7.07186 3.39857 7.30414C3.37776 7.40764 3.2377 7.53982 3.20957 7.60676C3.06741 8.03515 3.02438 8.49023 3.08372 8.93767C3.14306 9.38511 3.30323 9.81324 3.55213 10.1898C3.69013 10.3954 3.86877 10.5706 4.07705 10.7046C4.28533 10.8386 4.51884 10.9285 4.7632 10.9688C4.78631 11.2955 4.87165 11.6147 5.01463 11.9093C5.11026 12.1191 5.46745 12.496 5.33582 12.7638C5.07982 12.98 4.79721 13.1626 4.49488 13.3071C3.84351 13.6981 3.36988 13.9371 2.77026 14.3703C2.38101 14.6515 1.77295 14.6864 1.87026 15.3321C1.9867 15.8139 2.13861 16.2864 2.32476 16.7457C2.33882 16.7896 2.35457 16.8329 2.36976 16.8762H2.63413L2.63301 16.7451ZM7.33045 2.44976C7.30284 2.48293 7.27296 2.51413 7.24101 2.54314C7.05686 2.67903 6.88017 2.82474 6.7117 2.97964C6.50188 3.21195 6.26732 3.8352 5.98888 3.90439C5.84862 3.91271 5.70789 3.90725 5.5687 3.88807C5.47956 3.8947 5.39144 3.9113 5.30601 3.93757C5.10773 4.01401 4.90388 4.07513 4.69626 4.12039C5.11701 3.2007 6.42876 2.45707 7.45251 2.16682C7.50876 2.15107 7.55826 2.18932 7.60495 2.23939C7.59876 2.40082 7.43845 2.39745 7.33045 2.44976ZM5.98888 4.53101C6.15763 5.38657 5.67332 6.36139 5.88088 7.26532C5.9512 7.57245 6.19588 8.04945 5.80551 8.06014C5.79136 7.85967 5.72741 7.6659 5.61945 7.4964C5.5115 7.32689 5.36295 7.187 5.18726 7.08941C5.01158 6.99183 4.81433 6.93962 4.61337 6.93753C4.41242 6.93544 4.21412 6.98354 4.03645 7.07745C3.99439 7.09774 3.95346 7.12027 3.91382 7.14495C3.85757 6.48176 3.7642 5.5497 4.21645 5.05189C4.65476 4.57501 5.26224 4.28853 5.90901 4.2537C5.94417 4.34424 5.9709 4.43782 5.98888 4.53326V4.53101ZM4.08032 10.0126C3.71272 9.61401 3.50764 9.09227 3.50545 8.55007C3.51034 8.39502 3.54671 8.24259 3.61235 8.10203C3.67799 7.96147 3.77152 7.83574 3.88727 7.73246C4.00302 7.62918 4.13857 7.55051 4.28566 7.50125C4.43276 7.45199 4.58834 7.43315 4.74295 7.44589C5.1277 7.48808 5.31332 7.82501 5.42245 8.19851C5.45282 8.3037 5.4787 8.4117 5.49895 8.51689C5.78301 8.53207 6.19363 8.50451 6.32807 8.28289C6.30895 7.74176 6.05751 7.30807 6.07495 6.81082C6.11293 6.38128 6.18592 5.95555 6.2932 5.53789C6.42081 5.06771 6.3966 4.56923 6.22401 4.11364C6.6442 3.1602 7.8772 2.40814 8.78901 1.95307C9.91907 1.39057 11.7179 1.84057 12.7828 2.4402C12.8789 2.49523 12.971 2.55708 13.0584 2.62526C13.3711 2.88266 13.6506 3.17799 13.8903 3.50445C14.0219 3.6732 14.1485 3.84195 14.2734 4.00451C13.7294 3.84307 13.2609 4.07876 13.2429 4.49164C13.2405 4.53796 13.2436 4.58439 13.2519 4.63001C13.7581 4.1682 14.6171 4.62495 14.8719 5.13626C15.0834 5.75974 15.1787 6.41675 15.1531 7.07464C15.2783 8.77837 14.8555 10.4775 13.9466 11.9239C13.7475 12.2812 13.4876 12.6009 13.1788 12.8689C12.3772 13.4314 11.1588 13.9422 10.1154 13.5923C8.7367 13.1294 8.11007 12.2108 7.35182 11.1589C7.44484 11.7384 7.73779 12.2669 8.17982 12.6529C8.5119 13.0697 8.92922 13.4107 9.40382 13.6531C9.02526 13.5642 8.44757 13.5361 8.28726 13.8781C7.99547 13.8624 7.70467 13.8319 7.41595 13.7869C7.17422 13.7679 6.93888 13.7 6.72422 13.5873C6.50955 13.4745 6.32004 13.3193 6.1672 13.1311C5.79559 12.5483 5.52109 11.909 5.35438 11.2383C5.31386 11.0853 5.29028 10.9284 5.28407 10.7703C5.33357 10.5014 5.81226 10.3838 5.62157 10.0081C5.27395 10.0047 5.19576 10.3242 4.87682 10.3557C4.72659 10.3638 4.57651 10.3371 4.43834 10.2775C4.30016 10.218 4.17763 10.1273 4.08032 10.0126ZM11.2634 15.2888L11.246 15.2151C11.2348 15.1684 11.2258 15.1257 11.219 15.0813C11.2083 15.0045 11.207 14.9266 11.2151 14.8495C11.3098 14.7788 11.4243 14.7395 11.5424 14.737C11.5995 14.745 11.654 14.7654 11.7023 14.7967C11.7506 14.8281 11.7915 14.8696 11.822 14.9185C11.8524 14.9673 11.8719 15.0222 11.8788 15.0794C11.8858 15.1365 11.8801 15.1945 11.8622 15.2493C11.8443 15.304 11.8147 15.3541 11.7753 15.3961C11.736 15.4382 11.6879 15.471 11.6344 15.4925C11.581 15.5139 11.5235 15.5233 11.466 15.5201C11.4085 15.5169 11.3524 15.5011 11.3017 15.4739C11.2899 15.4058 11.2775 15.3496 11.2657 15.2995L11.2634 15.2888ZM6.88607 13.9281C7.29543 14.0759 7.72718 14.152 8.16238 14.1531C8.16134 14.2685 8.14001 14.3827 8.09938 14.4906C8.08479 14.5457 8.07705 14.6024 8.07632 14.6594C7.64467 14.6049 7.23616 14.4334 6.89507 14.1633C6.87852 14.149 6.86508 14.1316 6.85558 14.1119C6.84609 14.0923 6.84076 14.0709 6.83992 14.0491C6.83907 14.0273 6.84273 14.0055 6.85068 13.9852C6.85862 13.9649 6.87067 13.9464 6.88607 13.931V13.9281ZM11.03 14.4001C10.9371 14.3749 10.8475 14.339 10.7628 14.2932C10.7189 14.2696 10.6745 14.2426 10.6289 14.2128C10.5834 14.1829 10.5378 14.1492 10.49 14.1121C10.4962 14.0879 10.5344 14.0986 10.5361 14.0693C10.5706 14.0846 10.6059 14.0977 10.6419 14.1087C10.7137 14.1305 10.7876 14.1449 10.8624 14.1515C10.9001 14.1548 10.9378 14.1565 10.9749 14.1571C11.012 14.1576 11.0519 14.1571 11.0908 14.1537C11.5177 14.1278 11.9716 13.9523 12.3575 13.918C12.1139 14.0772 11.9075 14.2758 11.6724 14.4456C11.6077 14.449 11.5464 14.4507 11.4884 14.4507C11.3342 14.4554 11.18 14.4394 11.03 14.4029V14.4001ZM9.97701 16.4847C9.65775 16.6573 9.30717 16.7642 8.94595 16.7991C8.85707 16.7783 8.83345 16.6866 8.80363 16.5826C8.79632 16.5567 8.78901 16.5308 8.78001 16.5044C8.77101 16.4779 8.76313 16.4566 8.75357 16.4324C8.59839 16.0936 8.49522 15.7333 8.44757 15.3636C8.44757 15.3141 8.44251 15.2613 8.44026 15.2061C8.41832 14.6751 8.42282 13.9546 8.94088 14.0536C9.41356 14.1538 9.86961 14.3207 10.2954 14.5491C10.4045 14.6088 10.4906 14.6757 10.5907 14.7303C10.6433 14.7596 10.6987 14.7835 10.7561 14.8017C10.7887 14.8119 10.822 14.8201 10.8556 14.8264C10.8928 14.8335 10.9304 14.8386 10.9681 14.8416C10.9681 14.8855 10.9648 14.9299 10.9631 14.9744C10.8017 15.0515 10.6301 15.1047 10.4534 15.1324C10.397 15.1468 10.3422 15.1668 10.2898 15.1921C10.3596 15.1951 10.4293 15.2019 10.4984 15.2123C10.6778 15.239 10.8517 15.2941 11.0137 15.3754V15.4109C11.0099 15.5099 11.006 15.6087 11.0019 15.7073C10.6747 15.9858 10.3326 16.2463 9.97701 16.4875V16.4847ZM12.3648 15.6207C12.3033 15.6061 12.2429 15.5903 12.1837 15.5735C12.1814 15.4045 12.188 15.2355 12.2034 15.0672C12.2378 15.0435 12.2758 15.0255 12.3159 15.0138C12.4558 14.9821 12.5983 14.9633 12.7417 14.9575C12.6978 14.9362 12.652 14.9189 12.605 14.9058C12.5808 14.899 12.5555 14.8928 12.5302 14.8878C12.4791 14.8765 12.4272 14.8694 12.3749 14.8664C12.298 14.8629 12.221 14.87 12.146 14.8878C12.1316 14.7782 12.0983 14.672 12.0476 14.5739L12.0796 14.5609C12.4222 14.4102 13.1585 13.7009 13.5787 13.9461C13.6834 14.0429 13.7524 14.1721 13.7744 14.3129C13.8374 14.5669 13.8751 14.8266 13.8869 15.088C13.8975 15.2523 13.8837 15.4172 13.8459 15.5774C13.8279 15.6544 13.795 15.7272 13.7491 15.7917C13.2831 15.7828 12.8193 15.7263 12.3648 15.6229V15.6207Z" fill="#231F20"/>
<path d="M9.86068 10.6099C9.51418 10.4412 9.26668 10.534 9.22168 10.5942C9.13618 10.7067 9.31337 11.3288 9.31337 11.3288L9.48212 11.3631C9.45005 10.6785 9.86068 10.6099 9.86068 10.6099Z" fill="#F7E4CD"/>
<path d="M12.0335 16.2905C11.9852 16.2906 11.9388 16.3093 11.9039 16.3427C11.869 16.3761 11.8484 16.4217 11.8462 16.47H12.2208C12.2186 16.4217 12.198 16.3761 12.1631 16.3427C12.1282 16.3093 12.0818 16.2906 12.0335 16.2905Z" fill="#1D1919"/>
<path d="M8.79862 16.7316C8.79862 16.7087 8.78955 16.6869 8.77341 16.6707C8.75727 16.6546 8.73538 16.6455 8.71256 16.6455H8.63437V16.7451C8.63437 16.7679 8.6253 16.7898 8.60916 16.8059C8.59302 16.8221 8.57113 16.8311 8.54831 16.8311H2.71912C2.69629 16.8311 2.6744 16.8221 2.65826 16.8059C2.64212 16.7898 2.63306 16.7679 2.63306 16.7451V16.875H8.79862V16.7316Z" fill="#231F20"/>
<path d="M15.1414 16.8311H10.3601C10.3373 16.8311 10.3154 16.8221 10.2993 16.8059C10.2831 16.7898 10.2741 16.7679 10.2741 16.7451V16.6455H9.83533C9.8125 16.6455 9.79061 16.6546 9.77447 16.6707C9.75833 16.6869 9.74927 16.7087 9.74927 16.7316V16.875H15.2263V16.7451C15.2263 16.7677 15.2174 16.7894 15.2015 16.8055C15.1856 16.8216 15.164 16.8308 15.1414 16.8311Z" fill="#231F20"/>
<path d="M2.71912 16.831H8.54999C8.57282 16.831 8.59471 16.822 8.61085 16.8058C8.62699 16.7897 8.63606 16.7678 8.63606 16.745V16.5565C8.63606 16.5337 8.62699 16.5118 8.61085 16.4957C8.59471 16.4795 8.57282 16.4705 8.54999 16.4705H2.71912C2.69629 16.4705 2.6744 16.4795 2.65826 16.4957C2.64212 16.5118 2.63306 16.5337 2.63306 16.5565V16.745C2.63306 16.7678 2.64212 16.7897 2.65826 16.8058C2.6744 16.822 2.69629 16.831 2.71912 16.831Z" fill="#231F20"/>
<path d="M10.2747 16.745C10.2747 16.7678 10.2837 16.7897 10.2999 16.8058C10.316 16.822 10.3379 16.831 10.3607 16.831H15.142C15.1648 16.831 15.1867 16.822 15.2028 16.8058C15.219 16.7897 15.228 16.7678 15.228 16.745V16.5565C15.2279 16.5422 15.2241 16.528 15.2171 16.5155C15.21 16.503 15.1998 16.4926 15.1875 16.4851C15.1741 16.4759 15.1583 16.4708 15.142 16.4705H10.3607C10.3379 16.4705 10.316 16.4795 10.2999 16.4957C10.2837 16.5118 10.2747 16.5337 10.2747 16.5565V16.745Z" fill="#231F20"/>
</svg>
