<svg width="32" height="31" viewBox="0 0 32 31" fill="none" xmlns="http://www.w3.org/2000/svg">
<path d="M16 0C7.16 0 0 6.96918 0 15.5649C0 22.4433 4.584 28.2762 10.94 30.3321C11.74 30.4786 12.0333 29.9974 12.0333 29.5837C12.0333 29.214 12.02 28.2347 12.0133 26.9376C7.56267 27.8767 6.624 24.8493 6.624 24.8493C5.896 23.0529 4.844 22.573 4.844 22.573C3.39467 21.608 4.956 21.6274 4.956 21.6274C6.56267 21.7364 7.40667 23.2306 7.40667 23.2306C8.83333 25.6107 11.152 24.9233 12.0667 24.5251C12.2107 23.5185 12.6227 22.8324 13.08 22.4433C9.52667 22.0542 5.792 20.7156 5.792 14.7516C5.792 13.0525 6.412 11.6646 7.43867 10.575C7.25867 10.182 6.71867 8.5996 7.57867 6.45554C7.57867 6.45554 8.91867 6.03788 11.9787 8.05094C13.2587 7.70462 14.6187 7.53341 15.9787 7.52562C17.3387 7.53341 18.6987 7.70462 19.9787 8.05094C23.0187 6.03788 24.3587 6.45554 24.3587 6.45554C25.2187 8.5996 24.6787 10.182 24.5187 10.575C25.5387 11.6646 26.1587 13.0525 26.1587 14.7516C26.1587 20.7311 22.4187 22.0477 18.8587 22.4303C19.4187 22.8972 19.9387 23.8519 19.9387 25.3098C19.9387 27.3929 19.9187 29.0661 19.9187 29.572C19.9187 29.9806 20.1987 30.467 21.0187 30.3113C27.42 28.2697 32 22.4329 32 15.5649C32 6.96918 24.836 0 16 0Z" fill="white"/>
</svg>
