<svg width="70" height="84" viewBox="0 0 70 84" fill="none" xmlns="http://www.w3.org/2000/svg">
<path d="M24.3969 34.4448V20.4416L12.6991 19.4048C12.5323 19.3917 12.3653 19.4272 12.218 19.5072L0.545456 26.2528C0.444712 26.32 0.359082 26.408 0.294133 26.5109C0.229185 26.6138 0.186361 26.7293 0.168453 26.85C0.150544 26.9707 0.157972 27.0939 0.190204 27.2115C0.222437 27.3291 0.278771 27.4386 0.355563 27.5328L12.7623 41.1264L24.3969 34.4448Z" fill="#FAEED1"/>
<path d="M12.7623 41.1776L0.355533 27.584C0.234432 27.4567 0.15516 27.2947 0.128551 27.1201C0.101941 26.9456 0.129293 26.7669 0.206864 26.6087C0.284436 26.4504 0.408419 26.3203 0.561922 26.2359C0.715426 26.1516 0.890956 26.1173 1.06449 26.1376L12.7623 27.1616V41.1776Z" fill="#FAEED1"/>
<path d="M24.3969 20.4416L12.7624 27.2L1.06455 26.1632C0.926352 26.1502 0.78711 26.1722 0.659424 26.2272C1.59626 25.664 11.7876 19.7632 12.218 19.5328C12.3693 19.4511 12.5409 19.4155 12.7118 19.4304L24.3969 20.4416Z" fill="#FAEED1"/>
<path opacity="0.5" d="M24.3969 20.4416L12.7624 27.2L1.06455 26.1632C0.926352 26.1502 0.78711 26.1722 0.659424 26.2272C1.59626 25.664 11.7876 19.7632 12.218 19.5328C12.3693 19.4511 12.5409 19.4155 12.7118 19.4304L24.3969 20.4416Z" fill="white"/>
<path d="M12.775 11.3664C12.8538 9.88689 13.2766 8.44702 14.0091 7.16374C14.7416 5.88046 15.7631 4.78996 16.9908 3.98081L20.4217 1.98401C21.7266 1.30885 23.1715 0.956776 24.6374 0.956776C26.1033 0.956776 27.5483 1.30885 28.8532 1.98401L65.39 23.36C66.6183 24.1684 67.6404 25.2587 68.373 26.5422C69.1056 27.8256 69.528 29.2659 69.6057 30.7456V73.472C69.5211 74.9466 69.0956 76.3806 68.3635 77.6589C67.6313 78.9371 66.6129 80.0239 65.39 80.832L61.9591 82.8288C60.6524 83.498 59.2081 83.8467 57.7433 83.8467C56.2785 83.8467 54.8343 83.498 53.5276 82.8288L42.7286 76.5312L28.6886 68.3264L16.9402 61.4784C15.7125 60.6693 14.691 59.5788 13.9585 58.2955C13.2259 57.0122 12.8031 55.5723 12.7244 54.0928L12.775 11.3664Z" fill="#FAEED1"/>
<path d="M49.375 49.0752C49.3514 46.2649 48.7702 43.4879 47.6659 40.9088C46.6575 38.2087 44.8603 35.8828 42.5133 34.24C38.9938 32.1408 36.044 36.4032 35.5883 41.4336C35.1705 35.8784 32.284 28.1472 28.7519 26.0736C27.984 25.4744 27.0185 25.1949 26.0533 25.2925C25.0882 25.3901 24.1965 25.8573 23.5612 26.5984C22.2726 28.3522 21.6402 30.5108 21.7762 32.6912C21.7762 41.1904 26.8402 48.9088 31.0306 57.0112L35.487 65.536L40.0066 62.3488C44.2477 59.264 49.337 57.5872 49.375 49.0752Z" fill="#FAFAFA"/>
<path opacity="0.2" d="M69.6565 73.4464C69.5701 74.93 69.1387 76.3721 68.3973 77.6554C67.656 78.9387 66.6257 80.027 65.3901 80.832L61.9592 82.8288C60.7706 83.432 59.4694 83.7746 58.1407 83.8342C56.8121 83.8937 55.486 83.6689 54.2493 83.1744C56.2242 83.9296 57.7434 82.8032 57.7434 80.3712V37.6448C57.6876 36.1582 57.2514 34.7116 56.4774 33.4464L68.3398 26.5216C69.1138 27.7868 69.55 29.2334 69.6058 30.72L69.6565 73.4464Z" fill="black"/>
<path opacity="0.5" d="M12.9143 10.1504C13.408 8.34564 15.0412 7.76964 16.9908 8.87044L53.5783 30.2336C54.8308 31.012 55.8572 32.1116 56.5533 33.4208L68.4031 26.496C67.6808 25.2072 66.6433 24.1274 65.39 23.36L28.8659 1.98404C27.5592 1.31488 26.115 0.966181 24.6502 0.966181C23.1853 0.966181 21.7411 1.31488 20.4343 1.98404L16.9908 3.99364C15.935 4.68804 15.0295 5.59164 14.3288 6.64985C13.6282 7.70806 13.147 8.89891 12.9143 10.1504Z" fill="white"/>
</svg>
