<svg width="18" height="18" viewBox="0 0 18 18" fill="none" xmlns="http://www.w3.org/2000/svg">
<path d="M5.07375 8.64797C5.07375 8.8696 5.09625 9.0496 5.139 9.18235C5.18625 9.31397 5.247 9.45797 5.33025 9.61435C5.35682 9.65566 5.37124 9.70361 5.37188 9.75272C5.37188 9.81235 5.33588 9.8731 5.25938 9.93272L4.88138 10.1847C4.836 10.2175 4.78204 10.2363 4.72613 10.2387C4.66538 10.2387 4.60575 10.2095 4.54613 10.1555C4.46527 10.0685 4.39294 9.97391 4.33013 9.8731C4.2632 9.75769 4.20127 9.63945 4.1445 9.51872C3.67763 10.0711 3.0915 10.3478 2.385 10.3478C1.88213 10.3478 1.4805 10.2027 1.188 9.91472C0.894376 9.62672 0.744751 9.24197 0.744751 8.7616C0.744751 8.25085 0.924751 7.83685 1.28925 7.5241C1.65488 7.21135 2.13975 7.0561 2.75625 7.0561C2.95875 7.0561 3.16913 7.0741 3.39075 7.10335C3.61238 7.13372 3.84075 7.1821 4.07925 7.2361V6.79735C4.07925 6.3406 3.98363 6.02222 3.798 5.8366C3.60675 5.64985 3.28275 5.55985 2.8215 5.55985C2.61225 5.55985 2.39738 5.5846 2.17575 5.6386C1.95556 5.691 1.73938 5.75905 1.52888 5.84222C1.46091 5.87299 1.39101 5.8993 1.31963 5.92097C1.28869 5.93119 1.25653 5.93725 1.224 5.93897C1.13963 5.93897 1.098 5.87822 1.098 5.75222V5.45747C1.098 5.36185 1.10925 5.28872 1.13963 5.24822C1.18496 5.19303 1.24281 5.14944 1.30838 5.1211C1.5165 5.0131 1.7685 4.9231 2.06213 4.8511C2.35463 4.77235 2.66625 4.73747 2.99588 4.73747C3.708 4.73747 4.22888 4.89947 4.56413 5.22347C4.89375 5.54747 5.06138 6.04022 5.06138 6.70172V8.64797H5.07263H5.07375ZM2.64263 9.56035C2.8395 9.56035 3.04313 9.52435 3.25913 9.45235C3.474 9.38035 3.66638 9.2476 3.82725 9.0676C3.92372 8.95708 3.9934 8.8258 4.03088 8.68397C4.06688 8.53885 4.09163 8.3656 4.09163 8.16085V7.90885C3.90992 7.86478 3.72588 7.83098 3.54038 7.8076C3.35384 7.78347 3.16597 7.77107 2.97788 7.77047C2.57625 7.77047 2.28263 7.84922 2.08575 8.01122C1.88775 8.17322 1.79325 8.4016 1.79325 8.70197C1.79325 8.98322 1.86413 9.1936 2.01375 9.33872C2.15775 9.48835 2.367 9.56035 2.64263 9.56035ZM7.44975 10.2095C7.34175 10.2095 7.26975 10.1915 7.2225 10.1487C7.17413 10.1127 7.1325 10.0295 7.0965 9.91472L5.69025 5.27185C5.66252 5.19403 5.64401 5.11323 5.63513 5.0311C5.63513 4.93547 5.6835 4.88147 5.77913 4.88147H6.36638C6.47888 4.88147 6.55763 4.89947 6.59925 4.9411C6.64763 4.9771 6.68363 5.06147 6.71963 5.1751L7.72538 9.15197L8.65913 5.1751C8.68838 5.05585 8.72438 4.9771 8.77163 4.9411C8.84381 4.89688 8.9279 4.87606 9.01238 4.88147H9.4905C9.60525 4.88147 9.68175 4.89947 9.73013 4.9411C9.7785 4.9771 9.82013 5.06147 9.84375 5.1751L10.7899 9.20035L11.8249 5.1751C11.8441 5.08799 11.8856 5.00736 11.9453 4.9411C12.015 4.89692 12.0969 4.87604 12.1793 4.88147H12.7361C12.8318 4.88147 12.8858 4.92985 12.8858 5.0311C12.8858 5.06147 12.879 5.09185 12.8745 5.12785C12.8648 5.17892 12.8505 5.229 12.8318 5.27747L11.3884 9.92035C11.3524 10.0407 11.3108 10.1195 11.2635 10.1555C11.1956 10.1989 11.1156 10.2198 11.0351 10.2151H10.521C10.4074 10.2151 10.3298 10.1971 10.2814 10.1555C10.233 10.1127 10.1914 10.0351 10.1678 9.91472L9.23963 6.04135L8.31713 9.91022C8.28788 10.0306 8.25188 10.1082 8.20463 10.1498C8.15625 10.1926 8.07188 10.2106 7.965 10.2106H7.44975V10.2095ZM15.1425 10.3715C14.8318 10.3719 14.5222 10.3356 14.22 10.2635C13.9208 10.1915 13.6879 10.1127 13.5315 10.0227C13.4359 9.96872 13.3706 9.9091 13.3459 9.85397C13.323 9.80104 13.3111 9.74401 13.311 9.68635V9.38035C13.311 9.25435 13.3583 9.1936 13.4483 9.1936C13.485 9.19368 13.5215 9.19976 13.5563 9.2116C13.5923 9.22397 13.6463 9.2476 13.7059 9.27235C13.9084 9.36235 14.1311 9.43435 14.364 9.48272C14.6036 9.52997 14.8365 9.55472 15.0761 9.55472C15.4541 9.55472 15.7466 9.48835 15.9503 9.35672C16.0481 9.29751 16.1284 9.21342 16.1832 9.11303C16.2379 9.01263 16.2651 8.89953 16.2619 8.78522C16.2639 8.70805 16.2506 8.63124 16.2228 8.55922C16.195 8.4872 16.1532 8.42139 16.0999 8.3656C15.993 8.25085 15.7894 8.14847 15.4958 8.05285L14.6273 7.78285C14.1908 7.64447 13.8668 7.43972 13.6699 7.16972C13.4771 6.92024 13.372 6.61422 13.3706 6.29897C13.3706 6.04697 13.4246 5.82422 13.5315 5.63185C13.6395 5.4406 13.7835 5.27185 13.9635 5.1391C14.1435 5.00185 14.346 4.89947 14.5856 4.82747C14.8253 4.75547 15.0761 4.7251 15.3394 4.7251C15.4721 4.7251 15.6094 4.73072 15.741 4.74872C15.8783 4.76672 16.0043 4.79147 16.1303 4.81622C16.2495 4.84547 16.3643 4.87472 16.4711 4.91185C16.5791 4.94785 16.6624 4.98385 16.7231 5.01985C16.7938 5.05532 16.8553 5.1065 16.9031 5.16947C16.9416 5.22805 16.9602 5.2975 16.956 5.36747V5.64985C16.956 5.77585 16.9088 5.84222 16.8188 5.84222C16.7391 5.83312 16.6619 5.80867 16.5915 5.77022C16.2297 5.60982 15.8374 5.52998 15.4418 5.53622C15.1009 5.53622 14.8309 5.59022 14.6453 5.70497C14.4596 5.81747 14.364 5.99297 14.364 6.23935C14.364 6.40697 14.4236 6.55097 14.544 6.66572C14.6633 6.77935 14.8849 6.89297 15.2021 6.99535L16.0526 7.26535C16.4835 7.40372 16.7951 7.5961 16.9808 7.84247C17.1664 8.08885 17.2553 8.37122 17.2553 8.68397C17.2553 8.94272 17.2024 9.1756 17.1 9.38035C16.994 9.5858 16.8452 9.76611 16.6635 9.9091C16.4779 10.0587 16.2563 10.1678 15.9986 10.2455C15.7286 10.3298 15.4474 10.3715 15.1425 10.3715Z" fill="#252F3E"/>
<path fill-rule="evenodd" clip-rule="evenodd" d="M16.2733 13.2897C14.3045 14.7488 11.4425 15.524 8.98217 15.524C5.53404 15.524 2.42679 14.2448 0.0800407 12.1186C-0.105584 11.9498 0.0620407 11.7215 0.282541 11.8542C2.82167 13.3313 5.95254 14.2268 9.19254 14.2268C11.3762 14.2268 13.7769 13.7701 15.9864 12.833C16.316 12.6833 16.5973 13.049 16.2733 13.2897Z" fill="#FF9900"/>
<path fill-rule="evenodd" clip-rule="evenodd" d="M17.0932 12.3526C16.8423 12.0297 15.4293 12.1974 14.7892 12.275C14.5979 12.2997 14.5675 12.131 14.7408 12.005C15.8658 11.2119 17.7164 11.4402 17.9313 11.7046C18.1473 11.9746 17.8717 13.8309 16.8175 14.7196C16.6567 14.858 16.5014 14.7871 16.5723 14.6071C16.8119 14.0109 17.3452 12.6721 17.0932 12.3537V12.3526Z" fill="#FF9900"/>
</svg>
