<svg width="18" height="18" viewBox="0 0 18 18" fill="none" xmlns="http://www.w3.org/2000/svg">
<g clip-path="url(#clip0_603_1528)">
<path d="M17.6596 10.7786C17.555 10.4617 17.2808 10.2409 16.9262 10.1879C16.7591 10.163 16.5676 10.1736 16.341 10.2203C15.9462 10.3018 15.6532 10.3328 15.4394 10.3388C16.2464 8.97621 16.9026 7.42231 17.2804 5.9596C17.8913 3.59449 17.5649 2.51702 17.1834 2.02962C16.1739 0.73968 14.701 0.0466576 12.9239 0.0254138C11.9761 0.0138447 11.1439 0.201007 10.7098 0.335565C10.3056 0.264295 9.87096 0.224468 9.41493 0.217091C8.56022 0.203466 7.80496 0.389783 7.15962 0.772734C6.80227 0.651964 6.22893 0.481651 5.56674 0.372933C4.0093 0.117242 2.7541 0.316498 1.83598 0.965097C0.724215 1.75043 0.208802 3.11487 0.304137 5.02056C0.33437 5.62562 0.672859 7.46649 1.20577 9.21239C1.51205 10.2158 1.83865 11.0492 2.17649 11.6894C2.65558 12.5972 3.16821 13.1319 3.74373 13.3238C4.06634 13.4314 4.65241 13.5066 5.26889 12.9933C5.34701 13.0878 5.45121 13.1819 5.5896 13.2692C5.76527 13.38 5.98013 13.4705 6.19466 13.5242C6.96794 13.7175 7.69225 13.6691 8.31017 13.3982C8.31396 13.5081 8.3169 13.6131 8.3194 13.7038C8.32351 13.8509 8.32754 13.9951 8.33295 14.1299C8.36955 15.0418 8.43159 15.7508 8.6154 16.2469C8.62548 16.2742 8.63906 16.3158 8.65342 16.3598C8.74508 16.6407 8.89846 17.1107 9.28855 17.4788C9.69259 17.8601 10.1812 17.9771 10.6288 17.9771C10.8532 17.9771 11.0674 17.9476 11.2552 17.9074C11.9248 17.7639 12.6852 17.5453 13.2353 16.762C13.7553 16.0216 14.0082 14.9063 14.0539 13.149C14.0599 13.0994 14.0653 13.0519 14.0706 13.0067C14.0742 12.9762 14.0778 12.945 14.0815 12.9138L14.204 12.9246L14.2356 12.9267C14.9175 12.9578 15.7514 12.8132 16.2635 12.5753C16.6682 12.3875 17.9649 11.7029 17.6596 10.7786Z" fill="black"/>
<path d="M16.4936 10.9584C14.4659 11.3767 14.3265 10.6901 14.3265 10.6901C16.4674 7.51331 17.3624 3.48083 16.59 2.4939C14.483 -0.198251 10.8356 1.07496 10.7747 1.10802L10.7551 1.11153C10.3545 1.02836 9.9062 0.978822 9.40232 0.970599C8.4848 0.955563 7.78884 1.21113 7.26073 1.61162C7.26073 1.61162 0.754134 -1.06884 1.05675 4.98281C1.12112 6.27025 2.90201 14.7242 5.02618 12.1707C5.80257 11.237 6.55271 10.4475 6.55271 10.4475C6.9253 10.695 7.37134 10.8213 7.83895 10.7759L7.87527 10.7451C7.86398 10.861 7.86914 10.9744 7.88982 11.1086C7.3426 11.72 7.5034 11.8274 6.40949 12.0525C5.30259 12.2807 5.95285 12.6868 6.3774 12.7929C6.89209 12.9216 8.08283 13.104 8.88739 11.9777L8.8553 12.1062C9.06971 12.2779 9.22027 13.2232 9.19504 14.0802C9.1698 14.9371 9.15295 15.5255 9.3219 15.985C9.49084 16.4446 9.65922 17.4785 11.0973 17.1704C12.2989 16.9129 12.9216 16.2456 13.0082 15.1325C13.0697 14.3411 13.2088 14.4581 13.2176 13.7506L13.3291 13.4157C13.4578 12.343 13.3496 11.9969 14.0899 12.1579L14.2698 12.1737C14.8147 12.1985 15.5278 12.086 15.9464 11.8915C16.8476 11.4732 17.3821 10.7749 16.4935 10.9584H16.4936Z" fill="#336791"/>
<path d="M7.64158 5.55866C7.45889 5.53322 7.29337 5.55676 7.20965 5.62013C7.16253 5.65581 7.14797 5.69713 7.14406 5.72558C7.13354 5.80093 7.18635 5.88421 7.21876 5.92718C7.31051 6.0488 7.44458 6.1324 7.57728 6.15082C7.59651 6.15348 7.61562 6.15477 7.63464 6.15477C7.85595 6.15477 8.0571 5.98248 8.07484 5.8553C8.09701 5.69604 7.86579 5.58986 7.64158 5.55866Z" fill="white"/>
<path d="M13.695 5.56364C13.6776 5.4388 13.4554 5.40321 13.2446 5.43251C13.0341 5.46186 12.8299 5.55687 12.8469 5.682C12.8607 5.77931 13.0363 5.94543 13.2443 5.94539C13.2618 5.94539 13.2796 5.94422 13.2974 5.94172C13.4362 5.92249 13.5381 5.83433 13.5865 5.7835C13.6602 5.7061 13.7028 5.61976 13.695 5.56364Z" fill="white"/>
<path d="M17.1683 10.911C17.091 10.6772 16.8421 10.6019 16.4287 10.6873C15.2011 10.9407 14.7614 10.7652 14.617 10.6589C15.5713 9.2052 16.3562 7.4481 16.7797 5.80862C16.9803 5.03203 17.0911 4.31083 17.1002 3.72302C17.1102 3.07773 17.0003 2.60364 16.7737 2.314C15.8599 1.14636 14.5188 0.520054 12.8953 0.502842C11.7793 0.490305 10.8363 0.775947 10.6535 0.856246C10.2686 0.760508 9.84888 0.701735 9.39203 0.694237C8.55418 0.680692 7.82999 0.881279 7.23037 1.29011C6.96992 1.1932 6.29682 0.962142 5.47371 0.82956C4.05058 0.600394 2.91974 0.774012 2.11272 1.34574C1.14978 2.02796 0.705234 3.24744 0.791378 4.97024C0.820361 5.54991 1.15059 7.33297 1.6718 9.04061C2.35785 11.2881 3.10356 12.5605 3.88825 12.8222C3.98008 12.8528 4.08601 12.8743 4.20275 12.8743C4.489 12.8743 4.83991 12.7453 5.20504 12.3063C5.81151 11.5767 6.37776 10.9653 6.58649 10.7431C6.89495 10.9087 7.23376 11.0012 7.58039 11.0104C7.58099 11.0195 7.58192 11.0286 7.58273 11.0376C7.51319 11.1201 7.45615 11.1924 7.40754 11.2541C7.16741 11.5589 7.11742 11.6224 6.34442 11.7815C6.12457 11.8269 5.54051 11.9473 5.532 12.3566C5.52269 12.8039 6.22228 12.9917 6.30202 13.0116C6.5798 13.0812 6.84738 13.1155 7.10259 13.1155C7.72329 13.1154 8.26946 12.9115 8.70599 12.5168C8.69252 14.1113 8.75904 15.6825 8.95047 16.1612C9.10724 16.553 9.49031 17.5108 10.7003 17.5107C10.8778 17.5107 11.0733 17.4901 11.2883 17.444C12.551 17.1733 13.0994 16.6152 13.3115 15.3847C13.425 14.7271 13.6199 13.1568 13.7115 12.3145C13.9048 12.3748 14.1538 12.4024 14.4229 12.4024C14.9842 12.4024 15.6318 12.2831 16.038 12.0946C16.4942 11.8827 17.3176 11.3627 17.1683 10.911ZM14.1611 5.21912C14.1569 5.46779 14.1227 5.69353 14.0864 5.92919C14.0474 6.18262 14.007 6.44464 13.9968 6.76274C13.9868 7.07228 14.0254 7.39412 14.0628 7.70532C14.1384 8.33393 14.2159 8.98112 13.9158 9.61972C13.8691 9.53688 13.8241 9.4465 13.7828 9.34641C13.7456 9.25599 13.6646 9.11075 13.5525 8.90972C13.1161 8.12729 12.0944 6.29501 12.6175 5.54733C12.7732 5.32473 13.1686 5.09597 14.1611 5.21912ZM12.9581 1.0064C14.4127 1.03853 15.5632 1.58269 16.3779 2.62367C17.0027 3.42214 16.3147 7.05535 14.3229 10.1897C14.3033 10.1647 14.2832 10.1395 14.2625 10.1136C14.2542 10.1032 14.2458 10.0927 14.2373 10.0821C14.752 9.23205 14.6513 8.39105 14.5618 7.64538C14.525 7.33938 14.4902 7.05035 14.499 6.7789C14.5082 6.49108 14.5462 6.24434 14.583 6.0057C14.6283 5.71159 14.6743 5.40733 14.6616 5.0486C14.671 5.01099 14.6749 4.96653 14.6699 4.91376C14.6375 4.56975 14.2448 3.54034 13.4443 2.60847C13.0065 2.09886 12.3679 1.52851 11.4961 1.14382C11.8711 1.0661 12.3839 0.993625 12.9581 1.0064ZM4.81866 11.985C4.4164 12.4687 4.13858 12.376 4.04724 12.3456C3.45197 12.147 2.76132 10.8889 2.15239 8.89392C1.62549 7.1677 1.31755 5.43188 1.29321 4.94512C1.21625 3.40574 1.58941 2.33287 2.40236 1.75634C3.72535 0.818112 5.90052 1.37968 6.77454 1.66452C6.76196 1.67689 6.7489 1.6885 6.73644 1.70108C5.30223 3.14956 5.33625 5.62432 5.33976 5.77557C5.33964 5.83394 5.34451 5.91657 5.35125 6.03025C5.37592 6.44646 5.42183 7.22115 5.29917 8.09847C5.18513 8.91372 5.43642 9.71167 5.98852 10.2877C6.04568 10.3473 6.10534 10.4033 6.16697 10.456C5.9212 10.7192 5.38712 11.3012 4.81866 11.985ZM6.35132 9.94003C5.90633 9.47577 5.70425 8.82995 5.7968 8.16805C5.92636 7.24126 5.87851 6.43412 5.85283 6.0005C5.84925 5.93983 5.84606 5.88666 5.84417 5.8447C6.0537 5.65895 7.02467 5.13866 7.71708 5.29732C8.03312 5.36972 8.2256 5.58486 8.30566 5.95499C8.71997 7.87108 8.36052 8.66971 8.0717 9.31146C8.01216 9.44368 7.95592 9.56864 7.90787 9.69796L7.87067 9.79789C7.77642 10.0506 7.68875 10.2855 7.63441 10.5086C7.1614 10.5072 6.70121 10.3052 6.35132 9.94003ZM6.42392 12.5241C6.28581 12.4896 6.16157 12.4297 6.08869 12.38C6.14956 12.3513 6.25792 12.3124 6.4458 12.2737C7.35517 12.0865 7.49558 11.9544 7.80226 11.565C7.8726 11.4757 7.9523 11.3745 8.06267 11.2512L8.06279 11.2511C8.22722 11.067 8.3024 11.0982 8.43877 11.1548C8.5493 11.2005 8.65693 11.339 8.70058 11.4915C8.72122 11.5635 8.74444 11.7002 8.66854 11.8065C8.02788 12.7034 7.09436 12.6919 6.42392 12.5241ZM11.1829 16.9527C10.0705 17.1911 9.67659 16.6235 9.41703 15.9746C9.2495 15.5556 9.16718 13.6666 9.22559 11.5804C9.22636 11.5527 9.22241 11.5259 9.21475 11.5007C9.2081 11.452 9.19786 11.4028 9.18367 11.3532C9.09676 11.0497 8.88509 10.7958 8.63113 10.6905C8.53023 10.6487 8.345 10.572 8.12245 10.6289C8.16993 10.4334 8.25225 10.2126 8.34146 9.97348L8.37891 9.87287C8.42107 9.75948 8.47392 9.64201 8.52987 9.51769C8.83212 8.8462 9.24607 7.92651 8.79681 5.84877C8.62851 5.07057 8.06658 4.69056 7.21469 4.7788C6.70395 4.83165 6.23675 5.03772 6.00372 5.15587C5.95361 5.18126 5.90778 5.20577 5.86497 5.22968C5.92999 4.44555 6.17576 2.98022 7.09501 2.05311C7.67375 1.46941 8.44457 1.18115 9.38373 1.19667C11.2342 1.22698 12.4208 2.17662 13.0905 2.96796C13.6676 3.6499 13.98 4.3368 14.1048 4.70725C13.1669 4.61192 12.5291 4.79706 12.2057 5.25931C11.5023 6.26482 12.5906 8.2165 13.1136 9.15445C13.2095 9.32638 13.2923 9.47492 13.3183 9.53805C13.4887 9.95083 13.7092 10.2264 13.8702 10.4276C13.9195 10.4892 13.9674 10.549 14.0038 10.6012C13.7198 10.6831 13.2095 10.8723 13.256 11.818C13.2185 12.2926 12.9518 14.5144 12.8164 15.2993C12.6376 16.3364 12.256 16.7227 11.1829 16.9527ZM15.8264 11.6388C15.536 11.7737 15.0499 11.8748 14.5881 11.8965C14.0781 11.9204 13.8185 11.8394 13.7574 11.7896C13.7287 11.2002 13.9482 11.1386 14.1803 11.0734C14.2168 11.0632 14.2524 11.0532 14.2867 11.0412C14.3081 11.0586 14.3315 11.0758 14.3571 11.0927C14.767 11.3633 15.4981 11.3925 16.5303 11.1794C16.5341 11.1786 16.5379 11.1779 16.5416 11.1771C16.4024 11.3073 16.1642 11.482 15.8264 11.6388Z" fill="white"/>
</g>
<defs>
<clipPath id="clip0_603_1528">
<rect width="18" height="18" fill="white"/>
</clipPath>
</defs>
</svg>
