<svg width="18" height="18" viewBox="0 0 18 18" fill="none" xmlns="http://www.w3.org/2000/svg">
<g clip-path="url(#clip0_603_1543)">
<path d="M17.2947 13.1444C16.3342 13.6451 11.358 15.6911 10.2986 16.2433C9.23921 16.7957 8.65068 16.7904 7.81379 16.3903C6.97691 15.9902 1.68137 13.8512 0.727476 13.3952C0.250672 13.1673 0 12.975 0 12.7933V10.974C0 10.974 6.89407 9.47308 8.00709 9.07384C9.12003 8.67452 9.5062 8.66011 10.4533 9.00704C11.4005 9.35404 17.0639 10.3759 18 10.7187C18 10.7187 17.9996 12.3437 17.9996 12.5124C17.9997 12.6922 17.7837 12.8895 17.2947 13.1444Z" fill="#912626"/>
<path d="M17.2944 11.3357C16.3339 11.8362 11.3579 13.8823 10.2985 14.4345C9.23913 14.987 8.65062 14.9816 7.81376 14.5815C6.97683 14.1817 1.68153 12.0423 0.727674 11.5866C-0.226184 11.1306 -0.246223 10.8168 0.690831 10.4499C1.62781 10.0829 6.89407 8.01676 8.00719 7.61746C9.1201 7.21829 9.50618 7.20374 10.4533 7.5508C11.4005 7.89772 16.3468 9.86654 17.2828 10.2093C18.219 10.5525 18.2549 10.835 17.2944 11.3357Z" fill="#C6302B"/>
<path d="M17.2947 10.2005C16.3342 10.7012 11.358 12.7472 10.2986 13.2997C9.23921 13.8519 8.65068 13.8465 7.81379 13.4464C6.97684 13.0465 1.68137 10.9073 0.727476 10.4514C0.250672 10.2235 0 10.0314 0 9.84968V8.03008C0 8.03008 6.89407 6.52928 8.00709 6.12997C9.12003 5.73072 9.5062 5.71623 10.4533 6.06317C11.4005 6.41017 17.0639 7.43177 18 7.7747C18 7.7747 17.9996 9.39967 17.9996 9.56856C17.9997 9.74836 17.7837 9.94566 17.2947 10.2005Z" fill="#912626"/>
<path d="M17.2944 8.39184C16.3339 8.89246 11.3579 10.9384 10.2985 11.4909C9.23913 12.0431 8.65062 12.0377 7.81376 11.6376C6.97683 11.2378 1.68153 9.09848 0.727674 8.64271C-0.226184 8.18688 -0.246223 7.873 0.690831 7.50597C1.62781 7.13915 6.89407 5.07288 8.00719 4.67365C9.1201 4.27441 9.50618 4.25993 10.4533 4.60692C11.4005 4.95384 16.3468 6.92252 17.2828 7.26543C18.219 7.60849 18.2549 7.89121 17.2944 8.39184Z" fill="#C6302B"/>
<path d="M17.2947 7.14732C16.3342 7.64803 11.358 9.69412 10.2986 10.2466C9.23921 10.7988 8.65068 10.7934 7.81379 10.3933C6.97684 9.99345 1.68137 7.85412 0.727476 7.39834C0.250672 7.17038 0 6.97821 0 6.79666V4.97699C0 4.97699 6.89407 3.47626 8.00709 3.07701C9.12003 2.67769 9.5062 2.66328 10.4533 3.01021C11.4005 3.35722 17.0639 4.37882 18 4.72174C18 4.72174 17.9996 6.34672 17.9996 6.51554C17.9997 6.69519 17.7837 6.8925 17.2947 7.14732Z" fill="#912626"/>
<path d="M17.2944 5.33878C16.3339 5.8394 11.3579 7.88549 10.2985 8.4378C9.23913 8.99003 8.65062 8.98462 7.81376 8.58468C6.9769 8.18474 1.68153 6.04556 0.727674 5.58972C-0.226184 5.13389 -0.246223 4.81994 0.690831 4.45298C1.62781 4.08609 6.89407 2.02003 8.00719 1.62065C9.1201 1.22135 9.50618 1.20701 10.4533 1.554C11.4005 1.90099 16.3468 3.86967 17.2828 4.21258C18.219 4.55543 18.2549 4.83815 17.2944 5.33878Z" fill="#C6302B"/>
<path d="M11.1996 3.56895L9.65213 3.72963L9.30566 4.56321L8.74606 3.633L6.95911 3.47239L8.2925 2.99156L7.89246 2.25342L9.1408 2.74165L10.3177 2.35632L9.99964 3.11958L11.1996 3.56895Z" fill="white"/>
<path d="M9.21318 7.61317L6.32495 6.41526L10.4636 5.78003L9.21318 7.61317Z" fill="white"/>
<path d="M5.20887 4.03223C6.43057 4.03223 7.42092 4.41616 7.42092 4.88967C7.42092 5.36325 6.43057 5.74711 5.20887 5.74711C3.98724 5.74711 2.99683 5.36325 2.99683 4.88967C2.99683 4.41616 3.98724 4.03223 5.20887 4.03223Z" fill="white"/>
<path d="M13.0286 3.79663L15.478 4.76458L13.0307 5.73156L13.0286 3.79663Z" fill="#621B1C"/>
<path d="M10.3187 4.86854L13.0286 3.79663L13.0307 5.73156L12.765 5.83551L10.3187 4.86854Z" fill="#9A2928"/>
</g>
<defs>
<clipPath id="clip0_603_1543">
<rect width="18" height="18" fill="white"/>
</clipPath>
</defs>
</svg>
