<svg width="18" height="18" viewBox="0 0 18 18" fill="none" xmlns="http://www.w3.org/2000/svg">
<path d="M13.0455 1.82373H3.16293C2.8438 1.82462 2.538 1.95179 2.31234 2.17745C2.08668 2.40311 1.95951 2.70891 1.95862 3.02804V13.927C1.95951 14.2462 2.08668 14.552 2.31234 14.7776C2.538 15.0033 2.8438 15.1305 3.16293 15.1314H9.67218C9.59793 11.8925 10.7044 5.60711 13.0455 1.82373Z" fill="#0F80CC"/>
<path d="M12.6866 2.17529H3.16293C2.93686 2.17559 2.72013 2.26553 2.56027 2.42539C2.40042 2.58524 2.31048 2.80197 2.31018 3.02804V13.1317C4.75348 12.2102 7.33261 11.7 9.94274 11.6219C10.6331 8.41219 11.55 5.25541 12.6866 2.17529Z" fill="url(#paint0_linear_603_1556)"/>
<path d="M15.3507 1.46688C14.6757 0.863321 13.8544 1.10576 13.0444 1.82351C12.9246 1.93038 12.8048 2.04851 12.6855 2.17507C11.1618 3.97719 10.1082 6.1287 9.61879 8.43738C9.76985 8.76695 9.88926 9.11011 9.97542 9.46226C9.99567 9.54101 10.0142 9.61526 10.0317 9.67826C10.0665 9.82732 10.0879 9.92407 10.0879 9.92407C10.0879 9.92407 10.0755 9.87738 10.0244 9.72945L9.99117 9.63382C9.98554 9.61863 9.97823 9.60063 9.96979 9.58095C9.87979 9.37113 9.63229 8.92845 9.51979 8.7372C9.42586 9.01451 9.34261 9.27382 9.27342 9.50838C9.50697 10.0107 9.67848 10.5396 9.78417 11.0834C9.78417 11.0834 9.76729 11.0187 9.68798 10.7937C9.53559 10.4651 9.36662 10.1444 9.18173 9.83295C9.06216 10.1415 9.01148 10.4725 9.03323 10.8027C9.15712 11.0497 9.25025 11.311 9.31054 11.5806C9.49842 12.3023 9.62892 13.1815 9.62892 13.1815C9.62892 13.1815 9.63342 13.2378 9.64017 13.3294C9.61547 13.9306 9.62768 14.5326 9.67673 15.1323C9.70462 15.726 9.81518 16.3129 10.0052 16.876L10.1065 16.8198C9.8708 15.9734 9.77989 15.0932 9.83761 14.2165C9.94349 12.3579 10.3105 10.5234 10.9277 8.76701C12.0584 5.78126 13.6277 3.38501 15.0621 2.24201C13.7537 3.42326 11.983 7.24826 11.4525 8.66463C10.894 10.123 10.4696 11.6292 10.1847 13.1646C10.5238 12.3077 11.1877 11.6195 12.0319 11.2499C12.0319 11.2499 12.7255 10.3943 13.536 9.17257C13.0124 9.28179 12.4951 9.41943 11.9864 9.58488C11.5926 9.75026 11.4863 9.80651 11.4863 9.80651C12.2379 9.35385 13.032 8.97574 13.8572 8.67757C15.3625 6.30663 17.0027 2.94007 15.3512 1.46407" fill="#003B57"/>
<defs>
<linearGradient id="paint0_linear_603_1556" x1="7.48634" y1="2.42248" x2="7.48634" y2="12.5467" gradientUnits="userSpaceOnUse">
<stop stop-color="#97D9F6"/>
<stop offset="0.92" stop-color="#0F80CC"/>
<stop offset="1" stop-color="#0F80CC"/>
</linearGradient>
</defs>
</svg>
