<svg width="18" height="18" viewBox="0 0 18 18" fill="none" xmlns="http://www.w3.org/2000/svg">
<g clip-path="url(#clip0_603_1507)">
<path d="M9.00334 5.1879e-07C13.9726 0.00167111 18 4.03071 18 9V9.00334C17.9983 13.9735 13.9676 18.0017 8.99666 18C4.02654 17.9983 -0.00166903 13.9668 5.1879e-07 8.99666C0.00167111 4.02654 4.03238 -0.00166903 9.00334 5.1879e-07ZM8.95741 2.31472C8.71024 3.24995 7.87688 4.08081 7.00427 4.95342C5.69911 6.26192 4.21525 7.74244 4.21525 9.96613C4.21859 12.5815 6.33624 14.7016 8.95157 14.7083C11.5719 14.7083 13.6971 12.5856 13.6996 9.96613C13.6996 7.74244 12.2199 6.26276 10.9106 4.95342L10.7936 4.83645C9.96442 4.00627 9.19272 3.20888 8.95741 2.31472ZM9.02171 9.41585C9.56615 9.9962 9.91186 10.3962 10.2701 10.8329C10.2968 10.8655 10.321 10.9005 10.3427 10.9381C10.7811 11.5702 10.7218 12.422 10.1999 12.9865C9.58536 13.652 8.54825 13.6929 7.88272 13.0783C7.2172 12.4637 7.17629 11.4266 7.79087 10.7611C8.13992 10.3486 8.56161 9.94275 9.02171 9.41585ZM6.8548 7.23975L7.0836 7.45602L8.14576 8.5424C8.18584 8.58833 8.18584 8.65597 8.14576 8.70189L7.03516 9.92939L6.64687 10.402C6.49907 10.5824 6.37382 10.7786 6.27361 10.9891C6.25942 11.0241 6.22936 11.05 6.19262 11.0584H6.15337C6.04565 11.0492 5.92206 10.8504 5.92206 10.8504L5.90242 10.8207C5.87677 10.7807 5.85326 10.7395 5.83188 10.6968L5.811 10.6517C5.65903 10.1574 5.64734 9.63045 5.7751 9.12943L5.78948 9.07733C5.90741 8.66144 6.09351 8.26704 6.34042 7.91112C6.49907 7.67731 6.67109 7.45352 6.8548 7.23975ZM8.96409 5.04361C9.24717 5.3651 9.56615 5.68742 9.86677 5.98803L9.87345 6.00891C10.5022 6.59427 11.0701 7.24142 11.5702 7.94034C11.9944 8.53656 12.2266 9.24801 12.2349 9.98033C12.2349 10.2968 12.1873 10.6108 12.0938 10.9131L12.0892 10.9255C12.064 10.9868 12.0093 11.0315 11.9435 11.0425H11.9134C11.8483 11.0216 11.794 10.9782 11.7598 10.9189L11.7094 10.8433C11.4387 10.4416 11.1334 10.0646 10.797 9.71563L10.3636 9.25803L8.919 7.75329C8.67517 7.51865 8.23928 7.09779 8.05558 6.86899C8.04973 6.85647 8.04305 6.84478 8.0347 6.83309C7.9846 6.76461 7.94619 6.68863 7.9203 6.60763V6.56254C7.89525 6.41557 7.91529 6.26443 7.97708 6.12915C8.01717 6.04314 8.07228 5.96465 8.13992 5.89785C8.41965 5.61811 8.69939 5.34422 8.96409 5.04361Z" fill="#009DDE"/>
</g>
<defs>
<clipPath id="clip0_603_1507">
<rect width="18" height="18" fill="white"/>
</clipPath>
</defs>
</svg>
