<svg width="18" height="18" viewBox="0 0 18 18" fill="none" xmlns="http://www.w3.org/2000/svg">
<g clip-path="url(#clip0_603_1485)">
<path d="M18 13.9409C17.738 14.04 17.4489 14.0398 17.187 13.9403C16.9252 13.8408 16.7088 13.6489 16.5788 13.4009L13.9913 9.82265L13.6163 9.3224L10.614 13.4054C10.4917 13.643 10.2871 13.828 10.0384 13.9257C9.78965 14.0235 9.51384 14.0273 9.26251 13.9364L13.131 8.7464L9.53251 4.05815C9.79126 3.9649 10.0742 3.96367 10.3338 4.05464C10.5933 4.14562 10.8136 4.32326 10.9575 4.55765L13.6395 8.18015L16.3365 4.57265C16.4597 4.33924 16.6644 4.15924 16.9116 4.06687C17.1589 3.9745 17.4314 3.9762 17.6775 4.07165L16.281 5.9249L14.3895 8.38715C14.337 8.434 14.2949 8.49143 14.2662 8.55567C14.2374 8.61991 14.2225 8.68951 14.2225 8.7599C14.2225 8.83029 14.2374 8.89988 14.2662 8.96412C14.2949 9.02836 14.337 9.08579 14.3895 9.13265L17.9925 13.9416L18 13.9409ZM0.001509 8.6819L0.316509 7.12565C1.18201 4.0484 4.71001 2.76815 7.13701 4.67315C8.55826 5.7899 8.91301 7.3709 8.84326 9.1529H0.837009C0.707259 12.3351 3.00376 14.2566 5.94001 13.2749C6.416 13.1036 6.84207 12.8168 7.18003 12.4404C7.51799 12.0639 7.75729 11.6095 7.87651 11.1179C8.03176 10.6184 8.28751 10.5329 8.75701 10.6769C8.67877 11.2862 8.46339 11.8698 8.12706 12.3838C7.79074 12.8979 7.34222 13.329 6.81526 13.6446C5.94482 14.1208 4.94613 14.3095 3.96198 14.1838C2.97782 14.0581 2.05861 13.6245 1.33576 12.9449C0.621031 12.1404 0.189066 11.1243 0.105759 10.0514C0.105759 9.87515 0.045759 9.71015 0.005259 9.5519C0.00160802 9.26216 -0.000142018 8.9724 8.99721e-06 8.68265L0.001509 8.6819ZM0.846759 8.4674H8.08726C8.04226 6.1604 6.58651 4.5239 4.64476 4.5089C2.48326 4.4789 0.936759 6.0794 0.841509 8.4569L0.846759 8.4674Z" fill="black"/>
</g>
<defs>
<clipPath id="clip0_603_1485">
<rect width="18" height="18" fill="white"/>
</clipPath>
</defs>
</svg>
