<svg width="18" height="18" viewBox="0 0 18 18" fill="none" xmlns="http://www.w3.org/2000/svg">
<g clip-path="url(#clip0_603_1483)">
<path d="M13.3597 16.8764C13.293 16.9116 13.2967 16.9259 13.3635 16.8921C13.383 16.8838 13.4008 16.8718 13.416 16.8569C13.416 16.8449 13.4145 16.8464 13.3597 16.8764ZM13.4932 16.8059C13.4617 16.8306 13.4617 16.8321 13.5 16.8126C13.521 16.8021 13.539 16.7901 13.539 16.7864C13.539 16.7721 13.53 16.7759 13.4932 16.8059ZM13.581 16.7526C13.5495 16.7774 13.5495 16.7789 13.5877 16.7594C13.6087 16.7489 13.6267 16.7369 13.6267 16.7331C13.6267 16.7189 13.6177 16.7226 13.581 16.7526ZM13.6687 16.7001C13.6372 16.7249 13.6372 16.7264 13.6755 16.7069C13.6965 16.6964 13.7145 16.6844 13.7145 16.6806C13.7145 16.6664 13.7055 16.6701 13.6687 16.7001ZM13.7902 16.6214C13.7287 16.6604 13.7092 16.6866 13.764 16.6566C13.803 16.6341 13.866 16.5861 13.8555 16.5846C13.8325 16.5945 13.8106 16.6068 13.7902 16.6214ZM8.41048 0.0043851C8.37148 0.0081351 8.24848 0.0201351 8.13748 0.0291351C5.58148 0.259385 3.18673 1.63864 1.67023 3.75888C0.831854 4.92262 0.286907 6.27161 0.0817324 7.69113C0.00973242 8.18538 0.000732422 8.33163 0.000732422 9.00213C0.000732422 9.67263 0.00973242 9.81813 0.0817324 10.3131C0.570732 13.6926 2.97598 16.5321 6.23773 17.5844C6.82198 17.7726 7.43773 17.9009 8.13748 17.9781C8.41048 18.0081 9.58873 18.0081 9.86173 17.9781C11.07 17.8446 12.0945 17.5454 13.104 17.0301C13.2585 16.9506 13.2885 16.9296 13.2675 16.9124C12.7744 16.2608 12.2859 15.6058 11.802 14.9474L10.3627 13.0034L8.55973 10.3349C7.96025 9.44197 7.35498 8.55295 6.74398 7.66788C6.73723 7.66638 6.72973 8.85213 6.72673 10.2996C6.72148 12.8346 6.71998 12.9366 6.68773 12.9966C6.65712 13.0667 6.60227 13.1234 6.53323 13.1564C6.47698 13.1849 6.42748 13.1901 6.16198 13.1901H5.85748L5.77648 13.1391C5.72651 13.1076 5.68585 13.0634 5.65873 13.0109L5.62198 12.9314L5.62573 9.40413L5.63098 5.87538L5.68573 5.80713C5.72252 5.76392 5.76671 5.7276 5.81623 5.69988C5.88823 5.66463 5.91673 5.66088 6.22123 5.66088C6.58048 5.66088 6.63973 5.67513 6.73348 5.77713C7.46334 6.86332 8.1871 7.95359 8.90473 9.04788C10.0732 10.8194 11.67 13.2381 12.4552 14.4261L13.8802 16.5846L13.9522 16.5374C14.6379 16.0813 15.2597 15.5357 15.801 14.9151C16.935 13.6174 17.6704 12.02 17.919 10.3146C17.991 9.82038 18 9.67413 18 9.00363C18 8.33313 17.991 8.18763 17.919 7.69263C17.43 4.31313 15.0247 1.47363 11.763 0.421385C11.1534 0.227321 10.5257 0.0958917 9.88948 0.0291351C9.72073 0.0118851 8.55748 -0.00761489 8.41198 0.0066351L8.41048 0.0043851ZM12.0945 5.44788C12.1364 5.46896 12.1738 5.49819 12.2043 5.53387C12.2348 5.56954 12.2579 5.61093 12.2722 5.65563C12.2865 5.70138 12.2895 6.67938 12.2865 8.88363L12.2812 12.0471L11.7232 11.1921L11.1637 10.3371V8.03763C11.1637 6.55113 11.1705 5.71563 11.181 5.67513C11.1937 5.62839 11.2157 5.58467 11.2455 5.54654C11.2754 5.50842 11.3126 5.47666 11.355 5.45313C11.427 5.41638 11.4532 5.41263 11.73 5.41263C11.9902 5.41263 12.036 5.41638 12.0945 5.44788Z" fill="black"/>
</g>
<defs>
<clipPath id="clip0_603_1483">
<rect width="18" height="18" fill="white"/>
</clipPath>
</defs>
</svg>
