<svg width="18" height="18" viewBox="0 0 18 18" fill="none" xmlns="http://www.w3.org/2000/svg">
<path d="M12.2551 12.1252C12.8778 12.0618 13.3503 11.534 13.3288 10.9006C13.3073 10.2672 12.7704 9.76055 12.1262 9.76055H12.0833C11.4175 9.78164 10.9022 10.3306 10.9237 10.9851C10.9452 11.3017 11.074 11.5762 11.2673 11.7662C10.5371 13.1808 9.42047 14.2153 7.74551 15.0809C6.60735 15.672 5.42632 15.8832 4.24527 15.7354C3.27891 15.6087 2.52732 15.1865 2.05482 14.4897C1.36768 13.4552 1.30328 12.3362 1.8831 11.2173C2.29113 10.415 2.93528 9.82383 3.34331 9.52824C3.25743 9.25379 3.12855 8.78934 3.06415 8.45156C-0.0496155 10.6684 0.272526 13.6664 1.2174 15.0809C1.92601 16.1365 3.3648 16.7911 4.95389 16.7911C5.38334 16.7911 5.81282 16.7488 6.24234 16.6433C8.99106 16.1154 11.0741 14.5109 12.2551 12.1252ZM16.0346 9.5072C14.4025 7.62817 11.9974 6.59367 9.24868 6.59367H8.90516C8.71189 6.21365 8.30385 5.96024 7.85289 5.96024H7.80992C7.14426 5.98139 6.62895 6.53028 6.65038 7.18481C6.67187 7.81818 7.20866 8.32488 7.85289 8.32488H7.89581C8.36826 8.30379 8.77629 8.00819 8.94808 7.60702H9.33457C10.9667 7.60702 12.5128 8.07147 13.9087 8.97935C14.9823 9.67606 15.7554 10.5839 16.1849 11.6818C16.5499 12.5685 16.5284 13.4341 16.1419 14.1731C15.5406 15.292 14.5314 15.9043 13.2 15.9043C12.341 15.9043 11.525 15.6509 11.0955 15.4609C10.8593 15.672 10.4298 16.0098 10.1291 16.221C11.0526 16.6432 11.9974 16.8755 12.8993 16.8755C14.9608 16.8755 16.4855 15.7565 17.0653 14.6375C17.688 13.413 17.6451 11.3017 16.0346 9.5072ZM5.12567 12.484C5.14716 13.1174 5.68401 13.624 6.32824 13.624H6.37121C7.03687 13.603 7.55224 13.054 7.53075 12.3996C7.50932 11.7661 6.97241 11.2595 6.32824 11.2595H6.28532C6.24234 11.2595 6.17788 11.2595 6.13502 11.2805C5.25454 9.84492 4.88949 8.28264 5.01835 6.59362C5.10418 5.32685 5.5337 4.22897 6.28532 3.32111C6.90801 2.53993 8.11057 2.15991 8.92665 2.13885C11.2029 2.0966 12.1691 4.88344 12.2336 6.00243C12.5128 6.06577 12.9852 6.21359 13.3073 6.31917C13.0496 2.89896 10.9022 1.12549 8.84076 1.12549C6.90801 1.12549 5.12567 2.49781 4.41699 4.52461C3.42921 7.22699 4.07342 9.82383 5.27596 11.8718C5.16865 12.0195 5.10418 12.2517 5.12567 12.484Z" fill="#764ABC"/>
</svg>
