<svg width="18" height="18" viewBox="0 0 18 18" fill="none" xmlns="http://www.w3.org/2000/svg">
<path d="M9.09614 10.5188C8.82558 10.6431 8.52914 10.8051 7.9357 11.1308C7.7107 11.2573 7.47558 11.3839 7.25676 11.5032C7.24158 11.488 7.22583 11.4688 7.21064 11.4531C6.0367 10.1987 3.86545 9.31278 3.9577 7.6281C3.99201 7.01441 4.20295 5.40341 8.12751 3.44703C11.3574 1.85516 13.9274 2.29616 14.3713 3.27435C15.0091 4.66878 12.9937 7.2636 9.65808 7.63991C9.2889 7.71479 8.90762 7.70575 8.54241 7.61345C8.1772 7.52115 7.8374 7.34795 7.54814 7.10666C7.37151 6.91485 7.34508 6.9036 7.27983 6.94185C7.17239 6.9981 7.24158 7.17191 7.27983 7.27147C7.40706 7.50184 7.5792 7.70436 7.78605 7.86706C7.9929 8.02976 8.23028 8.14934 8.48414 8.21872C9.79679 8.50244 11.1654 8.36688 12.3969 7.83116C14.4185 7.04872 15.9969 4.87353 15.5345 3.04991C15.0705 1.20097 12.0015 0.591222 9.09783 1.62285C7.27942 2.23563 5.59937 3.20027 4.15345 4.46178C2.5537 5.95803 2.30058 7.25853 2.40408 7.80303C2.77645 9.73635 5.44158 10.9947 6.51033 11.9267C6.45408 11.9577 6.40682 11.983 6.36464 12.0072C5.83139 12.2721 3.79851 13.3347 3.2917 14.4585C2.71626 15.732 3.38395 16.645 3.82495 16.7676C4.48954 16.9268 5.18725 16.8745 5.82065 16.6179C6.45406 16.3614 6.99153 15.9134 7.35801 15.3366C7.66923 14.8583 7.86034 14.3119 7.91508 13.7439C7.96982 13.1759 7.88659 12.603 7.67245 12.0741C7.79879 11.9733 7.93353 11.8836 8.0752 11.8058C8.34745 11.6449 8.60676 11.4863 8.83683 11.3637C9.62454 10.9947 10.4842 10.8047 11.354 10.8073C13.1799 11.0222 13.5404 12.1613 13.4713 12.6411C13.4389 12.8113 13.3704 12.9727 13.2705 13.1142C13.1706 13.2558 13.0415 13.3743 12.8919 13.4618C12.7653 13.5422 12.7231 13.5692 12.7344 13.6266C12.7496 13.711 12.8109 13.707 12.9183 13.6918C13.1927 13.6051 13.4343 13.4375 13.6116 13.2109C13.7889 12.9843 13.8935 12.7094 13.9117 12.4223C13.968 11.2973 12.8953 10.0632 10.9963 10.0744C10.4276 10.0754 9.86471 10.1876 9.33914 10.4046C9.25476 10.4395 9.17283 10.477 9.09333 10.5171L9.09614 10.5188ZM6.38207 14.9282C5.7757 15.588 4.93195 15.8372 4.56745 15.6263C4.1737 15.4013 4.32951 14.4253 5.0737 13.7273C5.51445 13.3302 5.99084 12.9745 6.49683 12.6647C6.58514 12.6085 6.71564 12.5342 6.87258 12.4397C6.89958 12.4245 6.91476 12.4167 6.91476 12.4167L7.00701 12.3604C7.13974 12.8054 7.15181 13.2777 7.04201 13.7289C6.9322 14.1801 6.70445 14.594 6.38207 14.9282Z" fill="#CD6799"/>
</svg>
