<svg width="18" height="18" viewBox="0 0 18 18" fill="none" xmlns="http://www.w3.org/2000/svg">
<path d="M14.9038 3.53472C14.8914 3.44466 14.8126 3.39489 14.7474 3.38942C14.6824 3.38396 13.306 3.28196 13.306 3.28196C13.306 3.28196 12.3501 2.33295 12.2452 2.22794C12.1402 2.12292 11.9352 2.15486 11.8557 2.17831C11.8439 2.18176 11.6468 2.24261 11.3207 2.34345C11.0013 1.42465 10.4378 0.580217 9.44637 0.580217C9.41903 0.580217 9.39084 0.581368 9.36264 0.58295C9.08069 0.210077 8.7314 0.0480957 8.42974 0.0480957C6.12029 0.0480957 5.01691 2.93513 4.67094 4.40231C3.77357 4.68038 3.13601 4.87804 3.05458 4.90365C2.55368 5.06074 2.53785 5.07656 2.47211 5.54855C2.42248 5.90589 1.11182 16.0419 1.11182 16.0419L11.3248 17.9555L16.8587 16.7583C16.8587 16.7583 14.916 3.62477 14.9038 3.53472ZM10.7562 2.51809C10.4997 2.5975 10.2081 2.6877 9.89203 2.78552C9.89232 2.72467 9.8926 2.66468 9.8926 2.59923C9.8926 2.02812 9.81334 1.56836 9.68617 1.20383C10.197 1.26799 10.5372 1.84916 10.7562 2.51809ZM9.05249 1.31704C9.19448 1.67294 9.28683 2.18363 9.28683 2.87284C9.28683 2.90808 9.28654 2.94031 9.28625 2.97296C8.72421 3.14703 8.11355 3.33605 7.50144 3.52566C7.84511 2.19931 8.4893 1.55872 9.05249 1.31704ZM8.3663 0.667537C8.46599 0.667537 8.5664 0.701343 8.6625 0.767516C7.92236 1.11579 7.129 1.99302 6.79396 3.74475C6.30428 3.89637 5.82567 4.04454 5.38317 4.18164C5.77561 2.84551 6.7075 0.667537 8.3663 0.667537Z" fill="#95BF46"/>
<path d="M14.7475 3.3894C14.6824 3.38393 13.306 3.28194 13.306 3.28194C13.306 3.28194 12.3501 2.33293 12.2453 2.22791C12.206 2.18878 12.153 2.16879 12.0977 2.16016L11.3254 17.9553L16.8587 16.7583C16.8587 16.7583 14.9161 3.62475 14.9038 3.53469C14.8915 3.44464 14.8126 3.39487 14.7475 3.3894Z" fill="#5E8E3E"/>
<path d="M9.44642 6.44711L8.76411 8.47677C8.76411 8.47677 8.16625 8.1577 7.43345 8.1577C6.35914 8.1577 6.30505 8.83195 6.30505 9.00184C6.30505 9.92885 8.72153 10.284 8.72153 12.4554C8.72153 14.1637 7.63801 15.2637 6.17702 15.2637C4.42385 15.2637 3.52734 14.1726 3.52734 14.1726L3.99674 12.6217C3.99674 12.6217 4.91828 13.4129 5.69596 13.4129C6.20406 13.4129 6.41078 13.0128 6.41078 12.7205C6.41078 11.5113 4.42831 11.4573 4.42831 9.47038C4.42831 7.79806 5.62864 6.17969 8.0516 6.17969C8.98522 6.17969 9.44642 6.44711 9.44642 6.44711Z" fill="white"/>
</svg>
