<svg width="18" height="18" viewBox="0 0 18 18" fill="none" xmlns="http://www.w3.org/2000/svg">
<path d="M5.0625 7.70615C5.5875 5.60615 6.9 4.55615 9 4.55615C12.15 4.55615 12.5438 6.91865 14.1188 7.3124C15.1688 7.5749 16.0875 7.18115 16.875 6.13115C16.35 8.23115 15.0375 9.28115 12.9375 9.28115C9.7875 9.28115 9.39375 6.91865 7.81875 6.5249C6.76875 6.2624 5.85 6.65615 5.0625 7.70615ZM1.125 12.4312C1.65 10.3312 2.9625 9.28115 5.0625 9.28115C8.2125 9.28115 8.60625 11.6437 10.1813 12.0374C11.2313 12.2999 12.15 11.9062 12.9375 10.8562C12.4125 12.9562 11.1 14.0062 9 14.0062C5.85 14.0062 5.45625 11.6437 3.88125 11.2499C2.83125 10.9874 1.9125 11.3812 1.125 12.4312Z" fill="#44A8B3"/>
</svg>
