<svg width="18" height="18" viewBox="0 0 18 18" fill="none" xmlns="http://www.w3.org/2000/svg">
<g clip-path="url(#clip0_603_1519)">
<path fill-rule="evenodd" clip-rule="evenodd" d="M0 8.99973C0 12.5621 2.07006 15.6408 5.07222 17.0994L0.779091 5.33716C0.280138 6.45601 0 7.69468 0 8.99973ZM15.0756 8.54576C15.0756 7.4331 14.6756 6.66303 14.3336 6.06395C13.8774 5.32199 13.4493 4.69421 13.4493 3.95281C13.4493 3.12535 14.0765 2.35526 14.9608 2.35526C15.0008 2.35526 15.0385 2.36031 15.0773 2.36256C13.4763 0.895518 11.3427 0 8.99983 0C5.85536 0 3.08946 1.6133 1.4801 4.05631C1.69161 4.06306 1.89073 4.067 2.05949 4.067C3.00058 4.067 4.45807 3.95281 4.45807 3.95281C4.94296 3.92412 5.00033 4.63739 4.51544 4.69421C4.51544 4.69421 4.02774 4.75158 3.48547 4.78027L6.7627 14.5287L8.73263 8.6217L7.33084 4.78027C6.84595 4.75158 6.38638 4.69421 6.38638 4.69421C5.90149 4.66552 5.9583 3.92412 6.44376 3.95281C6.44376 3.95281 7.92993 4.067 8.81421 4.067C9.7553 4.067 11.2128 3.95281 11.2128 3.95281C11.6982 3.92412 11.755 4.63739 11.2702 4.69421C11.2702 4.69421 10.7819 4.75158 10.2402 4.78027L13.4927 14.4545L14.391 11.4551C14.7791 10.2097 15.0756 9.31585 15.0756 8.54576ZM16.8975 4.68201C16.9363 4.96889 16.9582 5.27603 16.9582 5.60735C16.9582 6.52032 16.7872 7.5469 16.2736 8.83113L13.5246 16.7789C16.2005 15.2191 18 12.3199 18 8.99989C18 7.43496 17.6 5.96398 16.8975 4.68201ZM9.15789 9.78701L6.45725 17.6336C7.2639 17.871 8.11668 18.0003 8.99983 18.0003C10.0478 18.0003 11.053 17.8192 11.9885 17.4901C11.9649 17.4513 11.9424 17.4108 11.9244 17.3664L9.15789 9.78701Z" fill="#00759D"/>
</g>
<defs>
<clipPath id="clip0_603_1519">
<rect width="18" height="18" fill="white"/>
</clipPath>
</defs>
</svg>
