<svg width="25" height="25" viewBox="0 0 30 30" fill="none" xmlns="http://www.w3.org/2000/svg">
<path d="M5.093 3.74225C5.16579 2.45464 5.47336 1.89471 6.3554 1.44507C7.30446 0.961123 8.80132 1.18634 10.5627 2.07826C11.3213 2.46261 11.3986 2.47044 12.7281 2.29997C14.4954 2.07331 16.7705 2.07411 18.4016 2.30205C19.6351 2.47442 19.7161 2.46581 20.4766 2.08066C22.9768 0.814598 24.9506 0.897437 25.6654 2.29837C26.0221 2.99765 26.0884 4.81214 25.8118 6.30869C25.6584 7.13836 25.6746 7.24195 26.0441 7.7864C28.6438 11.6173 26.7706 17.827 22.316 20.1444C21.9751 20.3217 21.6879 20.4315 21.4538 20.5209C20.7349 20.7954 20.5166 20.8787 20.7809 22.1422C20.9081 22.75 21.0614 24.261 21.1216 25.5002C21.2305 27.7402 21.2289 27.7559 20.836 28.2129C20.3013 28.8345 19.5305 28.845 19.0083 28.2377C18.6676 27.8417 18.6344 27.6547 18.6344 26.1269C18.6344 23.869 18.3869 22.3682 17.8021 21.0822C17.1068 19.5519 17.6223 18.9812 19.2125 18.6392C21.4229 18.1637 23.1493 16.7996 24.1115 14.7682C25.0264 12.8372 25.1643 10.1688 23.5103 8.54585C23.0399 7.98687 23.0071 7.48057 23.343 5.95386C23.4685 5.38325 23.5738 4.6471 23.5769 4.31781C23.5816 3.79779 23.5343 3.71926 23.2149 3.71926C23.0128 3.71926 22.2405 4.01327 21.499 4.37256L20.3155 4.94619C20.2079 4.99832 20.0875 5.01837 19.9688 5.00475C16.9594 4.65932 14.0999 4.65399 11.0758 5.0061C10.9566 5.01997 10.8357 4.99992 10.7277 4.94752L9.54481 4.37352C8.80324 4.01359 8.03102 3.71926 7.82896 3.71926C7.36176 3.71926 7.35474 4.06419 7.78059 6.11347C8.04073 7.36504 8.21578 7.64391 7.46376 8.64465C6.33656 10.1447 6.055 12.0074 6.65946 13.9645C7.4213 16.4307 9.28687 18.0969 11.9097 18.6527C13.4908 18.9879 13.904 19.4251 13.3002 21.2381C12.825 22.6649 12.5245 23.0326 11.8338 23.0326C10.9046 23.0326 10.3225 22.2276 10.6428 21.3852C10.7839 21.014 10.7419 20.9744 9.87139 20.6569C7.21396 19.688 5.18142 17.5164 4.25215 14.6529C3.53389 12.4398 3.84992 9.55924 5.00219 7.81816C5.39451 7.22535 5.40059 7.17507 5.2175 6.04021C5.11391 5.39777 5.05789 4.36379 5.093 3.74225Z" fill="#0F0F0F"/>
<path d="M4.16504 19.9317C3.7821 19.3574 3.00601 19.2021 2.4316 19.5851C1.8572 19.968 1.70198 20.7441 2.08491 21.3185C2.36763 21.7426 2.70584 22.091 2.99305 22.3781C3.046 22.4311 3.09745 22.4822 3.14769 22.5321C3.38828 22.7711 3.6007 22.9821 3.81405 23.2326C4.28594 23.7865 4.7567 24.5325 5.02425 25.8702C5.14343 26.4661 5.57174 26.7871 5.80906 26.9274C6.06644 27.0794 6.34765 27.169 6.57906 27.2274C7.05245 27.3467 7.62711 27.4087 8.17249 27.4449C8.77119 27.4846 9.4199 27.4975 9.99999 27.501C10.0004 28.1909 10.5599 28.7501 11.25 28.7501C11.9403 28.7501 12.5 28.1905 12.5 27.5001V26.2501C12.5 25.5597 11.9403 25.0001 11.25 25.0001C11.1321 25.0001 11.0047 25.0005 10.8696 25.001C10.136 25.0032 9.17985 25.0061 8.33773 24.9504C7.93164 24.9235 7.59781 24.8854 7.35301 24.8387C6.97604 23.3589 6.36703 22.3742 5.71716 21.6114C5.42989 21.2742 5.13241 20.9792 4.89045 20.7392C4.84515 20.6944 4.8018 20.6514 4.76081 20.6104C4.48163 20.3312 4.299 20.1327 4.16504 19.9317Z" fill="#0F0F0F"/>
</svg>
