<svg width="24" height="24" viewBox="0 0 24 24" fill="none" xmlns="http://www.w3.org/2000/svg">
<g clip-path="url(#clip0_570_1433)">
<path fill-rule="evenodd" clip-rule="evenodd" d="M12 0.888672C18.1367 0.888672 23.1111 5.98859 23.1111 12.2808C23.1111 17.313 19.9311 21.582 15.5189 23.0897C14.9556 23.202 14.7556 22.8462 14.7556 22.5429C14.7556 22.1673 14.7689 20.9407 14.7689 19.4162C14.7689 18.354 14.4134 17.6607 14.0145 17.3074C16.4889 17.0252 19.0889 16.0618 19.0889 11.6862C19.0889 10.4418 18.6578 9.42625 17.9445 8.62847C18.06 8.34069 18.4411 7.18195 17.8356 5.61306C17.8356 5.61306 16.9045 5.30781 14.7834 6.78114C13.8956 6.52892 12.9445 6.40201 12 6.39757C11.0556 6.40201 10.1056 6.52892 9.21892 6.78114C7.09558 5.30781 6.16225 5.61306 6.16225 5.61306C5.55892 7.18195 5.94003 8.34069 6.05447 8.62847C5.34447 9.42625 4.91003 10.4418 4.91003 11.6862C4.91003 16.0506 7.50447 17.0288 9.97225 17.3166C9.65447 17.6011 9.36669 18.1029 9.26669 18.8395C8.63336 19.1306 7.02447 19.6344 6.03336 17.8933C6.03336 17.8933 5.44558 16.7988 4.33003 16.7188C4.33003 16.7188 3.24669 16.7044 4.25447 17.411C4.25447 17.411 4.98225 17.761 5.4878 19.0777C5.4878 19.0777 6.14003 21.111 9.23114 20.4221C9.2367 21.3743 9.2467 22.2717 9.2467 22.5429C9.2467 22.844 9.04225 23.1964 8.4878 23.0908C4.07225 21.5853 0.888916 17.3141 0.888916 12.2808C0.888916 5.98859 5.86447 0.888672 12 0.888672Z" fill="rgb(4, 47, 81)"/>
</g>
<defs>
<clipPath id="clip0_570_1433">
<rect width="22.2222" height="22.2222" fill="white" transform="translate(0.888916 0.888672)"/>
</clipPath>
</defs>
</svg>
