<svg width="20" height="20" viewBox="0 0 20 20" fill="none" xmlns="http://www.w3.org/2000/svg">
<path d="M15.9626 12.9816V1.36616H14.3308V3.54572H14.2815C14.1144 3.20599 13.9004 2.87751 13.6127 2.56703C13.328 2.25655 13.0058 1.98431 12.6372 1.74695C12.2687 1.50959 11.8758 1.3251 11.4329 1.19349C10.9966 1.0675 10.5288 1 10.0306 1C9.07059 1 8.20687 1.16986 7.45787 1.50397C6.70531 1.83807 6.07698 2.29479 5.56635 2.87526C5.0587 3.45516 4.66875 4.1318 4.40244 4.90857C4.13613 5.68533 4 6.50541 4 7.36935C4 8.26873 4.11175 9.11524 4.33764 9.90607C4.56353 10.6997 4.92257 11.3882 5.42131 11.9771C5.92302 12.5632 6.54183 13.0261 7.30391 13.354C8.06539 13.6791 8.98499 13.8489 10.0562 13.8489C11.0435 13.8489 11.9013 13.6116 12.6414 13.1402C13.3815 12.6655 13.9385 12.0356 14.3195 11.2447H14.3689V12.9586C14.3689 14.4907 14.0342 15.6623 13.3654 16.4858C12.6997 17.2974 11.6035 17.7165 10.0805 17.7165C9.62877 17.7165 9.18591 17.6698 8.75851 17.5787C8.32813 17.4909 7.93818 17.3441 7.57914 17.1512C7.23258 16.9493 6.92287 16.7029 6.67499 16.375C6.42413 16.0471 6.2571 15.6545 6.17328 15.1797H4.50111C4.55699 15.8446 4.75197 16.4189 5.08605 16.9054C5.42369 17.3885 5.84753 17.7845 6.35518 18.1006C6.86283 18.4021 7.43885 18.6282 8.07668 18.7745C8.72046 18.9207 9.37732 19 10.055 19C11.1511 19 12.0672 18.8538 12.8168 18.5838C13.5693 18.3025 14.1757 17.9071 14.6405 17.3795C15.1173 16.8463 15.4519 16.2164 15.6653 15.461C15.8787 14.7056 16 13.8613 16 12.9355L15.9626 12.9816ZM10.0306 12.566C9.27508 12.566 8.61881 12.4225 8.06777 12.1351C7.51375 11.8511 7.05543 11.4759 6.69282 11.0102C6.32427 10.5445 6.06093 10.0112 5.88498 9.40491C5.70545 8.79858 5.62164 8.18043 5.62164 7.54147C5.62164 6.88845 5.70545 6.24667 5.86001 5.61952C6.02705 4.98956 6.28741 4.42991 6.64646 3.94113C7.00253 3.45178 7.46679 3.05356 8.01486 2.75152C8.56294 2.44947 9.23168 2.29761 10.0056 2.29761C10.7796 2.29761 11.4329 2.45566 11.9839 2.76333C12.5195 3.07381 12.9713 3.48384 13.3155 3.98781C13.6621 4.49741 13.9129 5.05987 14.0681 5.68083C14.2226 6.29898 14.294 6.92276 14.294 7.5409C14.294 8.1793 14.1982 8.80083 14.0181 9.40435C13.8416 10.0107 13.5664 10.5439 13.1978 11.0096C12.8292 11.4753 12.3864 11.8505 11.8508 12.1346C11.3152 12.4214 10.6958 12.5654 9.98068 12.5654L10.0306 12.566Z" fill="#B1B1B1"/>
</svg>
