<svg width="23" height="23" viewBox="0 0 23 23" fill="none" xmlns="http://www.w3.org/2000/svg">
<g clip-path="url(#clip0_605_1430)">
<path d="M18.0753 14.7916V0.452038H16.1692V3.14274H16.1116C15.9165 2.72334 15.6665 2.31782 15.3304 1.93453C14.9978 1.55123 14.6215 1.21516 14.191 0.92213C13.7604 0.629104 13.3015 0.401349 12.7841 0.238865C12.2745 0.083325 11.728 0 11.1461 0C10.0247 0 9.01578 0.209701 8.14086 0.62216C7.26179 1.03462 6.52783 1.59845 5.93136 2.31505C5.33837 3.03095 4.88286 3.86628 4.57178 4.82521C4.2607 5.78414 4.10168 6.79654 4.10168 7.8631C4.10168 8.97341 4.23223 10.0184 4.49609 10.9947C4.75995 11.9745 5.17935 12.8244 5.76194 13.5514C6.34799 14.275 7.07083 14.8464 7.96102 15.2513C8.85052 15.6526 9.92471 15.8623 11.176 15.8623C12.3293 15.8623 13.3313 15.5693 14.1958 14.9874C15.0603 14.4013 15.7109 13.6236 16.156 12.6473H16.2137V14.7631C16.2137 16.6546 15.8227 18.101 15.0416 19.1175C14.2639 20.1195 12.9834 20.6368 11.2044 20.6368C10.6767 20.6368 10.1594 20.5792 9.66016 20.4667C9.15743 20.3584 8.70192 20.1771 8.28252 19.939C7.8777 19.6897 7.51593 19.3856 7.22637 18.9807C6.93335 18.5759 6.73823 18.0912 6.64032 17.5052H4.68704C4.75231 18.3259 4.98007 19.0349 5.37031 19.6355C5.76471 20.232 6.2598 20.7208 6.8528 21.1111C7.44579 21.4833 8.11864 21.7624 8.86371 21.9429C9.61572 22.1235 10.383 22.2214 11.1746 22.2214C12.455 22.2214 13.525 22.0408 14.4007 21.7075C15.2797 21.3604 15.988 20.8722 16.531 20.2209C17.0879 19.5626 17.4788 18.7849 17.7281 17.8524C17.9774 16.9198 18.119 15.8776 18.119 14.7346L18.0753 14.7916ZM11.1461 14.2784C10.2636 14.2784 9.49698 14.1014 8.85329 13.7465C8.20614 13.3959 7.67077 12.9327 7.2472 12.3578C6.81669 11.7828 6.50908 11.1246 6.30355 10.376C6.09385 9.62751 5.99594 8.86439 5.99594 8.07558C5.99594 7.26941 6.09385 6.47713 6.27438 5.7029C6.4695 4.9252 6.77364 4.2343 7.19304 3.63089C7.60897 3.02678 8.15128 2.53516 8.79149 2.16228C9.43171 1.7894 10.2129 1.60192 11.117 1.60192C12.021 1.60192 12.7841 1.79704 13.4278 2.17687C14.0535 2.56016 14.5812 3.06636 14.9832 3.68852C15.3881 4.31762 15.6811 5.012 15.8623 5.77859C16.0429 6.54171 16.1262 7.31177 16.1262 8.07489C16.1262 8.863 16.0144 9.63029 15.804 10.3754C15.5978 11.1239 15.2763 11.7822 14.8457 12.3571C14.4152 12.932 13.8979 13.3952 13.2723 13.7458C12.6467 14.1 11.9231 14.2777 11.0878 14.2777L11.1461 14.2784Z" fill="rgb(4, 47, 81)"/>"/>
</g>
<defs>
<clipPath id="clip0_605_1430">
<rect width="22.22" height="22.22" fill="white"/>
</clipPath>
</defs>
</svg>
