<svg width="20" height="20" viewBox="0 0 11 8" fill="none" xmlns="http://www.w3.org/2000/svg">
<path d="M10.39 3.09523C10.39 3.36929 10.2577 3.61617 10.0542 3.72213L9.84347 3.83148V5.33588C9.84347 5.52334 9.72133 5.67547 9.57021 5.67547C9.41882 5.67547 9.29695 5.52334 9.29695 5.33588V4.11538L8.66516 4.4441V6.17094C8.66516 6.46266 8.51378 6.72312 8.29107 6.81482L5.50707 7.96468C5.45105 7.98777 5.39284 8 5.33436 8C5.2819 8 5.22807 7.99049 5.17669 7.97113L2.11396 6.82093C1.88305 6.73365 1.72511 6.47013 1.72511 6.1706V4.44377L0.33584 3.72179C0.132806 3.61583 0 3.36895 0 3.09523C0 2.82152 0.132259 2.5743 0.33584 2.46868L4.98431 0.0524674C5.11849 -0.0174891 5.27097 -0.0174891 5.40596 0.0524674L10.0542 2.46868C10.2575 2.57396 10.39 2.82118 10.39 3.09523Z" fill="rgb(4, 47, 81)"/>
</svg>
