<svg width="26" height="25" viewBox="0 0 26 25" fill="none" xmlns="http://www.w3.org/2000/svg">
<path d="M22.1509 21.3042H18.3008V15.5031C18.3008 14.1198 18.2715 12.3396 16.2944 12.3396C14.287 12.3396 13.9804 13.8448 13.9804 15.401V21.3042H10.1303V9.375H13.8288V11.001H13.8786C14.3953 10.0635 15.652 9.07396 17.5294 9.07396C21.4305 9.07396 22.152 11.5427 22.152 14.7562L22.1509 21.3042ZM5.78175 7.74271C4.54242 7.74271 3.54683 6.77812 3.54683 5.59167C3.54683 4.40625 4.5435 3.44271 5.78175 3.44271C7.01675 3.44271 8.01775 4.40625 8.01775 5.59167C8.01775 6.77812 7.01567 7.74271 5.78175 7.74271ZM7.71225 21.3042H3.85125V9.375H7.71225V21.3042ZM24.0771 0H1.91858C0.858 0 0 0.80625 0 1.80104V23.199C0 24.1948 0.858 25 1.91858 25H24.0738C25.1333 25 26 24.1948 26 23.199V1.80104C26 0.80625 25.1333 0 24.0738 0L24.0771 0Z" fill="#0F0F0F"/>
</svg>
