<svg width="23" height="23" viewBox="0 0 23 23" fill="none" xmlns="http://www.w3.org/2000/svg">
<path d="M20.4235 0.00199094H1.90083C1.66209 -0.00919128 1.42347 0.0268114 1.19866 0.107959C0.97385 0.189106 0.767256 0.313789 0.590687 0.474863C0.414132 0.635951 0.27107 0.83028 0.169715 1.04671C0.0683608 1.26315 0.0106835 1.49745 0 1.73621V20.2993C0.0139857 20.7989 0.218748 21.2743 0.572233 21.6277C0.925719 21.9812 1.40112 22.186 1.90083 22.2H20.4235C20.9093 22.1784 21.3673 21.9672 21.6993 21.6119C22.0313 21.2566 22.2109 20.7854 22.1995 20.2993V1.73621C22.2035 1.50382 22.1599 1.27309 22.0716 1.05813C21.9832 0.843183 21.8518 0.648548 21.6854 0.486156C21.5192 0.323778 21.3215 0.197084 21.1045 0.113827C20.8875 0.0305712 20.6558 -0.00748482 20.4235 0.00199094ZM6.93734 18.5096H3.70454V8.61762H6.93734V18.5096ZM5.39725 7.11921C5.17166 7.12708 4.94688 7.08821 4.73704 7.00505C4.52718 6.92189 4.3368 6.79623 4.17785 6.63598C4.01888 6.47572 3.89478 6.28433 3.81333 6.07383C3.73187 5.86332 3.69484 5.63825 3.70454 5.41275C3.69456 5.1848 3.73235 4.9573 3.81547 4.74482C3.89859 4.53233 4.02521 4.33957 4.1872 4.1789C4.3492 4.01821 4.54299 3.89317 4.75614 3.81179C4.96931 3.73039 5.19714 3.69446 5.425 3.70628C5.65059 3.69842 5.87537 3.73728 6.08521 3.82044C6.29507 3.9036 6.48546 4.02926 6.6444 4.18951C6.80337 4.34977 6.92748 4.54116 7.00892 4.75166C7.09038 4.96217 7.12741 5.18724 7.11771 5.41275C7.12769 5.64069 7.08991 5.86819 7.00678 6.08067C6.92366 6.29316 6.79704 6.48592 6.63505 6.64659C6.47305 6.80728 6.27927 6.93232 6.06611 7.0137C5.85294 7.0951 5.62512 7.13103 5.39725 7.11921ZM18.5088 18.5096H15.2622V13.0988C15.2622 11.8086 14.8043 10.9207 13.6527 10.9207C13.295 10.9237 12.9469 11.0373 12.6563 11.246C12.3657 11.4547 12.1467 11.7481 12.0293 12.0861C11.9392 12.3394 11.9014 12.6084 11.9184 12.8769V18.5096H8.72718V8.61762H11.9184V10.005C12.2021 9.48376 12.6243 9.05117 13.1385 8.75483C13.6527 8.45863 14.2388 8.31029 14.832 8.32623C16.9271 8.32623 18.5088 9.71364 18.5088 12.6687V18.5096Z" fill="rgb(4, 47, 81)"/>
</svg>
