<svg width="22" height="16" viewBox="0 0 22 16" fill="none" xmlns="http://www.w3.org/2000/svg">
<path d="M4.77706 0.318112C5.20652 0.742262 5.20652 1.42994 4.77706 1.85409C1.34022 5.24838 1.34022 10.7516 4.77706 14.1459C5.20652 14.5701 5.20652 15.2577 4.77706 15.6819C4.34759 16.106 3.65129 16.106 3.22183 15.6819C-1.07394 11.4393 -1.07394 4.5607 3.22183 0.318112C3.65129 -0.106037 4.34759 -0.106037 4.77706 0.318112ZM18.7782 0.318112C23.0739 4.5607 23.0739 11.4393 18.7782 15.6819C18.3487 16.106 17.6524 16.106 17.2229 15.6819C16.7935 15.2577 16.7935 14.5701 17.2229 14.1459C20.6598 10.7516 20.6598 5.24838 17.2229 1.85409C16.7935 1.42994 16.7935 0.742262 17.2229 0.318112C17.6524 -0.106037 18.3487 -0.106037 18.7782 0.318112ZM8.03953 3.43889C8.469 3.86304 8.469 4.55073 8.03953 4.97488C6.35591 6.63766 6.35591 9.33356 8.03953 10.9963C8.469 11.4205 8.469 12.1082 8.03953 12.5323C7.61007 12.9565 6.91376 12.9565 6.4843 12.5323C3.94174 10.0212 3.94174 5.94998 6.4843 3.43889C6.91376 3.01474 7.61007 3.01474 8.03953 3.43889ZM15.6917 3.43889C18.2343 5.94998 18.2343 10.0212 15.6917 12.5323C15.2622 12.9565 14.5659 12.9565 14.1365 12.5323C13.707 12.1082 13.707 11.4205 14.1365 10.9963C15.8201 9.33356 15.8201 6.63766 14.1365 4.97488C13.707 4.55073 13.707 3.86304 14.1365 3.43889C14.5659 3.01474 15.2622 3.01474 15.6917 3.43889ZM11.088 6.44677C11.999 6.44677 12.7376 7.17617 12.7376 8.07593C12.7376 8.97569 11.999 9.70508 11.088 9.70508C10.177 9.70508 9.43843 8.97569 9.43843 8.07593C9.43843 7.17617 10.177 6.44677 11.088 6.44677Z" fill="#E7EEF4"/>
</svg>
