<svg width="26" height="19" viewBox="0 0 26 19" fill="none" xmlns="http://www.w3.org/2000/svg">
<path d="M5.18647 0.286235C5.56723 0.667882 5.56723 1.28665 5.18647 1.6683C0.871177 5.99363 0.871177 13.0064 5.18647 17.3317C5.56723 17.7133 5.56723 18.3321 5.18647 18.7138C4.80571 19.0954 4.18837 19.0954 3.80761 18.7138C-1.2692 13.6251 -1.2692 5.37486 3.80761 0.286235C4.18837 -0.0954117 4.80571 -0.0954117 5.18647 0.286235ZM22.1924 0.286235C27.2692 5.37486 27.2692 13.6251 22.1924 18.7138C21.8116 19.0954 21.1943 19.0954 20.8135 18.7138C20.4328 18.3321 20.4328 17.7133 20.8135 17.3317C25.1288 13.0064 25.1288 5.99363 20.8135 1.6683C20.4328 1.28665 20.4328 0.667882 20.8135 0.286235C21.1943 -0.0954117 21.8116 -0.0954117 22.1924 0.286235ZM8.86343 3.97174C9.24419 4.35339 9.24419 4.97216 8.86343 5.35381C6.57886 7.64369 6.57886 11.3563 8.86343 13.6462C9.24419 14.0278 9.24419 14.6466 8.86343 15.0283C8.48266 15.4099 7.86533 15.4099 7.48457 15.0283C4.43848 11.9751 4.43848 7.02491 7.48457 3.97174C7.86533 3.59009 8.48266 3.59009 8.86343 3.97174ZM18.5154 3.97174C21.5615 7.02491 21.5615 11.9751 18.5154 15.0283C18.1347 15.4099 17.5173 15.4099 17.1366 15.0283C16.7558 14.6466 16.7558 14.0278 17.1366 13.6462C19.4211 11.3563 19.4211 7.64369 17.1366 5.35381C16.7558 4.97216 16.7558 4.35339 17.1366 3.97174C17.5173 3.59009 18.1347 3.59009 18.5154 3.97174ZM13 7.54547C14.077 7.54547 14.95 8.42054 14.95 9.5C14.95 10.5795 14.077 11.4545 13 11.4545C11.923 11.4545 11.05 10.5795 11.05 9.5C11.05 8.42054 11.923 7.54547 13 7.54547Z" fill="black"/>
</svg>
