<svg width="15" height="15" viewBox="0 0 6 8" fill="none" xmlns="http://www.w3.org/2000/svg">
<path fill-rule="evenodd" clip-rule="evenodd" d="M3 2.25C2.58575 2.25 2.25 2.58575 2.25 3C2.25 3.41425 2.58575 3.75 3 3.75C3.41425 3.75 3.75 3.41425 3.75 3C3.75 2.58575 3.41425 2.25 3 2.25ZM3 4.25C2.30975 4.25 1.75 3.6905 1.75 3C1.75 2.3095 2.30975 1.75 3 1.75C3.69025 1.75 4.25 2.3095 4.25 3C4.25 3.6905 3.69025 4.25 3 4.25ZM3 0C1.34325 0 0 1.34325 0 3C0 4.2545 2.50125 8.00275 3 8C3.491 8.00275 6 4.2375 6 3C6 1.34325 4.65675 0 3 0Z" fill="rgb(4, 47, 81)"/>
</svg>
