<svg width="11" height="11" viewBox="0 0 11 11" fill="none" xmlns="http://www.w3.org/2000/svg">
<path fill-rule="evenodd" clip-rule="evenodd" d="M5 3.25C4.58575 3.25 4.25 3.58575 4.25 4C4.25 4.41425 4.58575 4.75 5 4.75C5.41425 4.75 5.75 4.41425 5.75 4C5.75 3.58575 5.41425 3.25 5 3.25ZM5 5.25C4.30975 5.25 3.75 4.6905 3.75 4C3.75 3.3095 4.30975 2.75 5 2.75C5.69025 2.75 6.25 3.3095 6.25 4C6.25 4.6905 5.69025 5.25 5 5.25ZM5 1C3.34325 1 2 2.34325 2 4C2 5.2545 4.50125 9.00275 5 9C5.491 9.00275 8 5.2375 8 4C8 2.34325 6.65675 1 5 1Z" fill="#E7EEF4"/>
</svg>
