<svg width="11" height="10" viewBox="0 0 11 10" fill="none" xmlns="http://www.w3.org/2000/svg">
<path d="M7.06095 6C6.77043 6.09139 6.46053 6.14214 6.1379 6.14214C5.81528 6.14214 5.29052 6.09139 5 6C2.88966 6.32652 2 7.78784 2 9.56112H6.1379H10.2758C10.2758 7.78784 9.17148 6.32652 7.06095 6Z" fill="#4D4D4D"/>
<path d="M6.0476 5.6781C7.29861 5.6781 9.10134 6.48345 9.10134 5.30499L8.31237 2.93872C8.31237 1.76026 7.29861 0.804932 6.0476 0.804932C4.7966 0.804932 3.78284 1.76026 3.78284 2.93872L2.90967 5.30493C2.90967 6.48339 4.7966 5.6781 6.0476 5.6781Z" fill="#4D4D4D"/>
<circle cx="5.25" cy="4.25" r="0.25" fill="#2D33C5"/>
<circle cx="6.25" cy="4.25" r="0.25" fill="#B82F2F"/>
<rect x="0.330322" y="6" width="5.17505" height="0.5" rx="0.25" transform="rotate(41.3397 0.330322 6)" fill="#B82F2F"/>
</svg>
