<svg width="22" height="22" viewBox="0 0 20 22" fill="none" xmlns="http://www.w3.org/2000/svg">
<path d="M11.061 11.363C10.7704 11.4544 10.4605 11.5052 10.1379 11.5052C9.81528 11.5052 9.50533 11.4544 9.21481 11.363C7.10447 11.6896 6 13.1509 6 14.9242H10.1379H14.2758C14.2758 13.1509 13.1715 11.6896 11.061 11.363Z" fill="white"/>
<path d="M10.1379 10.8732C11.3889 10.8732 12.4027 9.91755 12.4027 8.73909V8.13379C12.4027 6.95532 11.3889 6 10.1379 6C8.88693 6 7.87317 6.95532 7.87317 8.13379V8.73909C7.87317 9.91755 8.88693 10.8732 10.1379 10.8732Z" fill="white"/>
<path d="M15.8761 0H4.123C1.84993 0 0 1.6561 0 3.69097V18.3098C0 20.3447 1.84993 22 4.123 22H13.9979H14.6304L15.0778 21.6003L19.5535 17.5944L20 17.1944V16.6283V3.69097C20 1.6561 18.1501 0 15.8761 0ZM18.4732 16.6283H16.1618C14.9673 16.6283 13.9979 17.4955 13.9979 18.565V20.6335H4.123C2.6892 20.6335 1.52684 19.5927 1.52684 18.3098V3.69097C1.52684 2.40732 2.6892 1.36654 4.123 1.36654H15.8761C17.3104 1.36654 18.4732 2.40732 18.4732 3.69097V16.6283H18.4732Z" fill="white"/>
</svg>
