<svg width="18" height="18" viewBox="0 0 18 18" fill="none" xmlns="http://www.w3.org/2000/svg">
<path d="M13.8848 5.103L14.0535 4.84763L14.3483 5.0265L14.4788 5.11988C14.7938 5.36288 15.4564 5.98388 15.5993 7.01438C15.8502 6.96938 16.1033 6.94688 16.3564 6.94688C16.9572 6.94688 17.361 7.08637 17.5905 7.20225L17.7087 7.26638L17.7852 7.317L18 7.4925L17.9258 7.7175C17.8104 8.02596 17.6301 8.30602 17.397 8.53875C17.0708 8.87513 16.497 9.27225 15.5869 9.324L15.3867 9.32963H15.2202C14.8039 10.4288 14.2448 11.6674 13.3054 12.7789C12.748 13.4394 12.0869 14.0048 11.3479 14.4529C10.462 14.9785 9.49181 15.3469 8.4803 15.5419C7.7558 15.6825 7.02005 15.7523 6.28317 15.75C4.65192 15.75 3.21192 15.426 2.32655 14.859C1.53567 14.3539 0.928173 13.5293 0.519798 12.4099C0.162415 11.387 -0.0131108 10.3095 0.00117279 9.22613C-0.000678222 9.08722 0.0473435 8.95226 0.136518 8.84575C0.225693 8.73923 0.350108 8.66823 0.487173 8.64562L0.563673 8.64H12.4212L12.5247 8.63212L12.6923 8.61413C12.9803 8.57588 13.419 8.49038 13.7273 8.31038C13.3583 7.6995 13.2537 6.98512 13.4258 6.22462C13.4979 5.9074 13.6114 5.60103 13.7633 5.31338L13.8848 5.103ZM3.2513 6.507L3.2963 6.51487C3.31685 6.52257 3.33536 6.53489 3.35038 6.55089C3.3654 6.56688 3.37654 6.58613 3.38292 6.60713L3.38967 6.65213V8.1315L3.38292 8.17763C3.37642 8.19874 3.36512 8.21806 3.34989 8.23406C3.33467 8.25007 3.31594 8.26233 3.29517 8.26987L3.2513 8.27662H1.6628C1.63319 8.27623 1.60448 8.26642 1.58082 8.24862C1.55715 8.23083 1.53977 8.20596 1.53117 8.17763L1.5233 8.13263V6.651L1.53117 6.606C1.53752 6.58468 1.54876 6.56513 1.56399 6.54892C1.57923 6.53271 1.59804 6.52028 1.61892 6.51263L1.6628 6.50587L3.2513 6.507ZM5.44167 6.507L5.48555 6.51487C5.50631 6.52242 5.52504 6.53468 5.54027 6.55069C5.55549 6.56669 5.5668 6.58601 5.5733 6.60713L5.58005 6.65213V8.1315L5.57217 8.17763C5.56567 8.19874 5.55437 8.21806 5.53914 8.23406C5.52392 8.25007 5.50519 8.26233 5.48442 8.26987L5.44055 8.27662H3.85205C3.82249 8.27606 3.79386 8.26618 3.77023 8.24841C3.7466 8.23064 3.72917 8.20587 3.72042 8.17763L3.71255 8.13375V6.65213C3.71231 6.62202 3.72136 6.59258 3.73848 6.56782C3.75559 6.54305 3.77993 6.52417 3.80817 6.51375L3.85205 6.50587L5.44167 6.507ZM7.66467 6.507L7.70855 6.51487C7.7291 6.52257 7.74761 6.53489 7.76263 6.55089C7.77765 6.56688 7.78879 6.58613 7.79517 6.60713L7.80305 6.65213V8.1315L7.79517 8.17763C7.78867 8.19874 7.77737 8.21806 7.76214 8.23406C7.74692 8.25007 7.72819 8.26233 7.70742 8.26987L7.66355 8.27662H6.07505C6.04544 8.27623 6.01673 8.26642 5.99307 8.24862C5.9694 8.23083 5.95202 8.20596 5.94342 8.17763L5.93667 8.13263V6.651L5.94342 6.606C5.94977 6.58468 5.96101 6.56513 5.97624 6.54892C5.99148 6.53271 6.01029 6.52028 6.03117 6.51263L6.07505 6.50587L7.66467 6.507ZM9.86067 6.507L9.90455 6.51487C9.92531 6.52242 9.94404 6.53468 9.95927 6.55069C9.97449 6.56669 9.9858 6.58601 9.9923 6.60713L10.0002 6.65213V8.1315C10.0004 8.1616 9.99136 8.19105 9.97424 8.21581C9.95713 8.24058 9.93279 8.25946 9.90455 8.26987L9.85955 8.27662H8.27217C8.24257 8.27623 8.21385 8.26642 8.19019 8.24862C8.16653 8.23083 8.14914 8.20596 8.14055 8.17763L8.1338 8.13263V6.651L8.14055 6.606C8.1469 6.58468 8.15813 6.56513 8.17337 6.54892C8.1886 6.53271 8.20741 6.52028 8.2283 6.51263L8.2733 6.50587H9.8618L9.86067 6.507ZM12.0769 6.507L12.1208 6.51487C12.1416 6.52242 12.1603 6.53468 12.1755 6.55069C12.1907 6.56669 12.202 6.58601 12.2085 6.60713L12.2153 6.65213V8.1315C12.2155 8.1616 12.2065 8.19105 12.1894 8.21581C12.1723 8.24058 12.1479 8.25946 12.1197 8.26987L12.0758 8.27662H10.4873C10.4577 8.27623 10.429 8.26642 10.4053 8.24862C10.3817 8.23083 10.3643 8.20596 10.3557 8.17763L10.3489 8.13263V6.651L10.3557 6.606C10.362 6.58468 10.3733 6.56513 10.3885 6.54892C10.4037 6.53271 10.4225 6.52028 10.4434 6.51263L10.4884 6.50587H12.0758L12.0769 6.507ZM5.43942 4.3785L5.48442 4.38637C5.50485 4.39395 5.52328 4.4061 5.5383 4.4219C5.55331 4.43769 5.56451 4.45671 5.57105 4.4775L5.57892 4.52362V6.003C5.57916 6.0331 5.57011 6.06254 5.55299 6.08731C5.53588 6.11207 5.51154 6.13096 5.4833 6.14138L5.43942 6.14925H3.85205C3.8222 6.14853 3.79336 6.13833 3.76969 6.12013C3.74603 6.10193 3.72877 6.07666 3.72042 6.048L3.71255 6.003V4.52362C3.71254 4.49371 3.7217 4.46452 3.7388 4.43998C3.7559 4.41544 3.78011 4.39673 3.80817 4.38637L3.85205 4.3785H5.43942ZM7.66242 4.3785L7.70742 4.38637C7.72785 4.39395 7.74628 4.4061 7.7613 4.4219C7.77631 4.43769 7.78751 4.45671 7.79405 4.4775L7.80192 4.52362V6.003C7.80216 6.0331 7.79311 6.06254 7.77599 6.08731C7.75888 6.11207 7.73454 6.13096 7.7063 6.14138L7.66242 6.14925H6.07505C6.0452 6.14853 6.01636 6.13833 5.99269 6.12013C5.96903 6.10193 5.95177 6.07666 5.94342 6.048L5.93667 6.003V4.52362L5.94342 4.47862C5.94992 4.45751 5.96123 4.43819 5.97645 4.42219C5.99168 4.40618 6.01041 4.39392 6.03117 4.38637L6.07505 4.3785H7.66242ZM9.85955 4.3785C9.9203 4.3785 9.97205 4.42013 9.99117 4.4775L9.99905 4.52362V6.003C9.99929 6.0331 9.99023 6.06254 9.97312 6.08731C9.956 6.11207 9.93167 6.13096 9.90342 6.14138L9.85842 6.14925H8.27217C8.24233 6.14853 8.21348 6.13833 8.18982 6.12013C8.16615 6.10193 8.1489 6.07666 8.14055 6.048L8.1338 6.003V4.52362L8.14055 4.47862C8.14705 4.45751 8.15835 4.43819 8.17358 4.42219C8.1888 4.40618 8.20753 4.39392 8.2283 4.38637L8.2733 4.3785H9.8618H9.85955ZM9.85955 2.25C9.9203 2.25 9.97205 2.29163 9.99117 2.349L9.99905 2.394V3.8745C9.99929 3.9046 9.99023 3.93404 9.97312 3.95881C9.956 3.98357 9.93167 4.00246 9.90342 4.01287L9.85842 4.01962H8.27217C8.24257 4.01923 8.21385 4.00942 8.19019 3.99162C8.16653 3.97383 8.14914 3.94896 8.14055 3.92062L8.1338 3.87562V2.394L8.14055 2.349C8.14705 2.32789 8.15835 2.30857 8.17358 2.29256C8.1888 2.27655 8.20753 2.2643 8.2283 2.25675L8.27217 2.25H9.86067H9.85955Z" fill="#2396ED"/>
</svg>
