<svg width="17" height="17" viewBox="0 0 17 17" fill="none" xmlns="http://www.w3.org/2000/svg">
<path d="M14.1716 12.7852C14.0654 12.6662 14.0165 12.4462 13.9623 12.2114C13.9092 11.9777 13.8486 11.7258 13.6563 11.5633V11.5622C13.5862 11.5014 13.506 11.4533 13.4194 11.4198C13.6871 10.6283 13.5819 9.8399 13.3131 9.12803C12.9816 8.25359 12.4047 7.49178 11.9638 6.97115C11.4708 6.34853 10.9884 5.75778 10.9969 4.88546C11.0118 3.55309 11.1435 1.08278 8.79963 1.07959C8.70401 1.07959 8.6052 1.08384 8.50213 1.09234C5.88201 1.30271 6.57688 4.07053 6.53757 4.99703C6.48976 5.6749 6.3527 6.20828 5.88626 6.87128C5.33907 7.52259 4.56876 8.57553 4.20326 9.67309C4.03113 10.1905 3.94826 10.7186 4.02476 11.218C4.00032 11.2392 3.97801 11.2615 3.95676 11.2849C3.79632 11.456 3.67732 11.6642 3.54451 11.8045C3.42126 11.9277 3.24488 11.9745 3.05151 12.0435C2.85707 12.1137 2.64457 12.2157 2.51601 12.4632V12.4643C2.45897 12.5756 2.43084 12.6994 2.4342 12.8245C2.4342 12.9392 2.4512 13.055 2.4682 13.1666C2.50432 13.4003 2.54045 13.6203 2.49263 13.769C2.33963 14.1887 2.31945 14.4777 2.42782 14.6881C2.5362 14.8995 2.7572 14.992 3.00901 15.044C3.51157 15.1503 4.19263 15.1237 4.7292 15.4074C5.30295 15.7081 5.88626 15.8143 6.35057 15.7092C6.51292 15.6773 6.66546 15.6075 6.7958 15.5056C6.92614 15.4037 7.0306 15.2725 7.1007 15.1227C7.46407 15.1205 7.86251 14.9675 8.50107 14.9314C8.93457 14.8974 9.47645 15.0855 10.098 15.0515C10.1141 15.119 10.1384 15.1843 10.1703 15.2459L10.1713 15.247C10.4125 15.7304 10.8619 15.9503 11.3401 15.9132C11.8182 15.8749 12.3261 15.5933 12.7373 15.1035C13.1304 14.6275 13.7806 14.431 14.212 14.1707C14.4277 14.04 14.603 13.8774 14.6158 13.6405C14.6296 13.4046 14.4904 13.14 14.1716 12.7852Z" fill="#202020"/>
<path d="M14.4192 13.6296C14.4118 13.7752 14.3055 13.8846 14.1111 14.0015C13.7201 14.2374 13.0284 14.4414 12.5874 14.9769C12.2028 15.4338 11.7353 15.6835 11.3231 15.7164C10.9119 15.7483 10.557 15.5783 10.3466 15.1575V15.1554C10.2159 14.9078 10.2701 14.5179 10.3796 14.1067C10.489 13.6955 10.6463 13.2726 10.6675 12.9295C10.6888 12.4885 10.7143 12.1039 10.7886 11.8075C10.863 11.51 10.9788 11.3102 11.1849 11.1965C11.1944 11.1914 11.204 11.1864 11.2136 11.1816C11.237 11.5631 11.4261 11.952 11.7598 12.0359C12.1242 12.1315 12.6501 11.8191 12.8722 11.5631L13.0018 11.5588C13.1973 11.5535 13.3599 11.5652 13.5278 11.7108C13.6563 11.8191 13.7179 12.0263 13.7711 12.2558C13.8242 12.4864 13.8667 12.7371 14.025 12.9156C14.3299 13.2556 14.4288 13.483 14.4192 13.6296ZM7.00401 14.7081V14.7113C6.96788 15.1735 6.70651 15.4253 6.30701 15.5166C5.90644 15.608 5.36351 15.5166 4.82163 15.234C4.22132 14.9153 3.50732 14.9471 3.05044 14.8515C2.82094 14.8037 2.67113 14.7315 2.60313 14.5986C2.53513 14.4648 2.53301 14.2321 2.67857 13.8336V13.8326L2.67963 13.8305C2.75188 13.6084 2.69876 13.3651 2.66369 13.1366C2.62863 12.9093 2.61163 12.701 2.68919 12.5565L2.69026 12.5555C2.79013 12.3631 2.93676 12.2941 3.11844 12.2293C3.29907 12.1634 3.51476 12.1124 3.68476 11.9424L3.68582 11.9413C3.84307 11.7745 3.96313 11.5663 4.10126 11.4186C4.21813 11.2943 4.33501 11.2114 4.51032 11.2103H4.51563C4.54874 11.2106 4.58177 11.2135 4.61444 11.2188C4.84819 11.2539 5.05113 11.4175 5.24769 11.6831L5.81401 12.7148V12.7159C5.96488 13.0304 6.28257 13.3768 6.55244 13.7295C6.82232 14.0833 7.03057 14.4371 7.00401 14.7081Z" fill="#F8BF11"/>
<path d="M9.82809 5.08728C9.78241 4.99803 9.68997 4.91303 9.53059 4.84822C9.20122 4.7069 9.05884 4.69734 8.87503 4.57834C8.57753 4.38603 8.32997 4.31909 8.12491 4.31909C8.02647 4.31957 7.9288 4.33645 7.83591 4.36903C7.58516 4.45403 7.41941 4.63465 7.31528 4.7324C7.29403 4.75259 7.26853 4.76959 7.20478 4.8174C7.14103 4.86309 7.04541 4.93428 6.90728 5.0384C6.78297 5.12978 6.74366 5.2509 6.78616 5.39115C6.82866 5.5314 6.96359 5.69397 7.21116 5.83422C7.36522 5.92453 7.47147 6.04672 7.59259 6.1434C7.65343 6.19397 7.72102 6.23581 7.79341 6.26772C7.86991 6.30065 7.95916 6.32297 8.06966 6.32934C8.33316 6.34528 8.52653 6.26559 8.69653 6.1689C8.86653 6.07115 9.01103 5.95215 9.17678 5.89797C9.51678 5.79172 9.76009 5.57815 9.83659 5.37415C9.8559 5.32854 9.86513 5.2793 9.86366 5.22979C9.8622 5.18028 9.85006 5.13167 9.82809 5.08728Z" fill="#D6A312"/>
<path d="M8.96533 5.58887C8.69439 5.73018 8.37883 5.90124 8.04201 5.90124C7.70626 5.90124 7.44064 5.74612 7.25045 5.59418C7.15483 5.51981 7.07726 5.44331 7.01883 5.38912C6.91683 5.30943 6.92958 5.19681 6.97101 5.19999C7.04114 5.20849 7.05176 5.30093 7.09533 5.34237C7.15483 5.39762 7.2292 5.46987 7.31951 5.54106C7.50014 5.68449 7.74133 5.82368 8.04201 5.82368C8.34376 5.82368 8.69439 5.64731 8.90902 5.52618C9.0312 5.45818 9.18527 5.33599 9.3117 5.24356C9.40733 5.17237 9.40414 5.08737 9.48383 5.09693C9.56351 5.10649 9.50508 5.19149 9.39351 5.28818C9.28195 5.38593 9.10664 5.51556 8.96533 5.58887Z" fill="#202020"/>
<path d="M13.108 11.3623C13.0712 11.3612 13.0344 11.3612 12.9975 11.3623H12.9869C13.0804 11.068 12.8743 10.8523 12.3271 10.6048C11.7597 10.3551 11.3071 10.3795 11.2306 10.8863C11.2253 10.9129 11.221 10.9395 11.2189 10.9671C11.1749 10.9827 11.1323 11.0019 11.0914 11.0245C10.8237 11.17 10.6781 11.4346 10.5974 11.7597C10.5166 12.0838 10.4932 12.4758 10.4709 12.9178C10.4571 13.1388 10.3657 13.4385 10.2733 13.7572C9.34361 14.4202 8.05267 14.7071 6.95617 13.9591C6.88179 13.8422 6.79679 13.7253 6.70861 13.6106C6.65262 13.5374 6.59595 13.4648 6.5386 13.3928C6.63621 13.3954 6.73326 13.3773 6.82336 13.3396C6.86837 13.3208 6.90909 13.2929 6.94306 13.2579C6.97702 13.2228 7.00353 13.1812 7.02098 13.1356C7.08792 12.955 7.02098 12.7021 6.80636 12.4131C6.59279 12.1231 6.23048 11.7969 5.69817 11.4696C5.30717 11.2253 5.08829 10.9278 4.98629 10.6048C4.88323 10.2807 4.89704 9.93008 4.97567 9.58477C5.12761 8.9207 5.51754 8.27471 5.76511 7.86989C5.83204 7.82102 5.78954 7.96127 5.51436 8.47233C5.26786 8.93983 4.80567 10.0183 5.43785 10.8608C5.45485 10.2616 5.59723 9.64958 5.83842 9.07902C6.18798 8.28533 6.92004 6.91046 6.97742 5.81396C7.00823 5.83521 7.11023 5.90533 7.15698 5.93083C7.29086 6.01052 7.39179 6.12633 7.52248 6.23152C7.6929 6.37535 7.91052 6.45104 8.13342 6.44402C8.38842 6.44402 8.58711 6.36008 8.75179 6.26552C8.93242 6.16352 9.07479 6.04877 9.21186 6.0052C9.49873 5.91489 9.72823 5.75552 9.85786 5.56958C10.081 6.45146 10.6016 7.72327 10.9352 8.34377C11.1127 8.67314 11.4665 9.37333 11.6184 10.2159C11.7151 10.2138 11.8214 10.2265 11.9361 10.2563C12.3345 9.22245 11.5972 8.10789 11.2604 7.79764C11.1244 7.66589 11.1169 7.60639 11.186 7.60958C11.5504 7.93258 12.0307 8.58389 12.206 9.31808C12.2857 9.65277 12.3016 10.0045 12.2166 10.3519C12.2591 10.37 12.3016 10.388 12.3441 10.4093C12.9848 10.7206 13.2217 10.9915 13.108 11.3623Z" fill="white"/>
<path d="M8.54254 8.56592C7.95179 8.56804 7.37485 8.83261 6.88717 9.32667C6.39842 9.81967 6.02229 10.5188 5.80554 11.3327L5.87035 11.373V11.3773C6.36973 11.6939 6.72567 12.0127 6.9456 12.3102C7.17829 12.6247 7.28135 12.9307 7.18254 13.1963C7.13038 13.3305 7.02725 13.4386 6.89567 13.497L6.8521 13.5129C6.93073 13.616 7.00723 13.7222 7.07842 13.8317C8.08142 14.4989 9.24804 14.2524 10.1246 13.6489C10.2096 13.3535 10.2872 13.0794 10.2978 12.9073C10.3201 12.4664 10.3424 12.0658 10.4295 11.7173C10.5167 11.3667 10.6867 11.0479 11.0075 10.8726C11.0256 10.862 11.0437 10.8567 11.0617 10.8482C11.0674 10.8144 11.0752 10.7811 11.0851 10.7483C10.828 10.0874 10.4572 9.53704 10.012 9.15454C9.56573 8.77204 9.05892 8.56911 8.5436 8.56592H8.54254ZM11.0607 10.8556L11.0585 10.8609V10.8588L11.0596 10.8545L11.0607 10.8556Z" fill="#E6E6E6"/>
<path d="M9.8579 4.07264C9.86249 4.32408 9.78199 4.56969 9.62946 4.76964C9.55318 4.73556 9.47594 4.70367 9.39784 4.67401L9.2629 4.6262C9.29371 4.58901 9.35321 4.54651 9.37659 4.49126C9.41024 4.40926 9.42826 4.3217 9.42971 4.23307L9.43078 4.22245C9.43341 4.13732 9.42082 4.0524 9.39359 3.9717C9.3722 3.898 9.33276 3.8308 9.27884 3.7762C9.25746 3.75351 9.23182 3.73526 9.20337 3.72249C9.17493 3.70973 9.14425 3.70271 9.11309 3.70182H9.10565C9.04616 3.70265 8.98905 3.72534 8.94521 3.76557C8.88721 3.8158 8.84265 3.87971 8.81559 3.95151C8.7821 4.03356 8.76409 4.1211 8.76246 4.2097V4.22032C8.76079 4.2701 8.76399 4.31992 8.77202 4.36907C8.65149 4.31344 8.52542 4.2707 8.3959 4.24157C8.38973 4.1947 8.38619 4.14753 8.38528 4.10026V4.08645C8.38078 3.92316 8.41272 3.76091 8.47878 3.61151C8.53503 3.47395 8.62667 3.35372 8.7444 3.26301C8.84852 3.17892 8.97819 3.13283 9.11203 3.13232H9.1184C9.25121 3.13232 9.3649 3.17057 9.48177 3.25557C9.60211 3.34367 9.69645 3.4626 9.75484 3.59982C9.82177 3.74645 9.85471 3.88989 9.8579 4.05989L9.85896 4.07264H9.8579ZM7.84978 4.24689C7.74575 4.27665 7.64661 4.32139 7.55546 4.3797C7.56259 4.32685 7.5633 4.27334 7.55759 4.22032V4.21182C7.55108 4.14162 7.53389 4.07283 7.50659 4.00782C7.48472 3.95062 7.44979 3.89932 7.40459 3.85801C7.38798 3.84171 7.36816 3.82905 7.34639 3.82082C7.32463 3.81259 7.30139 3.80897 7.27815 3.8102C7.23353 3.81445 7.19634 3.8357 7.16128 3.87926C7.12395 3.92799 7.09849 3.98474 7.0869 4.04501C7.07033 4.11636 7.06567 4.18995 7.07309 4.26282V4.27132C7.07919 4.34194 7.09641 4.41114 7.12409 4.47639C7.14953 4.54171 7.1921 4.59897 7.24734 4.64214L7.13896 4.72714L7.05609 4.78664C6.98248 4.71424 6.9246 4.62743 6.88609 4.53164C6.82978 4.40414 6.79896 4.27664 6.79046 4.12682V4.12576C6.78073 3.98587 6.79694 3.84539 6.83828 3.71139C6.86999 3.59453 6.93107 3.48772 7.01571 3.40114C7.05122 3.36193 7.09449 3.33054 7.14278 3.30896C7.19107 3.28737 7.24332 3.27607 7.29621 3.27576C7.38546 3.27576 7.46409 3.30551 7.5459 3.37139C7.63937 3.44815 7.71207 3.54716 7.75734 3.65932C7.81365 3.78682 7.84234 3.91432 7.8519 4.0652C7.85509 4.12895 7.85509 4.18845 7.84978 4.24689Z" fill="white"/>
<path d="M8.29386 4.60591C8.30448 4.64203 8.36292 4.63672 8.39692 4.65372C8.42561 4.66859 8.45005 4.70153 8.48192 4.70259C8.5138 4.70366 8.56267 4.69197 8.56692 4.66009C8.57223 4.61972 8.51167 4.59316 8.47342 4.57828C8.42348 4.55809 8.35973 4.54853 8.31298 4.57509C8.30236 4.58041 8.29067 4.59316 8.29386 4.60591ZM7.95173 4.60591C7.94111 4.64203 7.88267 4.63672 7.84973 4.65372C7.81998 4.66859 7.79661 4.70153 7.76367 4.70259C7.7318 4.70366 7.68292 4.69197 7.67867 4.66009C7.67336 4.61972 7.73392 4.59316 7.77217 4.57828C7.82211 4.55809 7.88692 4.54853 7.93367 4.57509C7.9443 4.58041 7.95492 4.59316 7.95173 4.60591Z" fill="#202020"/>
</svg>
