<?xml version="1.0" standalone="no"?>
<!DOCTYPE svg PUBLIC "-//W3C//DTD SVG 20010904//EN"
 "http://www.w3.org/TR/2001/REC-SVG-20010904/DTD/svg10.dtd">
<svg version="1.0" xmlns="http://www.w3.org/2000/svg"
 width="19.000000pt" height="19.000000pt" viewBox="0 0 19.000000 19.000000"
 preserveAspectRatio="xMidYMid meet">

<g transform="translate(0.000000,19.000000) scale(0.100000,-0.100000)"
fill="#000000" stroke="none">
<path d="M75 120 c-10 -11 -13 -20 -7 -20 6 0 14 5 17 10 5 8 11 7 21 -1 22
-18 27 -5 6 14 -18 16 -20 16 -37 -3z"/>
<path d="M75 80 c-10 -11 -13 -20 -7 -20 6 0 14 5 17 10 5 8 11 7 21 -1 22
-18 27 -5 6 14 -18 16 -20 16 -37 -3z"/>
</g>
</svg>
