<svg width="18" height="18" viewBox="0 0 18 18" fill="none" xmlns="http://www.w3.org/2000/svg">
<path d="M11.2985 0.0175781H8.36107V4.49666C7.92221 4.3823 7.56 4.34415 7.083 4.34415C4.01214 4.34415 2.0282 6.2897 2.0282 9.28431C2.0282 12.3936 3.89767 14.0148 7.48378 14.0148C8.68489 14.0148 9.7914 13.9004 11.2985 13.6143V0.0175781H11.2985ZM8.36107 11.5735C7.94137 11.6306 7.67436 11.6496 7.35015 11.6496C5.84318 11.6496 5.02291 10.7914 5.02291 9.22714C5.02291 7.62497 5.88118 6.70939 7.36935 6.70939C7.73156 6.70939 8.01752 6.7475 8.36107 6.8619V11.5735ZM15.9718 0.0333633V3.04717H13.0342V0.0333633H15.9718ZM13.0342 4.55386H15.9718V11.3636C15.9718 13.7097 15.7999 14.835 15.2849 15.8079C14.8082 16.7427 14.1787 17.3338 12.8815 17.9824L10.1537 16.6853C11.4506 16.075 12.0806 15.5412 12.481 14.7207C12.9005 13.8813 13.0342 12.9086 13.0342 10.3524V4.55386Z" fill="black"/>
</svg>
