<svg width="18" height="18" viewBox="0 0 18 18" fill="none" xmlns="http://www.w3.org/2000/svg">
<path d="M8.99997 13.7339V16.7174C14.0568 16.7174 17.9865 11.8349 16.3327 6.53282C15.9713 5.38861 15.3396 4.34826 14.4911 3.49977C13.6427 2.65128 12.6023 2.01962 11.4581 1.6582C6.16497 0.00444798 1.28247 3.94195 1.28247 8.99095H4.26597C4.26597 5.82407 7.40697 3.37382 10.7415 4.58095C11.3539 4.80436 11.91 5.15896 12.371 5.61992C12.832 6.08087 13.1866 6.63704 13.41 7.24945C14.625 10.5806 12.1725 13.7182 9.00897 13.7249V10.7583H6.03335V13.7339H8.99997Z" fill="#0080FF"/>
<path d="M6.03333 16.0255H3.74058V13.7339H6.03333V16.0255ZM1.82471 13.7339H3.74058V11.8169H1.82471V13.7339Z" fill="#0080FF"/>
</svg>
