<svg width="18" height="18" viewBox="0 0 18 18" fill="none" xmlns="http://www.w3.org/2000/svg">
<g clip-path="url(#clip0_603_1487)">
<path fill-rule="evenodd" clip-rule="evenodd" d="M5.1319 4.37643C5.06981 3.83858 5.55388 4.06657 5.49204 4.39085C5.4012 4.47726 5.2334 4.40639 5.1319 4.37643ZM5.70811 4.27557C5.83003 4.26313 5.94626 4.24484 5.98187 4.14595C5.81323 4.04199 5.56123 4.29849 5.6649 4.41971C5.72245 4.41482 5.67155 4.30152 5.70811 4.27557ZM4.09461 4.60692C4.19614 4.5597 4.36296 4.57753 4.41158 4.4773C4.10938 4.37204 3.56516 4.44974 3.47509 4.65016C3.70547 4.63592 3.89813 4.45311 4.09461 4.60692ZM3.41747 4.66461C3.35201 4.65086 3.32677 4.72522 3.35988 4.7654C3.41104 4.76372 3.41786 4.71773 3.41747 4.66461ZM3.25898 4.95275C3.24977 4.81533 2.91734 4.7056 2.88446 4.89513C2.91322 5.00274 3.18136 5.07197 3.25898 4.95275ZM2.69719 4.82313C2.62853 4.82633 2.59323 4.86328 2.55308 4.89513C2.60532 4.92557 2.72106 4.91468 2.69719 4.82313ZM2.52436 5.21203C2.77812 5.1942 2.85536 5.42754 3.07171 5.39931C3.11203 5.14815 2.59587 4.80267 2.52436 5.21203ZM5.95301 6.46531C5.87735 6.21423 6.10903 5.99872 5.96739 5.80258C5.77129 5.81823 5.60169 6.72839 5.88097 6.72473C6.0815 6.72195 6.1522 6.17144 6.16904 5.99004C6.02223 6.0735 6.08618 6.36804 5.95301 6.46531ZM3.54716 6.36459C3.55152 6.32652 3.52719 6.31723 3.48954 6.32124C3.49049 6.36013 3.52245 6.39054 3.54716 6.36459ZM4.2531 6.78235C4.25587 6.69309 4.25236 6.61019 4.1811 6.59507C4.12685 6.58892 4.13009 6.64011 4.09461 6.65277C4.11441 6.72891 4.15462 6.78485 4.2531 6.78235ZM3.56157 7.24339C3.8378 7.27447 4.02275 7.47374 4.28189 7.47381C4.07524 7.33469 3.86054 7.2037 3.53275 7.18574C3.5223 7.22504 3.56136 7.21474 3.56157 7.24339ZM5.73694 7.45946C5.71546 7.36085 5.67267 7.2835 5.62173 7.21449C5.64047 7.31574 5.66631 7.40993 5.73694 7.45946ZM4.1522 7.77636C3.97139 7.53441 3.68332 7.32358 3.35988 7.27211C3.40555 7.65859 3.83516 7.66136 4.1522 7.77636ZM3.66244 7.86274C3.53897 7.65493 3.32729 7.53519 3.07171 7.45946C3.21536 7.63799 3.34695 7.90405 3.66244 7.86274ZM2.99971 7.66115C3.04889 7.74655 3.17254 7.83384 3.14381 7.94926C3.0175 7.91234 2.95608 7.81043 2.82684 7.7764C2.89547 7.8717 3.15738 8.29421 3.31661 8.28071C3.41824 8.27192 3.46419 8.15974 3.44626 7.97816C3.36839 7.81099 3.1205 7.73723 2.99971 7.66115ZM3.73444 8.03571C3.76646 8.12377 3.77771 8.23251 3.89296 8.23733C3.87334 8.13696 3.8147 8.07547 3.73444 8.03571ZM3.63357 8.07898C3.57986 8.07311 3.54909 8.09038 3.5472 8.1365C3.56333 8.13966 3.56962 8.15246 3.57595 8.16529C3.62201 8.1635 3.63945 8.1327 3.63357 8.07898ZM6.09708 8.41026C6.11209 8.32884 6.12735 8.17197 6.09708 8.09329C6.07859 8.17422 6.00901 8.35626 6.09708 8.41026ZM5.08866 8.10771C5.09966 8.19286 5.05849 8.33 5.13186 8.35275C5.13506 8.28971 5.14976 8.14775 5.08866 8.10771ZM5.76573 8.43909C5.72393 8.40204 5.66395 8.45804 5.63607 8.42475C5.60661 8.32937 5.61881 8.19236 5.53525 8.15098C5.52572 8.15098 5.51605 8.15098 5.50649 8.15098C5.38784 8.39673 5.39954 8.92467 5.60728 9.05851C5.64652 9.12499 5.65035 9.2268 5.75135 9.23148C5.83439 9.16556 5.85478 9.03727 5.86663 8.90002C5.68631 8.86216 5.85429 8.55134 5.76573 8.43909ZM6.19798 8.59747C6.21573 8.46992 6.32479 8.2844 6.24118 8.15098C6.21359 8.27723 6.16134 8.45516 6.19798 8.59747ZM3.66244 8.71289C3.68539 8.64704 3.66736 8.53535 3.6192 8.49675C3.58559 8.55982 3.56604 8.70508 3.66244 8.71289ZM3.92171 8.77044C3.9799 8.8083 3.98436 8.89981 4.06582 8.91451C4.16718 8.78513 3.97491 8.55711 3.92171 8.77044ZM6.38522 9.05851C6.38532 9.10267 6.32746 9.16306 6.37084 9.20254C6.37917 9.16686 6.42301 9.09261 6.38522 9.05851ZM6.51484 9.62038C6.51424 9.55386 6.52296 9.47799 6.48608 9.44758C6.47961 9.49888 6.44161 9.61247 6.51484 9.62038ZM4.68527 10.2111C4.69382 10.2648 4.70257 10.3186 4.75727 10.3263C4.79261 10.2769 4.76652 10.1894 4.68527 10.2111ZM5.33355 10.2832C5.35359 10.3213 5.41118 10.3968 5.44876 10.3695C5.41543 10.3449 5.37697 10.2499 5.33355 10.2832ZM6.70212 10.4417C6.66165 10.6132 6.75745 10.7695 6.83181 10.8739C6.86225 10.7066 6.85941 10.4671 6.70212 10.4417ZM7.06236 11.5508C7.08413 11.5072 7.09182 11.373 7.04795 11.3493C7.01002 11.4014 6.9762 11.5259 7.06236 11.5508ZM7.7105 12.2424C7.68966 12.1366 7.60672 12.0223 7.5233 12.0262C7.55248 12.1314 7.55754 12.261 7.7105 12.2424ZM7.8403 12.4441C7.8409 12.5107 7.83225 12.5868 7.86906 12.6168C7.87092 12.548 7.86994 12.4816 7.8403 12.4441ZM3.08612 12.4585C3.08633 12.5113 3.11456 12.5357 3.14381 12.5594C3.13805 12.5122 3.1313 12.4663 3.08612 12.4585ZM8.35893 13.2508C8.32345 12.9791 8.18058 12.8147 7.99879 12.6891C8.0248 12.9702 8.16258 13.1399 8.35893 13.2508ZM10.6784 14.6771C10.6696 14.6689 10.61 14.6435 10.6063 14.6771C10.628 14.6937 10.667 14.7277 10.6784 14.6771ZM17.9825 15.7432C17.9825 15.7961 17.9825 15.8487 17.9825 15.9016C17.9591 15.9503 17.9515 16.0147 17.9392 16.0745C17.5386 16.3317 16.786 16.237 16.4553 16.5644C15.8753 16.2519 15.3363 16.7441 14.7267 16.795C14.6259 16.8033 14.5139 16.7865 14.4095 16.795C14.0493 16.824 13.6975 16.9083 13.3291 16.939C12.9514 16.9704 12.5729 16.9935 12.1767 17.011C12.0325 17.011 11.8885 17.011 11.7445 17.011C9.95769 16.9172 8.19102 16.6768 6.87509 16.0889C6.21904 15.7958 5.61516 15.4362 5.0599 15.0084C4.51955 14.5923 3.96489 14.1298 3.57595 13.6111C3.16188 13.0587 2.7476 12.5216 2.38022 11.9112C2.02581 11.322 1.69453 10.7014 1.40063 10.0094C1.11069 9.32714 0.904113 8.65196 0.709031 7.81967C0.58152 7.27531 0.446941 6.65899 0.219234 6.14856C0.13057 5.94978 0.0273516 5.78708 0.0175781 5.60103C0.0175781 5.5579 0.0175781 5.51455 0.0175781 5.47141C0.0886289 4.8663 0.55923 4.51506 1.11245 4.34764C1.25096 4.30577 1.38565 4.26576 1.51583 4.18916C1.5243 4.18427 1.60731 4.1758 1.57352 4.13157C1.32704 4.07226 1.12426 4.43515 0.853207 4.33326C0.612562 4.24277 0.751113 3.87018 1.01169 3.75702C1.13333 3.70418 1.37486 3.69043 1.48704 3.62736C1.68047 3.51866 1.76825 3.28898 1.73201 3.07991C1.71053 2.95637 1.58231 2.89133 1.58794 2.79177C1.59581 2.65293 1.84405 2.53221 1.96246 2.446C2.10734 2.34057 2.27883 2.20888 2.26501 2.04262C2.25046 1.86895 2.0462 1.81361 1.94804 1.68248C1.79395 1.47668 1.76952 1.16906 2.02004 1.04851C2.2827 0.922122 2.77204 0.990993 2.82684 1.32227C2.87515 1.61424 2.66787 1.72548 2.75474 1.94172C2.9166 2.34412 4.17537 1.70716 3.86413 2.54683C4.14095 2.98077 5.22274 2.60955 5.24714 3.29598C5.69834 3.30505 5.90569 3.64743 6.26998 3.78581C6.36761 3.82286 6.48387 3.82286 6.58695 3.85781C7.20134 4.06664 7.96268 4.29065 8.21486 4.88068C7.98697 5.03421 7.67598 4.93141 7.40816 4.83747C7.17518 4.75566 6.83557 4.59366 6.60136 4.69337C6.36915 4.79226 6.38156 5.189 6.41408 5.58651C6.50057 6.64479 6.5513 7.73635 6.70215 8.68392C6.91284 10.0066 7.3632 11.066 7.99882 11.8966C8.6137 12.7003 9.33606 13.5418 10.2749 14.1297C11.0672 14.6256 11.9573 15.0168 13.0843 15.2677C13.2514 15.305 13.4535 15.3864 13.5452 15.3686C13.6813 15.3424 13.9742 14.9467 14.0784 14.85C14.3262 14.6196 14.6597 14.2972 15.0147 14.5762C14.9664 14.9603 14.6223 15.0484 14.5393 15.3975C14.7527 15.5333 14.979 15.4104 15.2453 15.4261C15.5551 15.4446 15.7926 15.6222 16.0521 15.5846C16.2178 15.5607 16.3007 15.4373 16.4267 15.3542C16.7129 15.7727 17.8165 15.2279 17.9825 15.7432ZM14.8562 14.6771C14.85 14.6306 14.8752 14.5525 14.8274 14.5476C14.7858 14.5686 14.7448 14.7011 14.8562 14.6771ZM7.60985 4.53492C7.75097 4.61943 7.87521 4.72097 7.99879 4.82316C8.07318 4.60411 7.85967 4.46397 7.60985 4.47733C7.60985 4.49646 7.60985 4.51569 7.60985 4.53492ZM11.4852 15.1525C11.5401 15.1641 11.5799 15.175 11.586 15.1094C11.5347 15.106 11.4998 15.1189 11.4852 15.1525ZM9.497 13.8847C9.49215 13.9525 9.62902 13.9538 9.65563 13.9423C9.63309 13.8972 9.56482 13.8388 9.497 13.8847ZM9.15124 13.611C9.17522 13.6353 9.23586 13.6224 9.2809 13.6254C9.28572 13.5727 9.2648 13.5454 9.25211 13.5101C9.17638 13.5018 9.15546 13.548 9.15124 13.611ZM6.38522 7.71867C6.34613 7.68555 6.31775 7.74623 6.29877 7.71867C6.3457 7.36127 6.42111 6.811 6.26998 6.50866C6.23261 6.47604 6.17347 6.52012 6.15477 6.49418C6.25535 6.25406 6.32327 5.75326 6.28439 5.45693C6.27072 5.35248 6.21647 5.16671 6.15477 5.12558C5.99973 5.02236 5.85865 5.18099 5.75132 5.21203C5.68378 5.23172 5.60869 5.21765 5.53525 5.22637C5.24475 5.26139 4.9365 5.34801 4.74293 5.44244C4.84383 5.5097 4.98684 5.53469 5.031 5.65851C4.77998 5.64076 4.58416 5.5677 4.36827 5.51451C4.3913 5.83953 3.9927 5.73768 3.74885 5.75948C3.83309 5.76131 3.84659 5.80202 3.84971 5.86027C3.85973 6.05149 3.23051 6.27811 3.01412 6.13411C2.70548 6.38294 3.14993 6.63712 3.12936 6.95529C3.06868 7.00025 3.04066 7.07781 2.98529 7.12801C2.67855 7.13546 2.35593 7.19716 2.40894 7.51705C2.36749 7.49286 2.3021 7.47672 2.25046 7.50256C2.17206 7.70454 2.30368 7.92377 2.48105 7.96367C2.52573 7.95066 2.53614 7.90352 2.59629 7.90605C2.99693 7.98266 3.13798 8.24837 3.11495 8.75592C3.11094 8.84332 3.11962 8.95736 3.05733 9.01534C2.82997 8.99976 2.61918 8.4386 2.98526 8.42471C2.89747 8.29555 2.83099 8.10286 2.66829 8.10767C2.48179 8.11323 2.39808 8.40798 2.26491 8.51109C2.45686 8.61716 2.90767 8.90987 2.5386 9.10175C2.7213 9.12914 2.82326 9.20159 2.89874 9.30334C3.02453 9.47321 3.02052 9.72774 3.11488 9.86531C3.30581 10.1438 3.40661 9.61549 3.63343 9.83638C3.68701 9.8548 3.60984 9.78434 3.60464 9.7789C3.41005 9.5688 3.11326 9.39661 2.9996 9.14499C3.08696 9.10495 3.20407 9.14865 3.28767 9.15934C3.32072 8.99009 3.20312 8.79856 3.24446 8.6694C3.27424 8.5768 3.32919 8.61758 3.38857 8.58306C3.42348 8.56273 3.39616 8.48708 3.46064 8.51106C3.46025 8.70884 3.34107 9.0417 3.47495 9.18813C3.67045 9.22322 3.72691 8.88702 3.89282 8.88561C3.98549 8.8848 4.07306 9.04793 4.13768 9.13051C4.2153 9.22961 4.32081 9.35139 4.29616 9.46179C4.24427 9.69452 3.85341 9.51733 3.71992 9.41854C3.80127 9.74149 4.30186 9.79162 4.32496 10.2111C4.32759 10.2579 4.30397 10.3176 4.31058 10.3694C4.33888 10.5908 4.54528 10.7553 4.75713 10.6145C4.78828 10.6938 4.79236 10.8003 4.87248 10.8305C4.94265 10.7712 4.91773 10.6165 4.95886 10.5279C5.21023 10.5805 5.34146 10.7016 5.41983 10.9025C5.45864 11.0018 5.44862 11.1861 5.60711 11.1906C5.63136 10.945 5.43892 10.7928 5.40548 10.5567C5.53461 10.765 6.0004 10.9904 5.98177 11.3203C5.96939 11.5378 5.71085 11.5615 5.46311 11.594C5.69921 11.6751 5.79811 11.9396 6.05377 12.0261C6.12246 12.0495 6.2107 12.0295 6.28425 12.0551C6.47132 12.1201 6.77043 12.5036 6.6877 12.7466C6.2891 12.9475 5.97811 12.4045 5.53514 12.4153C5.72193 12.6534 6.02747 12.7327 6.28429 12.8475C6.56068 12.9709 6.83743 13.0973 7.10547 13.222C7.73729 13.5159 8.17587 13.9004 8.58938 14.3889C8.30247 14.5454 7.43284 14.2852 7.95547 14.1007C7.77368 14.0945 7.58127 13.9805 7.42236 14.0432C7.5066 14.5929 8.22983 14.5036 8.77665 14.5906C8.72687 14.6848 8.6567 14.7588 8.60372 14.8499C8.64587 14.8748 8.70413 14.8838 8.77665 14.8787C8.74164 14.9348 8.65048 14.935 8.64693 15.0227C8.71696 15.116 8.85558 15.1407 8.94948 15.21C9.31971 14.9445 9.36123 15.5468 9.59776 15.5557C9.82129 15.5641 9.86414 15.2429 10.0877 15.21C10.0315 15.3268 9.92159 15.3897 9.87163 15.5126C10.0905 15.4597 10.1529 15.3418 10.3324 15.2964C10.9757 15.1336 11.5031 15.6695 12.0324 15.7287C12.2227 15.7499 12.4119 15.8568 12.5799 15.8872C12.797 15.9264 12.9305 15.8549 13.0985 15.772C12.8426 15.5331 12.2552 15.6261 12.0469 15.3397C12.0549 15.2901 12.0888 15.2664 12.119 15.2389C11.4447 15.3871 11.0201 14.983 10.7359 14.605C9.90404 14.3902 9.17423 14.073 8.81975 13.3805C8.80274 13.3153 8.88363 13.3483 8.8631 13.2796C8.57064 12.9542 8.27831 12.6238 8.04192 12.2423C7.96022 12.1106 7.90429 11.9451 7.81137 11.839C7.75252 11.7717 7.65376 11.7347 7.5953 11.666C7.53128 11.5907 7.52256 11.4964 7.42233 11.4644C7.3838 11.5219 7.40964 11.6437 7.37919 11.7093C7.3099 11.4311 7.15553 11.1669 6.86057 11.1618C6.85508 10.9595 7.01852 10.9261 7.10543 10.816C6.99103 10.6785 6.96347 10.5052 6.90377 10.2975C6.75865 9.79268 6.63873 9.26533 6.51473 8.79913C6.35041 8.86047 6.30686 9.04262 6.22666 9.18813C6.23457 8.98 6.24431 8.77357 6.35636 8.6694C6.40758 8.67583 6.4132 8.7279 6.44273 8.75588C6.46981 8.65773 6.56269 8.56618 6.51473 8.43898C6.47754 8.38154 6.3688 8.40833 6.34194 8.41019C6.41303 8.2362 6.47272 7.92043 6.38522 7.71867ZM12.1766 16.2619C12.3012 16.2087 12.4133 16.1432 12.4646 16.0168C12.3293 16.0508 12.1384 16.1019 12.1766 16.2619ZM12.191 15.9737C12.1077 16.0199 12.0139 16.056 11.9606 16.1322C12.08 16.1393 12.2199 16.0194 12.191 15.9737ZM11.7445 16.1898C11.826 16.168 11.9133 16.0838 11.903 16.0168C11.8082 16.0263 11.6618 16.0939 11.7445 16.1898ZM11.8021 15.8584C11.6724 15.8174 11.5666 15.9189 11.5571 16.0458C11.6726 16.0171 11.7508 15.9512 11.8021 15.8584ZM11.3986 15.8873C11.272 15.9094 11.1773 15.9633 11.1393 16.0744C11.2941 16.1358 11.3733 16.0028 11.3986 15.8873ZM11.197 16.2619C11.2327 16.2639 11.2668 16.2645 11.2691 16.233C11.2474 16.2101 11.1869 16.2119 11.197 16.2619ZM11.4275 15.6423C11.226 15.6268 10.9849 15.7576 11.1106 15.9304C11.2448 15.8629 11.3807 15.7973 11.4275 15.6423ZM10.4334 15.9161C10.5593 15.9338 10.5922 15.7898 10.6784 15.8151C10.7285 15.8467 10.698 15.9588 10.7792 15.9593C10.9676 15.9209 11.0354 15.6638 10.9232 15.4838C10.6692 15.5285 10.4369 15.6683 10.4334 15.9161ZM10.491 15.5415C10.4145 15.5803 10.3331 15.6139 10.2894 15.6855C10.3836 15.6815 10.524 15.5775 10.491 15.5415ZM10.0878 15.6136C10.0958 15.6519 10.0284 15.6869 10.0731 15.7143C10.0851 15.6962 10.1609 15.625 10.0878 15.6136ZM9.82842 15.9592C9.82389 15.9788 9.80782 15.9867 9.81411 16.0168C9.83313 16.0168 9.85243 16.0168 9.87174 16.0168C9.87564 15.9791 9.86628 15.955 9.82842 15.9592ZM9.61235 15.8873C9.53954 15.8914 9.51202 15.9407 9.51145 16.0168C9.57417 16.0029 9.63134 15.9832 9.61235 15.8873ZM8.15713 15.1525C8.06836 15.1486 8.04129 15.1623 8.14282 15.1815C8.23954 15.1993 8.41015 15.2086 8.4742 15.1815C8.39816 15.1806 8.20167 15.1546 8.15713 15.1525ZM8.58945 14.9221C8.51407 14.8648 8.36255 14.9063 8.28693 14.9364C8.33056 15.0563 8.5448 15.0031 8.58945 14.9221ZM8.12851 16.0025C8.48781 16.1908 8.98253 16.3964 9.497 16.3338C9.12315 16.1508 8.56719 16.0727 8.12851 16.0025ZM7.5954 15.844C7.62982 15.8913 7.7111 15.8915 7.7682 15.9161C7.87454 15.8133 7.64079 15.7554 7.5954 15.844ZM6.24115 14.6771C6.14391 14.6855 6.03809 14.6853 6.01066 14.7636C6.1033 14.798 6.23735 14.7766 6.24115 14.6771ZM5.96739 15.0516C6.00124 15.0823 6.0635 15.1189 6.08266 15.0516C6.06776 15.0364 5.97983 15.022 5.96739 15.0516ZM6.14029 13.8271C6.15336 13.7668 6.03865 13.7441 6.02508 13.7983C6.05665 13.8146 6.084 13.8354 6.14029 13.8271ZM6.32763 14.3168C6.32693 14.2971 6.33442 14.2853 6.34201 14.2737C6.29909 14.2294 6.21229 14.2215 6.14029 14.2449C6.15182 14.3142 6.2672 14.3431 6.32763 14.3168ZM6.34205 15.239C6.36047 15.2587 6.41004 15.2587 6.42846 15.239C6.43525 15.1937 6.41046 15.1801 6.38525 15.1668C6.37232 15.1924 6.35045 15.2089 6.34205 15.239ZM6.78867 13.5822C6.74174 13.4465 6.5887 13.4823 6.48608 13.4382C6.32116 13.3671 6.18036 13.1975 5.96742 13.1933C5.95786 13.1933 5.94819 13.1933 5.9387 13.1933C6.1239 13.4116 6.36901 13.6461 6.78867 13.5822ZM6.03946 13.0493C5.90498 12.9579 5.75768 12.8794 5.56404 12.8476C5.6256 13.0021 5.86522 13.0553 6.03946 13.0493ZM6.48605 13.7262C6.58705 13.8318 6.71382 13.9116 6.93267 13.899C6.84854 13.7861 6.64752 13.7138 6.48605 13.7262ZM7.0335 14.3746C6.88518 14.2718 6.65188 14.105 6.45725 14.144C6.56982 14.2908 6.79613 14.4007 7.0335 14.3746ZM6.48605 14.9221C6.48257 14.9426 6.46235 14.9462 6.45725 14.9651C6.49276 15.0114 6.5462 14.9317 6.48605 14.9221ZM6.81739 15.3543C6.82963 15.4092 6.88254 15.4235 6.93267 15.4407C6.95218 15.4073 6.99054 15.3929 6.97588 15.3255C6.94086 15.3044 6.81493 15.2923 6.81739 15.3543ZM7.09116 14.7204C7.04654 14.693 6.88384 14.6625 6.84619 14.7204C6.91608 14.7487 7.05336 14.8221 7.09116 14.7204ZM7.13436 14.2304C7.14878 14.1233 7.02756 14.1228 6.97588 14.1583C6.98073 14.2304 7.07607 14.212 7.13436 14.2304ZM7.29281 13.4525C7.22774 13.3543 7.047 13.3718 6.91826 13.3373C6.82397 13.2189 6.59851 13.1759 6.39963 13.2076C6.62741 13.3594 6.88648 13.4795 7.29281 13.4525ZM7.26402 14.8355C7.32589 14.8889 7.42289 14.9072 7.50892 14.9364C7.51352 14.9025 7.53163 14.8823 7.5233 14.8355C7.48136 14.7871 7.29935 14.7622 7.26402 14.8355ZM6.03946 12.5016C6.05387 12.4344 6.01432 12.4212 5.95301 12.4297C5.93128 12.5043 6.00314 12.4851 6.03946 12.5016ZM6.38522 12.6746C6.34314 12.6639 6.3573 12.597 6.29877 12.6025C6.24568 12.6512 6.34131 12.7253 6.38522 12.6746ZM5.39118 12.7755C5.34336 12.6698 5.23561 12.6237 5.16069 12.5449C5.30118 12.3414 4.98772 12.2581 4.93017 12.1127C4.9295 12.0689 4.96058 12.0567 4.97338 12.0262C4.85234 11.9553 4.71255 11.903 4.642 11.7815C4.69772 11.7411 4.84625 11.7935 4.90127 11.7525C4.81402 11.7149 4.7198 11.6844 4.6852 11.594C4.73572 11.4765 4.94111 11.5139 4.98772 11.3924C4.73955 11.3376 4.493 11.2057 4.22413 11.2195C4.22719 11.3221 4.31852 11.3364 4.35379 11.4068C4.27409 11.3714 4.20961 11.3204 4.09451 11.3204C4.08589 11.3914 4.13191 11.4078 4.12337 11.4788C4.0448 11.4853 4.00496 11.4531 3.92161 11.4645C3.98102 11.5971 4.13339 11.6369 4.18099 11.7815C4.12207 11.7964 4.04209 11.7581 4.02251 11.7815C4.17459 11.9078 4.39671 12.041 4.48344 12.1847C4.34194 12.1584 4.26094 12.0713 4.12337 12.0407C4.23854 12.2688 4.51898 12.3163 4.72841 12.4297C4.94279 12.5458 5.13489 12.7329 5.39118 12.7755ZM5.07421 12.9483C5.13443 12.9812 5.25431 13.0857 5.33355 13.0061C5.26676 12.9765 5.16168 12.9092 5.07421 12.9483ZM4.959 12.8762C4.91846 12.8106 4.71164 12.7756 4.65652 12.8186C4.75052 12.8456 4.83912 12.9186 4.959 12.8762ZM4.69965 12.9195C4.69512 12.9391 4.67919 12.9469 4.68527 12.9772C4.71062 12.9689 4.76989 12.9945 4.77172 12.9628C4.74936 12.9467 4.74166 12.916 4.69965 12.9195ZM4.51237 11.0034C4.47307 10.868 4.42058 10.7196 4.31072 10.6145C4.25155 10.5578 4.19425 10.5589 4.15223 10.4847C4.04089 10.2888 4.09426 10.0122 3.95054 9.80776C3.91655 9.79668 3.85098 9.77925 3.82089 9.80776C3.82359 9.90222 4.04283 10.1262 3.89299 10.2399C3.56168 10.2531 3.43413 9.98934 3.11505 10.0382C3.0432 10.2243 3.29723 10.3199 3.23023 10.456C3.68852 10.6031 4.0525 10.9218 4.51237 11.0034ZM3.47509 11.4356C3.55975 11.5 3.68212 11.6031 3.79206 11.594C3.70498 11.5323 3.62486 11.387 3.47509 11.4356ZM3.31661 11.306C3.27923 11.1898 3.21444 11.1009 3.07171 11.09C3.10075 11.2145 3.23606 11.233 3.31661 11.306ZM3.07171 11.6806C3.14884 11.7334 3.22545 11.8627 3.30223 11.8679C3.24608 11.7943 3.17767 11.6565 3.07171 11.6806ZM3.17261 10.6865C3.18006 10.6651 3.19384 10.6502 3.2014 10.6288C3.16445 10.578 3.07336 10.6057 3.05736 10.6578C3.0857 10.6774 3.13963 10.6715 3.17261 10.6865ZM5.40563 11.2627C5.40359 11.1388 5.26588 11.0668 5.16069 11.1332C5.19402 11.2247 5.29446 11.249 5.40563 11.2627ZM4.0513 9.37565C4.05373 9.35182 3.9626 9.35182 3.96492 9.37565C3.98468 9.38001 4.05183 9.44069 4.0513 9.37565ZM3.48957 9.31789C3.47034 9.31789 3.45111 9.31789 3.43188 9.31789C3.41209 9.33642 3.41764 9.38061 3.41747 9.41861C3.4438 9.42255 3.49826 9.47065 3.51837 9.4332C3.48272 9.42065 3.52252 9.33294 3.48957 9.31789ZM2.40898 9.30341C2.45672 9.41204 2.64997 9.40399 2.68274 9.2891C2.60075 9.25735 2.47999 9.27943 2.40898 9.30341ZM2.45229 8.90002C2.39657 8.89725 2.34608 8.89957 2.30811 8.91451C2.31933 8.97737 2.4519 8.96619 2.45229 8.90002ZM2.58188 6.58066C2.50784 6.61487 2.35343 6.54638 2.27939 6.58066C2.34496 6.84022 2.83092 6.70047 2.79805 6.49418C2.77014 6.31917 2.30801 6.36252 2.14973 6.37897C2.27239 6.46756 2.46737 6.48388 2.58188 6.58066ZM2.00566 6.85435C2.03277 6.8945 2.10727 6.88719 2.14973 6.91197C2.15807 6.88195 2.18549 6.87091 2.17853 6.82556C2.14073 6.80559 2.00475 6.78988 2.00566 6.85435ZM2.74043 6.79677C2.73266 6.8282 2.70548 6.88997 2.75474 6.89763C2.78905 6.87344 2.78188 6.81765 2.74043 6.79677ZM3.14381 5.93234C3.14002 5.89023 3.17633 5.88819 3.17261 5.84593C3.11404 5.8402 3.07216 5.85117 3.07171 5.90352C3.09913 5.90977 3.10788 5.93456 3.14381 5.93234ZM3.1294 2.73411C3.07202 3.08567 3.38878 3.51096 3.76323 3.38236C3.7807 3.24968 3.72016 3.19501 3.72002 3.07987C3.81558 3.0567 3.87183 3.14846 3.92168 3.12308C3.78155 2.8695 3.40879 2.84851 3.1294 2.73411ZM2.97084 2.40276C3.09748 2.42783 3.29621 2.41514 3.34547 2.31631C3.24981 2.2524 2.96279 2.23528 2.97084 2.40276ZM2.62508 1.39427C2.65279 1.11446 2.31086 0.959845 2.10653 1.14941C1.9788 1.26781 1.92333 1.55377 2.12091 1.65365C2.09848 1.57997 2.03298 1.54949 2.04891 1.43758C2.19906 1.35173 2.47437 1.47945 2.62508 1.39427ZM2.52436 2.31628C2.56099 2.29536 2.61601 2.29286 2.61077 2.22986C2.56648 2.23433 2.491 2.28207 2.52436 2.31628ZM2.22173 3.38236C2.40138 3.38661 2.53684 3.28529 2.71157 3.28156C2.86281 3.27836 3.00695 3.32336 3.18698 3.31036C3.05842 2.93302 2.43373 3.26254 2.22173 3.38236ZM1.94804 4.04509C2.28797 4.00188 2.76156 3.77822 3.21581 3.82902C3.38716 3.84814 3.53725 3.94458 3.63357 4.01629C3.58446 3.96388 3.52628 3.74875 3.63357 3.71381C3.87 3.75884 3.87787 4.20554 4.16661 4.14599C4.31371 4.11565 4.3585 3.83032 4.28189 3.65615C4.39182 3.7335 4.44846 3.86414 4.59886 3.90109C4.56455 3.7625 4.46481 3.68934 4.3972 3.58412C4.43967 3.53061 4.49529 3.49011 4.48358 3.38236C4.0713 3.34274 3.70536 3.56527 3.31664 3.6417C3.01496 3.70112 2.79046 3.75997 2.52439 3.82898C2.32436 3.88084 2.10178 3.91722 1.94804 4.04509ZM0.737895 7.02729C0.718102 7.04564 0.712793 7.11335 0.752273 7.1137C0.764121 7.10326 0.790945 7.014 0.737895 7.02729ZM1.24204 5.31293C0.610312 5.41316 1.28366 6.08499 1.6599 5.91804C1.70754 5.84488 1.69274 5.77783 1.6887 5.673C1.90789 5.69448 2.07281 5.58771 2.26501 5.62986C2.29602 5.69683 2.23738 5.75354 2.22177 5.81707C2.87543 5.77562 3.19908 5.26202 3.90727 5.18324C3.99526 5.17343 4.09556 5.189 4.19548 5.18324C4.49371 5.16583 4.82407 5.11057 5.1319 5.05354C5.43393 4.99772 5.71008 4.88666 5.96742 4.82313C6.2904 4.74329 6.78175 4.53235 6.71664 4.10274C6.70918 4.05384 6.67526 4.0099 6.64457 3.95867C4.92775 3.79266 3.64412 4.4657 2.29384 4.73665C2.13163 4.76916 1.9344 4.74754 1.80397 4.88065C1.85115 4.99673 2.01695 4.99424 2.09204 5.08234C2.0545 5.12635 1.96165 5.1151 1.94804 5.18324C1.97982 5.30509 2.16046 5.27795 2.17853 5.41379C1.89176 5.61594 1.29045 5.3581 1.42938 4.95275C0.996082 5.04771 0.365203 5.14207 0.36334 5.62986C0.362461 5.84484 0.490605 6.04368 0.636996 6.1629C0.53782 5.70903 0.706394 5.0379 1.24204 5.31293ZM1.77514 8.00691C1.78826 7.90936 1.62791 7.84105 1.57349 7.90612C1.62657 7.95383 1.70968 7.97144 1.77514 8.00691ZM1.2709 8.19419C1.37278 8.54843 1.40593 8.9716 1.67428 9.15944C1.63389 8.74361 1.48634 8.43498 1.2709 8.19419ZM1.87597 7.81964C1.92083 7.61626 1.62246 7.53659 1.60228 7.67553C1.58467 7.79654 1.77546 7.78248 1.87597 7.81964ZM1.93363 7.4306C1.86859 7.35948 1.70536 7.31539 1.5879 7.34418C1.62935 7.44617 1.88437 7.5971 1.93363 7.4306ZM1.76077 6.79677C1.82584 6.7562 1.89489 6.71949 1.90477 6.6238C1.82116 6.56122 1.62102 6.5524 1.60228 6.65277C1.58811 6.72863 1.68979 6.75939 1.76077 6.79677ZM1.94804 7.04163C1.95434 6.99213 1.94235 6.96095 1.93363 6.92635C1.85973 6.92452 1.82524 6.96204 1.81839 7.02729C1.85425 7.03938 1.89555 7.04609 1.94804 7.04163ZM0.939586 6.96963C0.928477 6.93272 0.925172 6.88796 0.896379 6.8688C0.860555 6.90758 0.859184 6.97722 0.939586 6.96963ZM1.08366 5.99004C1.019 5.96483 0.923309 5.99172 0.896379 6.04762C0.926613 6.0749 0.970137 6.08914 1.01162 6.10517C1.02618 6.0575 1.09132 6.06014 1.08366 5.99004ZM1.24204 7.84843C1.20477 7.76567 1.20009 7.65032 1.12686 7.60357C0.929601 7.63162 1.12504 7.91502 1.24204 7.84843ZM1.5158 9.40427C1.65646 9.74434 1.80492 10.1119 2.10653 10.2686C1.881 10.0177 1.82777 9.60255 1.67428 9.30341C1.6212 9.20019 1.5365 9.11993 1.487 9.01537C1.37053 8.76917 1.31685 8.48191 1.08366 8.36706C1.17555 8.72934 1.37239 9.05721 1.5158 9.40427ZM5.47766 14.8068C5.39047 14.5098 5.15644 14.3595 4.82934 14.3025C4.74848 14.1097 4.51512 14.0695 4.4692 13.8416C4.46175 13.7948 4.55843 13.7782 4.5269 13.7551C4.08843 13.8382 4.07296 13.3734 3.86416 13.1788C3.33728 13.1883 3.43529 12.5364 3.14385 12.1993C3.0606 12.1028 2.97805 12.0806 2.8845 11.9832C2.74054 11.5371 2.36482 11.3107 2.14977 10.9172C1.95877 10.5675 1.91858 10.173 1.60235 9.92304C1.85256 10.7701 2.38859 11.4862 2.87012 12.1993C3.25557 12.7699 3.5177 13.3134 3.95058 13.7695C4.09767 13.9243 4.26375 14.028 4.44045 14.1729C4.741 14.4193 4.94796 14.8765 5.47766 14.8068ZM5.41997 13.8271C5.40447 13.7654 5.29334 13.7237 5.23269 13.7551C5.28855 13.7859 5.34994 13.8107 5.41997 13.8271ZM5.95301 13.4525C5.85541 13.3388 5.65109 13.2955 5.46321 13.2221C5.23016 13.1308 4.89765 13.0445 4.72852 13.15C4.74553 13.2914 4.85814 13.3373 4.93017 13.4237C5.13032 13.4545 5.24486 13.5522 5.43435 13.5677C5.6577 13.5861 5.86628 13.5762 5.95301 13.4525ZM12.8249 16.7373C12.389 16.5385 11.7496 16.7622 11.2834 16.6507C11.1954 16.6297 11.1176 16.5692 11.0385 16.5643C10.9599 16.5595 10.8683 16.601 10.7936 16.6076C10.3943 16.6431 10.0298 16.6037 9.65559 16.5498C9.39301 16.5121 9.11334 16.4974 8.87752 16.4346C8.65164 16.3747 8.41802 16.2364 8.18599 16.1465C7.95055 16.0554 7.70544 15.9646 7.48009 15.8728C7.0355 15.6917 6.563 15.3782 6.09704 15.2534C6.41138 15.5873 6.95254 15.6946 7.32168 15.9737C6.80003 15.8278 6.40642 15.554 5.93863 15.3543C6.30309 15.6806 6.81166 15.8782 7.32168 16.0889C7.82958 16.2988 8.3815 16.4764 8.97831 16.5643C10.1638 16.7389 11.5543 16.9983 12.8249 16.7373ZM13.1994 16.694C13.1255 16.697 13.0333 16.6816 13.0267 16.7516C13.0893 16.8054 13.1948 16.7998 13.1994 16.694ZM13.9774 14.994C13.9978 15.1005 14.1524 15.0687 14.136 14.9508C14.0575 14.9396 14.0234 14.973 13.9774 14.994ZM15.1731 15.7432C14.7858 15.7338 14.3081 15.6 13.9053 15.6136C13.7507 15.6187 13.5629 15.6557 13.5164 15.815C13.6352 15.8633 13.7626 15.8343 13.9053 15.8297C14.3725 15.8139 14.9435 16.0238 15.1731 15.7432ZM15.5622 15.7143C15.4948 15.7142 15.4749 15.7617 15.4613 15.815C15.4798 15.8349 15.5238 15.8295 15.5622 15.8297C15.5553 15.7659 15.5819 15.7579 15.5622 15.7143ZM16.4122 15.6568C16.3419 15.6461 16.3157 15.7335 16.3401 15.7721C16.3854 15.7789 16.3964 15.7515 16.4266 15.7432C16.437 15.6991 16.4018 15.7008 16.4122 15.6568ZM17.6078 15.7432C17.3129 15.7117 16.9684 15.7312 16.7003 15.7721C16.8582 15.9208 17.4253 15.8259 17.6078 15.7432ZM3.74885 6.98394C3.89095 7.0629 4.02209 7.22926 4.20989 7.21449C4.15916 7.1452 4.08723 7.09704 4.03692 7.02729C4.09043 7.02307 4.13589 7.01101 4.1522 6.96963C3.97698 6.84704 3.75226 6.69731 3.6624 6.53731C3.72171 6.65224 3.81248 6.83533 3.74885 6.98394ZM5.5929 7.09932C5.56207 7.06775 5.57596 6.99129 5.53521 6.96966C5.52604 7.03235 5.56661 7.11999 5.5929 7.09932ZM4.26748 8.35275C4.28955 8.58995 4.44115 8.69749 4.45475 8.94337C4.28636 8.75163 4.19235 8.48539 4.0802 8.23733C4.0692 8.53739 4.1599 8.72329 4.23868 8.92899C4.29933 9.08706 4.35618 9.27258 4.51237 9.31793C4.58532 9.30432 4.58125 9.21365 4.65655 9.20258C4.73664 9.21411 4.77833 9.33983 4.82934 9.33238C4.79088 9.28913 4.77889 9.21952 4.77172 9.1451C4.78564 9.09173 4.86193 9.1008 4.88693 9.05854C4.74205 8.76172 4.53438 8.52751 4.26748 8.35275Z" fill="black"/>
</g>
<defs>
<clipPath id="clip0_603_1487">
<rect width="18" height="18" fill="white"/>
</clipPath>
</defs>
</svg>
