<svg width="18" height="18" viewBox="0 0 18 18" fill="none" xmlns="http://www.w3.org/2000/svg">
<g clip-path="url(#clip0_603_1437)">
<path fill-rule="evenodd" clip-rule="evenodd" d="M7.13525 0.25C5.76206 0.25 4.64891 1.32783 4.64891 2.65741V4.32408H8.95219V4.78704H2.73634C1.36317 4.78704 0.25 5.86488 0.25 7.19444V10.8056C0.25 12.1351 1.36317 13.2129 2.73634 13.2129H4.17076V11.1759C4.17076 9.84638 5.28394 8.7685 6.65712 8.7685H11.2473C12.4092 8.7685 13.3511 7.8565 13.3511 6.7315V2.65741C13.3511 1.32783 12.2379 0.25 10.8648 0.25H7.13525ZM6.5615 3.21296C7.03681 3.21296 7.42212 2.83986 7.42212 2.37963C7.42212 1.91939 7.03681 1.54629 6.5615 1.54629C6.08613 1.54629 5.70081 1.91939 5.70081 2.37963C5.70081 2.83986 6.08613 3.21296 6.5615 3.21296Z" fill="url(#paint0_linear_603_1437)"/>
<path fill-rule="evenodd" clip-rule="evenodd" d="M10.8646 17.7501C12.2378 17.7501 13.351 16.6722 13.351 15.3427V13.676H9.04769V13.2131H15.2636C16.6367 13.2131 17.7499 12.1352 17.7499 10.8056V7.1945C17.7499 5.86493 16.6367 4.78711 15.2636 4.78711H13.8291V6.82412C13.8291 8.15375 12.7159 9.23156 11.3428 9.23156H6.75262C5.59068 9.23156 4.6488 10.1436 4.6488 11.2686V15.3427C4.6488 16.6722 5.762 17.7501 7.13512 17.7501H10.8646ZM11.4384 14.7871C10.9631 14.7871 10.5777 15.1602 10.5777 15.6204C10.5777 16.0807 10.9631 16.4537 11.4384 16.4537C11.9137 16.4537 12.2991 16.0807 12.2991 15.6204C12.2991 15.1602 11.9137 14.7871 11.4384 14.7871Z" fill="url(#paint1_linear_603_1437)"/>
</g>
<defs>
<linearGradient id="paint0_linear_603_1437" x1="6.80056" y1="0.25" x2="6.80056" y2="13.2129" gradientUnits="userSpaceOnUse">
<stop stop-color="#327EBD"/>
<stop offset="1" stop-color="#1565A7"/>
</linearGradient>
<linearGradient id="paint1_linear_603_1437" x1="11.1994" y1="4.78711" x2="11.1994" y2="17.7501" gradientUnits="userSpaceOnUse">
<stop stop-color="#FFDA4B"/>
<stop offset="1" stop-color="#F9C600"/>
</linearGradient>
<clipPath id="clip0_603_1437">
<rect width="18" height="18" fill="white"/>
</clipPath>
</defs>
</svg>
