<svg width="18" height="18" viewBox="0 0 18 18" fill="none" xmlns="http://www.w3.org/2000/svg">
<path d="M10.5069 8.98643C10.5069 8.17958 9.83232 7.52539 9.00005 7.52539C8.16788 7.52539 7.49316 8.17958 7.49316 8.98643C7.49316 9.79339 8.16788 10.4475 9.00005 10.4475C9.83232 10.4475 10.5069 9.79339 10.5069 8.98643Z" fill="#53C1DE"/>
<path fill-rule="evenodd" clip-rule="evenodd" d="M13.894 6.27396C14.2122 5.02019 14.6122 2.69521 13.2021 1.90696C11.7986 1.12216 9.97223 2.62599 9.00782 3.52866C8.04623 2.63499 6.16854 1.13758 4.75967 1.92833C3.35672 2.71577 3.78936 5.0022 4.11463 6.26383C2.80592 6.62422 0.5625 7.40047 0.5625 8.98644C0.5625 10.5679 2.80359 11.4124 4.10455 11.7725C3.77808 13.0411 3.3671 15.2949 4.77184 16.0806C6.18598 16.8712 8.05781 15.4094 9.03116 14.4969C10.0018 15.4048 11.8106 16.8762 13.2144 16.0883C14.6225 15.2979 14.2558 13.0041 13.9305 11.7352C15.1916 11.3743 17.4375 10.5482 17.4375 8.98644C17.4375 7.41572 15.182 6.63317 13.894 6.27396ZM13.7341 11.0627C13.5205 10.4071 13.2323 9.71004 12.8796 8.98993C13.2162 8.28681 13.4933 7.5987 13.7009 6.94738C14.6452 7.21282 16.7167 7.81948 16.7167 8.98644C16.7167 10.1644 14.7288 10.7768 13.7341 11.0627ZM12.8531 15.4834C11.8058 16.0712 10.2499 14.6641 9.53314 13.9955C10.0087 13.4912 10.4839 12.905 10.9477 12.254C11.7635 12.1839 12.5342 12.0691 13.2332 11.9125C13.4621 12.81 13.9051 14.8929 12.8531 15.4834ZM5.13204 15.475C4.08455 14.8894 4.56333 12.8782 4.80351 11.9437C5.49469 12.092 6.25984 12.1987 7.0776 12.2629C7.54442 12.8999 8.0334 13.4854 8.52615 13.9982C7.91736 14.5692 6.18441 16.0633 5.13204 15.475ZM1.28334 8.98644C1.28334 7.80412 3.34241 7.20186 4.30821 6.93709C4.51941 7.60303 4.79641 8.29935 5.13069 9.00349C4.79208 9.71809 4.51112 10.4254 4.29798 11.0992C3.37708 10.8436 1.28334 10.1695 1.28334 8.98644ZM5.12083 2.53324C6.17259 1.94296 7.80452 3.38053 8.50269 4.02757C8.01248 4.53799 7.52799 5.11909 7.06517 5.75241C6.27154 5.82373 5.5118 5.93826 4.81336 6.09171C4.55133 5.07415 4.0702 3.12288 5.12083 2.53324ZM11.4634 6.51212C12.0018 6.57799 12.5177 6.66562 13.002 6.77284C12.8566 7.22475 12.6754 7.69731 12.4619 8.18173C12.1525 7.61248 11.8203 7.05465 11.4634 6.51212ZM9.00804 4.52706C9.34054 4.8763 9.67354 5.26629 10.0011 5.68941C9.33666 5.65892 8.67111 5.65881 8.00663 5.68896C8.33451 5.26977 8.67037 4.88035 9.00804 4.52706ZM5.54428 8.18122C5.33435 7.69849 5.15474 7.22385 5.00806 6.76547C5.48954 6.66101 6.003 6.57562 6.53794 6.51082C6.17996 7.05217 5.84837 7.60978 5.54428 8.18122ZM6.55329 11.512C6.00069 11.4522 5.47946 11.3711 4.99813 11.2695C5.14712 10.8031 5.33069 10.3182 5.5451 9.82507C5.85337 10.4025 6.19003 10.9655 6.55329 11.512ZM9.02801 13.4952C8.68635 13.1377 8.34553 12.7424 8.0127 12.3171C8.68095 12.3425 9.35049 12.3426 10.0187 12.3137C9.69008 12.7467 9.35826 13.1426 9.02801 13.4952ZM12.4688 9.79999C12.6943 10.2985 12.8845 10.7807 13.0355 11.2393C12.5462 11.3475 12.0179 11.4347 11.4613 11.4995C11.8209 10.9466 12.1584 10.3801 12.4688 9.79999ZM10.5454 11.5842C9.52318 11.655 8.49465 11.6542 7.47214 11.59C6.89113 10.7671 6.37391 9.90169 5.92746 9.00326C6.37177 8.10669 6.88523 7.24297 7.46348 6.42139C8.48672 6.34641 9.51626 6.34618 10.5395 6.42184C11.1128 7.24337 11.6255 8.10484 12.0801 8.99331C11.6309 9.88942 11.1147 10.7549 10.5454 11.5842ZM12.842 2.51246C13.8941 3.1008 13.4258 5.19033 13.196 6.09896C12.4959 5.94231 11.7356 5.82576 10.9397 5.75331C10.4759 5.11315 9.99551 4.53104 9.51322 4.02721C10.2203 3.36623 11.8002 1.92987 12.842 2.51246Z" fill="#53C1DE"/>
</svg>
