<svg width="18" height="18" viewBox="0 0 18 18" fill="none" xmlns="http://www.w3.org/2000/svg">
<g clip-path="url(#clip0_603_1454)">
<path d="M0 9V18H9H18V9V0H9H0V9Z" fill="#007ACC"/>
<path d="M3.98048 9.05982L3.97477 9.79696H5.1462H6.31763L6.31763 13.1255V16.4541H7.1462H7.97477V13.1255L7.97477 9.79696H9.1462H10.3176L10.3176 9.0741C10.3176 8.6741 10.3091 8.33982 10.2976 8.33125C10.2891 8.31982 8.86334 8.3141 7.13477 8.31696L3.98906 8.32553L3.98048 9.05982Z" fill="white"/>
<path d="M14.5242 8.30453C14.9814 8.41882 15.33 8.62167 15.65 8.9531C15.8157 9.13025 16.0614 9.4531 16.0814 9.53025C16.0871 9.5531 15.3042 10.0788 14.83 10.3731C14.8128 10.3845 14.7442 10.3102 14.6671 10.196C14.4357 9.85882 14.1928 9.7131 13.8214 9.68739C13.2757 9.65025 12.9242 9.93596 12.9271 10.4131C12.9271 10.5531 12.9471 10.636 13.0042 10.7502C13.1242 10.9988 13.3471 11.1474 14.0471 11.4502C15.3357 12.0045 15.8871 12.3702 16.23 12.8902C16.6128 13.4702 16.6985 14.396 16.4385 15.0845C16.1528 15.8331 15.4442 16.3417 14.4471 16.5102C14.1385 16.5645 13.4071 16.556 13.0757 16.496C12.3528 16.3674 11.6671 16.0102 11.2442 15.5417C11.0785 15.3588 10.7557 14.8817 10.7757 14.8474C10.7842 14.836 10.8585 14.7902 10.9414 14.7417C11.0214 14.696 11.3242 14.5217 11.61 14.356L12.1271 14.056L12.2357 14.216C12.3871 14.4474 12.7185 14.7645 12.9185 14.8702C13.4928 15.1731 14.2814 15.1302 14.67 14.7817C14.8357 14.6302 14.9042 14.4731 14.9042 14.2417C14.9042 14.0331 14.8785 13.9417 14.77 13.7845C14.63 13.5845 14.3442 13.416 13.5328 13.0645C12.6042 12.6645 12.2042 12.416 11.8385 12.0217C11.6271 11.7931 11.4271 11.4274 11.3442 11.1217C11.2757 10.8674 11.2585 10.2302 11.3128 9.9731C11.5042 9.07596 12.1814 8.45025 13.1585 8.26453C13.4757 8.20453 14.2128 8.22739 14.5242 8.30453Z" fill="white"/>
</g>
<defs>
<clipPath id="clip0_603_1454">
<rect width="18" height="18" fill="white"/>
</clipPath>
</defs>
</svg>
