<svg width="28" height="20" viewBox="0 0 28 20" fill="none" xmlns="http://www.w3.org/2000/svg">
<path fill-rule="evenodd" clip-rule="evenodd" d="M24.1818 0C26.2906 0 28 1.67894 28 3.75V16.25C28 18.3211 26.2906 20 24.1818 20H3.81818C1.70946 20 0 18.3211 0 16.25V3.75C0 1.67894 1.70946 0 3.81818 0H24.1818ZM23.231 2.5H4.76914L13.2114 9.04588C13.6738 9.4045 14.3262 9.4045 14.7887 9.04588L23.231 2.5ZM2.54545 3.961V16.25C2.54545 16.9404 3.11528 17.5 3.81818 17.5H24.1818C24.8847 17.5 25.4545 16.9404 25.4545 16.25V3.96102L16.3659 11.0081C14.9787 12.0838 13.0213 12.0838 11.6341 11.0081L2.54545 3.961Z" fill="#0F0F0F"/>
</svg>
